<svg xmlns="http://www.w3.org/2000/svg" width="63.356" height="63.355" viewBox="0 0 63.356 63.355"><defs><style>.a,.b{fill:#02a09e;}.a{opacity:0.185;}</style></defs><g transform="translate(163.86 -516.267)"><path class="a" d="M-132.182,564.622a16.7,16.7,0,0,1-16.678-16.677,16.7,16.7,0,0,1,16.678-16.678h0v-15h0a31.714,31.714,0,0,0-31.678,31.678,31.713,31.713,0,0,0,31.678,31.677h0v-15Z"/><path class="b" d="M-100.5,547.945a31.714,31.714,0,0,0-31.678-31.678v15A16.7,16.7,0,0,1-115.5,547.945a16.7,16.7,0,0,1-16.678,16.677v15A31.714,31.714,0,0,0-100.5,547.945Z"/></g></svg>