<svg xmlns="http://www.w3.org/2000/svg" width="63.356" height="63.355" viewBox="0 0 63.356 63.355"><defs><style>.a{fill:none;}.b,.c{fill:#02a09e;}.c{opacity:0.185;}</style></defs><g transform="translate(-175 -4542)"><g transform="translate(343.508 4147.29)"><path class="a" d="M-147.026,416.347l-1.379-1.917a16.6,16.6,0,0,0-5.1,11.958,16.7,16.7,0,0,0,16.677,16.677,16.7,16.7,0,0,0,16.679-16.677A16.7,16.7,0,0,0-136.83,409.71v2.743Z"/><path class="b" d="M-136.83,394.71v15a16.7,16.7,0,0,1,16.678,16.678,16.7,16.7,0,0,1-16.679,16.677,16.7,16.7,0,0,1-16.677-16.677,16.6,16.6,0,0,1,5.1-11.958l-8.816-12.259a31.616,31.616,0,0,0-11.287,24.217,31.713,31.713,0,0,0,31.677,31.677,31.714,31.714,0,0,0,31.679-31.677A31.714,31.714,0,0,0-136.83,394.71Z"/><path class="c" d="M-136.831,394.71a31.533,31.533,0,0,0-20.39,7.461l8.816,12.259c.281-.272.556-.549.855-.8a16.593,16.593,0,0,1,10.719-3.92h0v-15Z"/></g></g></svg>