<svg xmlns="http://www.w3.org/2000/svg" width="303" height="158" viewBox="0 0 303 158"><defs><style>.a{fill:#3176bb;}.b,.c,.d,.e,.h{fill:#fff;}.b{opacity:0.144;}.c,.f,.h{font-size:13px;}.c{font-family:OpenSans, Open Sans;}.d{font-size:15px;}.d,.f,.h{font-family:OpenSans-Bold, Open Sans;font-weight:700;}.f{fill:#001a3a;}.g,.j{fill:none;}.g{stroke:#fff;}.i{stroke:none;}</style></defs><g transform="translate(-1579 -503)"><rect class="a" width="303" height="158" rx="10" transform="translate(1579 503)"/><rect class="b" width="128" height="26" rx="13" transform="translate(1735 516)"/><text class="c" transform="translate(1772.28 534.049)"><tspan x="0" y="0">LGBTQIA+</tspan></text><text class="d" transform="translate(1608.28 532.049)"><tspan x="0" y="16">My ideal </tspan><tspan x="0" y="36">therapist </tspan><tspan x="0" y="56">identifies as…</tspan></text><rect class="b" width="128" height="26" rx="13" transform="translate(1735 547)"/><rect class="b" width="128" height="26" rx="13" transform="translate(1735 577)"/><text class="c" transform="translate(1776.28 565.049)"><tspan x="0" y="0">Straight</tspan></text><text class="c" transform="translate(1755.28 594.049)"><tspan x="0" y="0">Doesn’t Matter</tspan></text><g transform="translate(-1 -1)"><rect class="e" width="103" height="26" rx="13" transform="translate(1620 621)"/><text class="f" transform="translate(1654.462 639.049)"><tspan x="0" y="0">Next</tspan></text><g class="g" transform="translate(1736 621)"><rect class="i" width="103" height="26" rx="13"/><rect class="j" x="0.5" y="0.5" width="102" height="25" rx="12.5"/></g><text class="h" transform="translate(1773.462 639.049)"><tspan x="0" y="0">Skip</tspan></text></g></g></svg>