<svg xmlns="http://www.w3.org/2000/svg" xmlns:xlink="http://www.w3.org/1999/xlink" width="350" height="190" viewBox="0 0 350 190"><defs><style>.a,.c,.d,.e,.f,.g,.h{fill:#fff;}.a{stroke:#707070;}.b{fill:#3176bb;}.c{font-size:15px;font-family:Bilo-Medium, Bilo;font-weight:500;}.d{opacity:0.2;}.e,.f,.g{font-size:11px;font-family:SofiaProRegular, Sofia Pro;}.f{letter-spacing:-0.03em;}.g{letter-spacing:-0.01em;}.i{clip-path:url(#c);}.j{filter:url(#a);}</style><filter id="a" x="0" y="0" width="350" height="190" filterUnits="userSpaceOnUse"><feOffset input="SourceAlpha"/><feGaussianBlur stdDeviation="10" result="b"/><feFlood flood-opacity="0.149"/><feComposite operator="in" in2="b"/><feComposite in="SourceGraphic"/></filter><clipPath id="c"><rect class="a" width="190" height="13" transform="translate(1628 440)"/></clipPath></defs><g transform="translate(-1514 -293)"><g class="j" transform="matrix(1, 0, 0, 1, 1514, 293)"><rect class="b" width="290" height="130" rx="5" transform="translate(30 30)"/></g><text class="c" transform="translate(1559.699 351.39)"><tspan x="0" y="15">My Ideal </tspan><tspan x="0" y="32">Therapist </tspan><tspan x="0" y="49">Identifies </tspan><tspan x="0" y="66">As</tspan></text><rect class="d" width="179" height="22" rx="11" transform="translate(1635 335)"/><text class="e" transform="translate(1668.579 348.916)"><tspan x="0" y="0">Asian or Asian American</tspan></text><rect class="d" width="178.615" height="22" rx="11" transform="translate(1635.38 362.088)"/><text class="f" transform="translate(1644.879 375.833)"><tspan x="0" y="0">American Indian or Alaskan Native</tspan></text><rect class="d" width="179" height="22" rx="11" transform="translate(1635 390)"/><text class="e" transform="translate(1662.579 404.916)"><tspan x="0" y="0">Black or African American</tspan></text><rect class="d" width="178.615" height="22" rx="11" transform="translate(1635.38 418.088)"/><text class="g" transform="translate(1682.879 432.833)"><tspan x="0" y="0" xml:space="preserve">Hispanic or Latinx  </tspan></text><rect class="d" width="111" height="3.036" rx="1.518" transform="translate(1827.536 333.5) rotate(90)"/><rect class="h" width="48" height="3.036" rx="1.518" transform="translate(1827.536 333.5) rotate(90)"/><g class="i"><rect class="d" width="178.615" height="22" rx="11" transform="translate(1635.38 445.088)"/></g></g></svg>