<svg xmlns="http://www.w3.org/2000/svg" width="70" height="70" viewBox="0 0 70 70">
  <g id="Group_255" data-name="Group 255" transform="translate(-4956 -4075)">
    <g id="Group_235" data-name="Group 235" transform="translate(3335 67)">
      <g id="Group_151" data-name="Group 151" transform="translate(1273 633)">
        <circle id="Ellipse_1" data-name="Ellipse 1" cx="35" cy="35" r="35" transform="translate(348 3375)" fill="#fff"/>
      </g>
    </g>
    <g id="Group_254" data-name="Group 254" transform="translate(5113.153 3850.746)">
      <g id="Group_253" data-name="Group 253" transform="translate(-151.153 231.254)">
        <g id="Group_236" data-name="Group 236" transform="translate(0 11.334)">
          <path id="Path_430" data-name="Path 430" d="M-93.578,292.317h-57.067a.509.509,0,0,1-.509-.509V248.6a.509.509,0,0,1,.509-.509h19.281a.508.508,0,0,1,.5.408,8.958,8.958,0,0,0,8.755,7.133,8.956,8.956,0,0,0,8.753-7.133.51.51,0,0,1,.5-.408h19.28a.509.509,0,0,1,.509.509v43.2A.51.51,0,0,1-93.578,292.317Zm-56.557-1.02h56.047V249.113h-18.364a9.981,9.981,0,0,1-9.659,7.54,9.981,9.981,0,0,1-9.66-7.54h-18.364Z" transform="translate(151.153 -248.094)" fill="#3176bb" stroke="#3176bb" stroke-width="0.5"/>
        </g>
        <g id="Group_237" data-name="Group 237" transform="translate(0 22.895)">
          <path id="Path_431" data-name="Path 431" d="M-93.578,266.292h-57.067a.509.509,0,0,1-.509-.509.51.51,0,0,1,.509-.51h57.067a.51.51,0,0,1,.509.51A.51.51,0,0,1-93.578,266.292Z" transform="translate(151.153 -265.272)" fill="#3176bb" stroke="#3176bb" stroke-width="0.5"/>
        </g>
        <g id="Group_238" data-name="Group 238" transform="translate(45.041 41.829)">
          <path id="Path_432" data-name="Path 432" d="M-77.838,294.164h-5.88a.509.509,0,0,1-.509-.508v-5.684a.51.51,0,0,1,.509-.509h5.88a.51.51,0,0,1,.509.509v5.684A.509.509,0,0,1-77.838,294.164Zm-5.371-1.018h4.861v-4.665h-4.861Z" transform="translate(84.228 -287.462)" fill="#3176bb" stroke="#3176bb" stroke-width="0.5"/>
        </g>
        <g id="Group_239" data-name="Group 239" transform="translate(45.041 30.001)">
          <path id="Path_433" data-name="Path 433" d="M-77.838,279.562h-5.88a.509.509,0,0,1-.509-.509V273.37a.51.51,0,0,1,.509-.51h5.88a.51.51,0,0,1,.509.51v5.683A.509.509,0,0,1-77.838,279.562Zm-5.371-1.018h4.861V273.88h-4.861Z" transform="translate(84.228 -272.86)" fill="#3176bb" stroke="#3176bb" stroke-width="0.5"/>
        </g>
        <g id="Group_240" data-name="Group 240" transform="translate(32.074 30.001)">
          <path id="Path_434" data-name="Path 434" d="M-97.1,279.562h-5.881a.509.509,0,0,1-.509-.509V273.37a.51.51,0,0,1,.509-.51H-97.1a.51.51,0,0,1,.509.51v5.683A.509.509,0,0,1-97.1,279.562Zm-5.371-1.018h4.862V273.88h-4.862Z" transform="translate(103.495 -272.86)" fill="#3176bb" stroke="#3176bb" stroke-width="0.5"/>
        </g>
        <g id="Group_241" data-name="Group 241" transform="translate(19.111 30.001)">
          <path id="Path_435" data-name="Path 435" d="M-116.367,279.562h-5.881a.51.51,0,0,1-.509-.509V273.37a.51.51,0,0,1,.509-.51h5.881a.51.51,0,0,1,.509.51v5.683A.509.509,0,0,1-116.367,279.562Zm-5.371-1.018h4.861V273.88h-4.861Z" transform="translate(122.757 -272.86)" fill="#3176bb" stroke="#3176bb" stroke-width="0.5"/>
        </g>
        <g id="Group_242" data-name="Group 242" transform="translate(32.074 41.829)">
          <path id="Path_436" data-name="Path 436" d="M-97.1,294.164h-5.881a.509.509,0,0,1-.509-.508v-5.684a.51.51,0,0,1,.509-.509H-97.1a.51.51,0,0,1,.509.509v5.684A.509.509,0,0,1-97.1,294.164Zm-5.371-1.018h4.862v-4.665h-4.862Z" transform="translate(103.495 -287.462)" fill="#3176bb" stroke="#3176bb" stroke-width="0.5"/>
        </g>
        <g id="Group_243" data-name="Group 243" transform="translate(19.111 41.829)">
          <path id="Path_437" data-name="Path 437" d="M-116.367,294.164h-5.881a.509.509,0,0,1-.509-.508v-5.684a.51.51,0,0,1,.509-.509h5.881a.509.509,0,0,1,.509.509v5.684A.509.509,0,0,1-116.367,294.164Zm-5.371-1.018h4.861v-4.665h-4.861Z" transform="translate(122.757 -287.462)" fill="#3176bb" stroke="#3176bb" stroke-width="0.5"/>
        </g>
        <g id="Group_244" data-name="Group 244" transform="translate(6.147 41.829)">
          <path id="Path_438" data-name="Path 438" d="M-135.632,294.164h-5.878a.509.509,0,0,1-.509-.508v-5.684a.51.51,0,0,1,.509-.509h5.878a.51.51,0,0,1,.509.509v5.684A.509.509,0,0,1-135.632,294.164ZM-141,293.146h4.859v-4.665H-141Z" transform="translate(142.02 -287.462)" fill="#3176bb" stroke="#3176bb" stroke-width="0.5"/>
        </g>
        <g id="Group_248" data-name="Group 248" transform="translate(48.991 5.249)">
          <path id="Path_442" data-name="Path 442" d="M-77.85,249.449a.51.51,0,0,1-.509-.511v-9.374a.51.51,0,0,1,.509-.51.51.51,0,0,1,.509.51v9.374A.51.51,0,0,1-77.85,249.449Z" transform="translate(78.359 -239.054)" fill="#3176bb" stroke="#3176bb" stroke-width="0.5"/>
        </g>
        <g id="Group_249" data-name="Group 249" transform="translate(8.075 5.249)">
          <path id="Path_443" data-name="Path 443" d="M-138.646,249.449a.51.51,0,0,1-.509-.511v-9.374a.51.51,0,0,1,.509-.51.51.51,0,0,1,.509.51v9.374A.51.51,0,0,1-138.646,249.449Z" transform="translate(139.155 -239.054)" fill="#3176bb" stroke="#3176bb" stroke-width="0.5"/>
        </g>
        <g id="Group_250" data-name="Group 250" transform="translate(19.089)">
          <path id="Path_444" data-name="Path 444" d="M-112.835,251.147a9.961,9.961,0,0,1-9.954-9.946,9.961,9.961,0,0,1,9.954-9.946,9.961,9.961,0,0,1,9.952,9.946A9.961,9.961,0,0,1-112.835,251.147Zm0-18.874a8.941,8.941,0,0,0-8.935,8.927,8.941,8.941,0,0,0,8.935,8.928A8.941,8.941,0,0,0-103.9,241.2,8.941,8.941,0,0,0-112.835,232.273Z" transform="translate(122.789 -231.254)" fill="#3176bb" stroke="#3176bb" stroke-width="0.5"/>
        </g>
        <g id="Group_251" data-name="Group 251" transform="translate(28.533 3.826)">
          <path id="Path_445" data-name="Path 445" d="M-108.247,249.176a.51.51,0,0,1-.51-.509V237.448a.51.51,0,0,1,.51-.509.509.509,0,0,1,.508.509v11.218A.509.509,0,0,1-108.247,249.176Z" transform="translate(108.757 -236.939)" fill="#3176bb" stroke="#3176bb" stroke-width="0.5"/>
        </g>
        <g id="Group_252" data-name="Group 252" transform="translate(22.919 9.438)">
          <path id="Path_446" data-name="Path 446" d="M-105.362,246.3h-11.226a.51.51,0,0,1-.51-.51.51.51,0,0,1,.51-.509h11.226a.509.509,0,0,1,.509.509A.51.51,0,0,1-105.362,246.3Z" transform="translate(117.098 -245.277)" fill="#3176bb" stroke="#3176bb" stroke-width="0.5"/>
        </g>
      </g>
    </g>
  </g>
</svg>
