<svg xmlns="http://www.w3.org/2000/svg" width="596.025" height="455.273" viewBox="0 0 596.025 455.273"><defs><style>.a{fill:#dffdfb;}.b{fill:#009391;}.c{fill:#00716f;}.d{fill:#00b5b3;}.e,.o{fill:#ffc790;}.f{fill:#2c3a64;}.g{fill:#215f9d;}.h{fill:#195189;}.i{fill:#3176bb;}.j{fill:#ffa30f;}.k{fill:#ed985f;opacity:0.499;}.l{fill:#233862;}.m{fill:#fff;}.n{fill:#ea8700;}.o{stroke:rgba(0,0,0,0);stroke-miterlimit:10;}.p{fill:#78d8d1;}.q{fill:#9cf4ed;}.r{fill:#00cecc;}.s{fill:#001a3a;}.t{fill:none;stroke:#001a3a;stroke-width:2px;}</style></defs><g transform="translate(-171.671 -305.227)"><path class="a" d="M6870,1425.6c-40.124,20.08-20.8,22.195-91.9,47.469s9.792,137.848,91.9,55.02S6910.128,1405.523,6870,1425.6Z" transform="translate(-6509.64 -1115.238)"/><g transform="translate(171.671 338.153)"><path class="a" d="M187.824,644.237s-45.4-105.612,4.286-219.953C236.192,322.833,305.745,403.5,345.155,300.273c53.745-140.778,321.958-85.8,287.99,130.79-16.438,104.814,74.6,108.624,40.737,213.4Z" transform="translate(-107.266 -222.676)"/><path class="b" d="M2168.344,912.353s-11.681-15.485.724-24.084c0,0,8.961-4.689,15.976-3.825,0,0-11.021,16.107-7.9,17.973s10.987-18.834,10.987-18.834,19.77-.679,25.9,2.755c0,0-17.658,12.7-14.171,13.738s22.475-11.321,22.475-11.321,18.095,4.255,16.423,15.351-8.189,14.148-10.94,13.678-18.568-7.666-19.063-5.419,8.8,10.274,15.6,11.047c0,0-13.782,13.415-22.1,8.776s-8.638-11.19-13.828-13.964-9.75-3.052-7.7-.426,11.567,5.648,14.285,11.243,5.231,9.41-3.552,7.523-22.79-9.275-22.959-16.744Z" transform="translate(-1699.743 -687.313)"/><g transform="translate(445.067 215.624)"><path class="c" d="M2208.691,961.134s-49.557-5.016-61.414,8.506a36,36,0,0,1-10.759,13.265l-1.362,3.1s9.175-8.539,12.29-8.9C2147.447,977.109,2143.728,959.207,2208.691,961.134Z" transform="translate(-2123.743 -960.224)"/><path class="c" d="M2102.828,1046.65s-11.155,7.22-12.775,21.264l1.925.294s4.315-14.356,10.826-19.669S2102.828,1046.65,2102.828,1046.65Z" transform="translate(-2090.053 -1023.969)"/></g><path class="d" d="M1906.317,653.159s-25.9-14.5-13.813-34.188c0,0,9.669-12.086,20.03-15.194,0,0-5.526,29.353,0,30.044s3.8-33.152,3.8-33.152,27.281-13.122,37.986-12.087c0,0-16.921,28.662-11.4,27.972s24.518-29.7,24.518-29.7,27.972-5.18,32.461,11.4-2.763,24.864-6.907,25.9-30.734.691-30.043,4.144,18.648,8.978,28.662,5.87c0,0-11.051,27.281-25.554,25.9s-18.993-10.36-27.972-11.05-15.54,1.726-11.05,4.144,19.683.792,26.935,6.957,13.123,9.964-.345,12.726-37.641,1.036-42.475-9.324Z" transform="translate(-1495.025 -465.14)"/><g transform="translate(397.613 138.292)"><path class="b" d="M2017,654.623s-72.519,23.482-80.807,49.727c0,0,.345,11.741-6.906,25.209v5.18s7.6-17.612,11.741-20.029C1941.025,714.71,1924.795,691.918,2017,654.623Z" transform="translate(-1922.512 -654.623)"/><path class="b" d="M1909.293,941.242s-11.184,16.983-4.808,37.656l2.877-.773s-2.793-22.77,3.058-34.222S1909.293,941.242,1909.293,941.242Z" transform="translate(-1902.521 -866.306)"/></g><path class="d" d="M1125.1,637.284s30.14-12.755,19.281-35.79c0,0-9.131-14.417-20.108-19.078,0,0,2.5,32.836-3.641,32.924s-.145-36.79-.145-36.79-28.306-17.687-40.163-17.849c0,0,15.069,33.461,9.1,32.034s-23.27-35.517-23.27-35.517-30.025-9.066-36.954,8.554.014,27.582,4.43,29.219,33.6,4.482,32.421,8.182-21.523,7.579-32.121,2.96c0,0,8.8,31.235,24.865,31.479s22.069-9.051,31.992-8.72,16.82,3.775,11.608,5.88-21.667-1.517-30.361,4.36-15.588,9.329-1.164,13.988,41.124,5.7,47.677-5.07Z" transform="translate(-850.383 -441.831)"/><g transform="translate(192.187 131.165)"><path class="b" d="M1090.708,626.458s76.625,34.522,82.526,64.287c0,0-1.8,12.825,4.513,28.463l-.627,5.677s-6.191-20.221-10.439-23.372C1166.681,701.512,1187.229,678.5,1090.708,626.458Z" transform="translate(-1090.708 -626.458)"/><path class="b" d="M1424.5,981.384s10.2,19.966.705,41.848l-3.059-1.2s5.82-24.614.8-37.873S1424.5,981.384,1424.5,981.384Z" transform="translate(-1337.457 -888.634)"/></g><path class="b" d="M975.272,1022.576a33.67,33.67,0,0,1-5.92-14.839s14.738-10.582,6.05-21.71c0,0-6.7-6.679-13.2-7.858,0,0,5.365,17.45,2.056,18.248s-4.576-19.875-4.576-19.875-17.468-6.1-23.9-4.741c0,0,12.239,16.25,8.836,16.209s-16.924-16.36-16.924-16.36-17.344-1.232-18.936,9.143,3.38,14.912,5.967,15.258,18.714-1.684,18.531.461-10.712,6.729-17.007,5.527c0,0,8.579,15.813,17.293,13.982s10.827-7.592,16.233-8.626,9.556-.015,7,1.761-11.9,1.828-15.884,6.069-7.288,6.95,1.081,7.706,22.933-1.947,25.16-8.57q.146-.432.279-.828a3.348,3.348,0,0,1-.279.828c1.608.71,4.344,4.653,6.278,7.7.285.523.725,1.241,1.367,2.212h0c.266.441.479.8.627,1.056,3.7,6.89,3.573,19.52,3.573,19.52l1.8.273C983.227,1032.125,975.272,1022.576,975.272,1022.576Z" transform="translate(-762.38 -753.1)"/><path class="e" d="M1156.762,928.208c-2.053,1.873-4.13,6.556-10.456,6.467a95.253,95.253,0,0,0-11.294.71c-.86.145-1.362.2-1.362.2l-.225-6.857a1.3,1.3,0,0,0,.3-.024c1.529-.22,9.289-1.362,12.361-3.312,3.448-2.212,11.511-.162,11.511-.162S1158.83,926.371,1156.762,928.208Z" transform="translate(-932.422 -736.736)"/><g transform="translate(49.422 77.654)"><path class="f" d="M721.5,533.6c-.177-.844-2.459-9.893-18.555-8.349,0,0,8.012-.177,9.876,2.662,0,0-5.984-3.044-10.152-1.3s-5.622,8.725-5.283,10.917,3.944,8.94,6.815,9.19a9.733,9.733,0,0,0,3.358-.42,30.643,30.643,0,0,0-1.594,3.611c-4.487,12.215,3.965,22.532,9.17,20.618,3.338-1.228,5.179,3.8,5.179,3.8l29.752-27.988S733.966,525.628,721.5,533.6Z" transform="translate(-665.87 -525.078)"/><path class="g" d="M774.315,1237.718l-6.328,2.255s-30.029-31.153-33.413-63.249c-.6-5.73,2.139-16.609,3.447-21.737,0,0-.269-1.469-.739-4.064-.217-1.211-.485-2.67-.79-4.341-.894-4.9-2.124-11.6-3.529-19.237-3.234-17.566-7.424-40.022-10.679-56.53l1.7-.524,18.45-5.7,3.813-11.588,13.738-3.461s3.069,5.745,5.812,32.883c.506,3.56.966,7.485,1.312,11.742a222.424,222.424,0,0,1-1.307,47.537q-.945,7.075-2.413,14.59a62.311,62.311,0,0,0-.527,14.407C764.251,1196.941,774.315,1237.718,774.315,1237.718Z" transform="translate(-683.943 -905.092)"/><path class="h" d="M767.113,1094.17l-29.832,56.752c-.217-1.211-.485-2.67-.79-4.341-.894-4.9-2.124-11.6-3.529-19.237-3.234-17.566-7.424-40.022-10.679-56.53l1.7-.524,18.45-5.7,3.813-11.588,13.738-3.461s3.069,5.745,5.812,32.883C766.307,1085.988,766.767,1089.913,767.113,1094.17Z" transform="translate(-683.943 -905.092)"/><path class="i" d="M673.951,1039.463l-.785-5.667c-13.148,2.941-48.276-8.217-48.276-8.217s-12.737,9.428-11.065,32.028c.816,11.03,2.307,57.9,3.864,71.773.563,5.027,1.056,8.6,1.257,10.034a.023.023,0,0,1,0,.013,1.749,1.749,0,0,1-.382,1.228,61.2,61.2,0,0,0-5.748,10.179c-15.284,34.3,2.354,76.535,2.354,76.535l4.577-1.553s10.037-47.005,18.193-67.771a37.944,37.944,0,0,1,3.928-7.944c3.546-4.82,6.837-12.694,9.824-22.06,5.645-17.707,10.189-40.742,13.213-58.522C665.327,1069.536,673.951,1039.463,673.951,1039.463Z" transform="translate(-600.115 -887.726)"/><path class="e" d="M870.611,821.2a7.737,7.737,0,0,0,.713.651c9.888,8.818,24.667,13.759,31.792,15.477,4.687,1.148,15.02-.389,23.6-2.078,5.717-1.079,10.7-2.272,12.749-2.74.654-.146,1.02-.256,1.02-.256l-.9-5.538s-5.143-.389-11.534-1.08c-8.9-1-20.183-2.538-23.074-4.172-6.7-3.812-18.468-19.8-27.905-29.852-.494-.548-.985-1.075-1.47-1.591q-.533-.567-1.063-1.111a1.263,1.263,0,0,0-.279-.252c-.434-.4-.8-.77-1.159-1.1-.014-.041-.076-.07-.136-.1a41.508,41.508,0,0,0-4.619-3.569c-1.649-.9-3.008-1.073-3.963-.306a14.615,14.615,0,0,0-2.443,3.332c-.257.456-.51.957-.751,1.5a3.364,3.364,0,0,0-.4.936,18.4,18.4,0,0,0-1.279,7.484,22.778,22.778,0,0,0,1.553,7.407C862.721,808.693,865.425,816.5,870.611,821.2Z" transform="translate(-783.371 -712.029)"/><path class="e" d="M761.859,725.608a43.255,43.255,0,0,1-14.018,4.787c-21.49,3.766-29.164-12.126-31.888-22.973a20.558,20.558,0,0,1,7.3-1.755c1.549-.12,3.175-.186,4.521-.211,2.449-1.538,6.234-7.986,7.353-18.114l1,.259,16.7,4.417s-.921,4.633-1.442,9.019c-.4,3.433-.556,6.72.168,7.543,1.3.28,2.088.461,2.088.461a.035.035,0,0,0,.008.014A88.679,88.679,0,0,1,761.859,725.608Z" transform="translate(-679.357 -642.65)"/><path class="j" d="M717.483,785.484a7.882,7.882,0,0,1-.32,1.189c-6.128,15.486-1.354,54.731-1.354,54.731-7.249,5.244-36.324,6.684-54.686,4.152-6.677-.918-11.378-2.321-11.7-4.172-3.285-7.087,4.754-20.322,9.4-27.049a16.614,16.614,0,0,0,1.5-2.653,16.224,16.224,0,0,0,1.45-7.375c-.14-3.477-.45-6.852-.829-10.014-.711-5.964-1.661-11.17-2.158-14.855v0c.966-.918,1.907-1.771,2.782-2.582a27.468,27.468,0,0,0,3.329-3.53,5.39,5.39,0,0,0,1.295-3.673,17.684,17.684,0,0,0-.512-2.856c-.115-.449-.245-.895-.385-1.34a38.5,38.5,0,0,0-4.236-8.718c4.971-2.781,14.548-2.867,14.548-2.867s.065.5.186,1.319c.466,3.287,1.776,11.714,3.118,13.155,1.677,1.8,28.155,7.007,29.077,4.124.907-2.831-4.562-14.756-4.767-15.208a.03.03,0,0,1-.006-.015c8.48,1.929,12.163,4.11,12.331,4.237a.016.016,0,0,1-.009,0C710.928,765.335,719.9,774.974,717.483,785.484Z" transform="translate(-630.594 -690.852)"/><path class="k" d="M803.349,699.258s-.961,4.809-1.5,9.372c-9.878-1.105-14.209-9.419-15.853-13.961Z" transform="translate(-730.109 -647.958)"/><path class="e" d="M801.075,635.1s-23.475-1.7-22.03-14.4-.611-21.467,14.439-20.916,17.406,5.647,18.109,9.986S807.219,635.211,801.075,635.1Z" transform="translate(-725.025 -579.186)"/><path class="f" d="M792.954,595.849c-3.183-4.134-6.017-3.534-7.683-2.52-12.105-7.239-21.4,1.1-21.4,1.1-2.617,8.972-10.771,13.533-10.771,13.533s4.008,2.666,14.109,1.322a17.675,17.675,0,0,0,8.528-4.092,52.376,52.376,0,0,1-10.561,9.175c12.308-3.7,18.67-17.52,19.313-18.983,1.3,1.242,3.843,3.915,4.429,6.368.8,3.335.555,10.035,2.812,10C791.727,611.75,797.727,602.048,792.954,595.849Z" transform="translate(-706.27 -572.389)"/><path class="l" d="M638.565,1724.426H606.692s-.764-4.648.9-8.175c1.6-3.384,4.094-4.922,3.5-9.017a11.744,11.744,0,0,0,9.934,3.637c.565.876,3.645,5.563,5.53,6.86C628.636,1719.163,637.924,1718.653,638.565,1724.426Z" transform="translate(-600.063 -1381.633)"/><path class="l" d="M898.362,1728.024H866.489s-1.191-4.865.9-8.175c1.852-2.929,1.142-4.6-.229-7.021a12.873,12.873,0,0,0,5.368.967,11.558,11.558,0,0,0,4.74-1.6c1.372,1.5,7.246,7.867,9.081,9.129C888.433,1722.761,897.721,1722.251,898.362,1728.024Z" transform="translate(-788.186 -1385.231)"/><path class="m" d="M838.87,699.386s.329,1.681,5.085,1.684c0,0,3.993,0,4-1.823A14.618,14.618,0,0,0,838.87,699.386Z" transform="translate(-768.419 -650.819)"/><path class="n" d="M665.473,921.6c-1.261,7.643-7.036,22.976-4.35,30.3-6.677-.918-11.378-2.321-11.7-4.172-3.285-7.087,4.754-20.322,9.4-27.049a16.62,16.62,0,0,0,1.5-2.654,16.224,16.224,0,0,0,1.45-7.375c-.14-3.477-.45-6.852-.829-10.014C660.936,900.635,666.814,913.478,665.473,921.6Z" transform="translate(-630.594 -797.195)"/><path class="j" d="M873.52,783.713c.222,6.793,5.355,25.438,6.573,22.977,1.391-2.808,6.781-13.478,9.313-13.871-.133-.492-10.493-11.454-10.947-11.326A21.318,21.318,0,0,0,873.52,783.713Z" transform="translate(-793.525 -710.868)"/><g transform="translate(0 63.061)"><path class="o" d="M30.56,112.2c-1.705-1.486-3.027-6.166-3.184-7.577a9.573,9.573,0,0,0-1.541-3.373l5.287-3.369s.126.362.335.921c.985.51,3.989,2.157,4.46,3.52.57,1.631,2.919,4.93,2.681,5.309-.159.249-1.574-.479-2.938-1.545.684,1.239,1.243,2.938,1.692,3.7,1.46,2.476-.112,5.979-.655,6.426a.244.244,0,0,1-.156.045C35.632,116.253,32.151,113.579,30.56,112.2ZM22.376,97.086c-.629-.771-.971-1.232-.971-1.232-1.676-2.066-3.624-4.6-5.752-7.353l-.038-.03c-3.57-4.8-7.491-10.257-10.495-15.194a46.986,46.986,0,0,1-4.5-9.286,4.669,4.669,0,0,1-.19-.767c-1.552-6.456,1.292-19.279,5.823-31.792C6.876,29.7,7.532,28,8.161,26.338A122.923,122.923,0,0,1,16,9.773a49.279,49.279,0,0,1,4.714-7.067A20.868,20.868,0,0,1,22.286.916C22.58.6,22.871.29,23.158,0,26.337.257,33,1.463,37.946,6.929c-.086.287-.175.573-.265.867-2,6.173-2.1,13.768-5.294,21.192-1.743,4.077-3.526,8.124-5.085,11.929-.987,2.275-1.885,4.445-2.693,6.449-1.521,3.835-5.644,7-6.09,9.241-.306,1.452.126,4.185.949,7.539a197.532,197.532,0,0,0,6.556,20.422c1.016,2.792,2.018,5.391,2.852,7.543,1.337,3.485,2.245,5.764,2.245,5.764l-5.287,3.369S24.5,99.644,22.376,97.086Z" transform="translate(0 8.255)"/><path class="j" d="M650.758,788.535c-5.282-7.63-20.419-10.911-20.419-10.911,8.542-25.936,30.967-23.531,30.967-23.531S653.148,781.075,650.758,788.535Z" transform="translate(-617.324 -754.034)"/></g></g><path class="p" d="M1060.192,761.078l144.388-86.441a25.177,25.177,0,0,1,25.864,0l144.388,86.441V901.966L1060.192,886.19Z" transform="translate(-875.727 -528.61)"/><rect class="m" width="260.473" height="225.1" transform="translate(211.548 170.046)"/><g transform="translate(218.677 176.368)"><ellipse class="q" cx="2.678" cy="2.678" rx="2.678" ry="2.678" transform="translate(0 2.05) rotate(-22.5)"/><path class="q" d="M2143.35,811.014a2.678,2.678,0,1,1,2.678,2.678A2.678,2.678,0,0,1,2143.35,811.014Z" transform="translate(-1903.473 -807.515)"/><g transform="translate(3.499 3.208)"><rect class="q" width="239.056" height="0.582"/></g><g transform="translate(3.208 2.435)"><rect class="q" width="0.582" height="239.056"/></g><g transform="translate(242.357 2.435)"><rect class="q" width="0.582" height="239.056"/></g></g><g transform="translate(184.464 232.08)"><path class="q" d="M1374.831,1025.257v188.366H1060.191V1025.257l157.32,94.185Z" transform="translate(-1060.191 -1025.257)"/><path class="p" d="M1060.192,1452.137l144.113-103.32a22.665,22.665,0,0,1,26.413,0l144.114,103.32Z" transform="translate(-1060.192 -1263.771)"/></g><path class="q" d="M1583.957,888.544h-94.97a2.515,2.515,0,0,1-2.508-2.507h0a2.515,2.515,0,0,1,2.508-2.507h94.97a2.515,2.515,0,0,1,2.508,2.507h0A2.515,2.515,0,0,1,1583.957,888.544Z" transform="translate(-1194.144 -687.313)"/><path class="q" d="M1536.211,928.3H1392.317a2.514,2.514,0,0,1-2.507-2.507h0a2.514,2.514,0,0,1,2.507-2.507h143.894a2.514,2.514,0,0,1,2.507,2.507h0A2.514,2.514,0,0,1,1536.211,928.3Z" transform="translate(-1121.937 -717.009)"/><g transform="translate(270.787 224.485)"><path class="q" d="M1581.943,1055.7H1477.831a1.819,1.819,0,0,1-1.814-1.814h0a1.819,1.819,0,0,1,1.814-1.814h104.112a1.819,1.819,0,0,1,1.814,1.814h0A1.819,1.819,0,0,1,1581.943,1055.7Z" transform="translate(-1457.116 -1052.07)"/><g transform="translate(0 9.475)"><path class="q" d="M1432.494,1093.14h-29.355a1.819,1.819,0,0,1-1.814-1.814h0a1.819,1.819,0,0,1,1.814-1.814h29.355a1.819,1.819,0,0,1,1.814,1.814h0A1.82,1.82,0,0,1,1432.494,1093.14Z" transform="translate(-1401.325 -1089.512)"/><path class="q" d="M1589.414,1093.14h-35.465a1.82,1.82,0,0,1-1.814-1.814h0a1.819,1.819,0,0,1,1.814-1.814h35.465a1.82,1.82,0,0,1,1.814,1.814h0A1.82,1.82,0,0,1,1589.414,1093.14Z" transform="translate(-1513.973 -1089.512)"/><path class="q" d="M1782.978,1093.14h-61.31a1.82,1.82,0,0,1-1.814-1.814h0a1.819,1.819,0,0,1,1.814-1.814h61.31a1.819,1.819,0,0,1,1.814,1.814h0A1.819,1.819,0,0,1,1782.978,1093.14Z" transform="translate(-1639.251 -1089.512)"/></g><g transform="translate(16.835 20.49)"><path class="q" d="M1526.695,1136.673h-57.026a1.82,1.82,0,0,1-1.814-1.814h0a1.82,1.82,0,0,1,1.814-1.814h57.026a1.82,1.82,0,0,1,1.814,1.814h0A1.82,1.82,0,0,1,1526.695,1136.673Z" transform="translate(-1467.855 -1133.045)"/><path class="q" d="M1764.844,1136.673h-44.915a1.819,1.819,0,0,1-1.814-1.814h0a1.82,1.82,0,0,1,1.814-1.814h44.915a1.82,1.82,0,0,1,1.814,1.814h0A1.82,1.82,0,0,1,1764.844,1136.673Z" transform="translate(-1654.788 -1133.045)"/></g></g><path class="q" d="M1512.118,414.792l13.564,29.926L1475.7,467.374l-13.564-29.926,31.776,3.635Z" transform="translate(-1175.957 -337.188)"/><path class="p" d="M1462.131,437.449l49.987-22.657-14.945,25.189a5.551,5.551,0,0,1-5.738,2.635Z" transform="translate(-1175.957 -337.188)"/><path class="d" d="M403.988,1187l7.135,19.134-31.961,11.918-7.135-19.134,19.548,3.608Z" transform="translate(-361.7 -913.993)"/><path class="b" d="M372.026,1198.92,403.987,1187l-10.341,14.982a3.45,3.45,0,0,1-3.67,1.389Z" transform="translate(-361.7 -913.993)"/><path class="d" d="M2446.465,687.508l-10.027,37.572-62.759-16.748,10.027-37.572,26.366,27.161Z" transform="translate(-1856.841 -528.384)"/><path class="r" d="M2413.3,670.76l62.759,16.748-32.575,11.853a6.571,6.571,0,0,1-7.23-1.892Z" transform="translate(-1886.438 -528.384)"/><g transform="translate(0 327.724)"><path class="s" d="M359.734,1433.116h0c-1.516,0-2.988-.026-4.374-.064a.291.291,0,1,1,.016-.582c1.381.038,2.848.059,4.36.063a.291.291,0,0,1,0,.583Zm4.373-.033a.291.291,0,0,1,0-.583c1.4-.023,2.868-.061,4.368-.109a.282.282,0,0,1,.3.281.291.291,0,0,1-.282.3c-1.5.049-2.976.086-4.378.11Zm-13.1-.219h-.018c-1.54-.093-3.009-.213-4.366-.358a.291.291,0,0,1,.062-.579c1.348.144,2.808.264,4.339.356a.291.291,0,0,1-.017.582Zm21.848-.066a.291.291,0,0,1-.013-.582c1.4-.065,2.87-.141,4.364-.227a.3.3,0,0,1,.308.274.291.291,0,0,1-.274.307c-1.5.086-2.967.163-4.371.228Zm8.733-.5a.291.291,0,0,1-.019-.582q2.151-.145,4.36-.314a.291.291,0,1,1,.044.581q-2.21.169-4.365.315Zm-39.258-.395a.277.277,0,0,1-.052,0,34.376,34.376,0,0,1-4.282-1.025.291.291,0,0,1,.176-.555,33.745,33.745,0,0,0,4.208,1.007.291.291,0,0,1-.051.578Zm47.979-.269a.291.291,0,0,1-.024-.581q2.156-.181,4.354-.382a.291.291,0,0,1,.053.58q-2.2.2-4.358.382Zm8.71-.79a.291.291,0,0,1-.028-.581q2.158-.21,4.349-.435a.291.291,0,0,1,.059.58q-2.192.225-4.353.435Zm8.7-.893a.291.291,0,0,1-.031-.581q2.16-.233,4.345-.479a.291.291,0,1,1,.065.579q-2.185.246-4.347.48Zm-73.568-.911a.3.3,0,0,1-.171-.056,5.554,5.554,0,0,1-1.81-2.067,12.794,12.794,0,0,1-.647-1.646.291.291,0,0,1,.556-.174,12.152,12.152,0,0,0,.618,1.571,4.974,4.974,0,0,0,1.626,1.844.291.291,0,0,1-.172.527Zm82.257-.068a.291.291,0,0,1-.033-.58q2.162-.254,4.34-.518a.291.291,0,1,1,.07.578q-2.178.264-4.342.517A.233.233,0,0,1,416.4,1428.97Zm8.681-1.053a.291.291,0,0,1-.036-.58q2.156-.27,4.322-.549a.291.291,0,0,1,.074.578q-2.166.279-4.324.549Zm8.652-1.113a.291.291,0,0,1-.038-.58q2.166-.286,4.334-.58a.291.291,0,0,1,.078.577q-2.169.294-4.336.58A.275.275,0,0,1,433.736,1426.8Zm8.677-1.174a.291.291,0,0,1-.04-.579q2.167-.3,4.329-.605a.291.291,0,0,1,.081.577q-2.163.305-4.331.6A.239.239,0,0,1,442.413,1425.63Zm8.658-1.223a.291.291,0,0,1-.041-.579q2.168-.312,4.326-.628a.291.291,0,0,1,.084.576q-2.158.316-4.327.629A.287.287,0,0,1,451.071,1424.408Zm8.652-1.267a.291.291,0,0,1-.043-.579q2.17-.324,4.323-.65a.291.291,0,1,1,.087.576q-2.153.327-4.324.65Zm8.646-1.309a.291.291,0,0,1-.044-.579q2.172-.334,4.32-.669a.291.291,0,0,1,.09.576q-2.148.335-4.322.669A.3.3,0,0,1,468.369,1421.832Zm-136.86-.663a.291.291,0,0,1-.286-.349,9.2,9.2,0,0,1,1.951-3.977.291.291,0,0,1,.452.367,8.623,8.623,0,0,0-1.833,3.724A.291.291,0,0,1,331.509,1421.168Zm145.5-.684a.291.291,0,0,1-.045-.579q2.175-.343,4.318-.687a.291.291,0,0,1,.092.575q-2.142.343-4.319.687A.293.293,0,0,1,477.009,1420.484Zm8.635-1.383a.291.291,0,0,1-.046-.578q2.179-.354,4.315-.7a.291.291,0,1,1,.094.575q-2.136.35-4.316.7A.306.306,0,0,1,485.645,1419.1Zm8.631-1.416a.291.291,0,0,1-.048-.578q2.186-.363,4.313-.72a.291.291,0,0,1,.1.574q-2.128.357-4.314.72A.281.281,0,0,1,494.276,1417.685Zm8.627-1.448a.291.291,0,0,1-.049-.578q2.194-.372,4.311-.736a.291.291,0,0,1,.1.574q-2.117.363-4.312.736A.309.309,0,0,1,502.9,1416.237Zm8.622-1.48a.291.291,0,0,1-.049-.578q2.207-.383,4.31-.751a.291.291,0,0,1,.1.574q-2.1.368-4.311.751A.3.3,0,0,1,511.525,1414.757Zm-174.9-.351a.291.291,0,0,1-.167-.53,28.592,28.592,0,0,1,3.818-2.21.291.291,0,1,1,.255.523,28.138,28.138,0,0,0-3.741,2.165A.291.291,0,0,1,336.626,1414.406Zm183.519-1.159a.291.291,0,0,1-.051-.578q2.231-.4,4.309-.767a.291.291,0,1,1,.1.573q-2.077.371-4.309.767A.29.29,0,0,1,520.145,1413.247Zm8.618-1.541a.291.291,0,0,1-.051-.578q2.28-.412,4.309-.783a.291.291,0,1,1,.1.572q-2.025.37-4.31.784A.285.285,0,0,1,528.763,1411.706Zm-184.333-1.2a.291.291,0,0,1-.1-.564c1.29-.481,2.693-.948,4.17-1.389a.291.291,0,0,1,.167.558c-1.465.437-2.855.9-4.133,1.377A.285.285,0,0,1,344.43,1410.507Zm192.953-.377a.291.291,0,0,1-.052-.578c1.643-.3,3.086-.573,4.313-.8a.291.291,0,0,1,.107.572c-1.227.23-2.671.5-4.314.8A.287.287,0,0,1,537.383,1410.13Zm8.633-1.619a.291.291,0,0,1-.054-.577l.5-.1a.3.3,0,0,1,.356.284c0,.242-.028.247-.746.384A.292.292,0,0,1,546.016,1408.511Zm-193.21-.53a.291.291,0,0,1-.069-.574c1.361-.334,2.8-.657,4.284-.961a.291.291,0,0,1,.117.57c-1.475.3-2.909.624-4.262.956A.3.3,0,0,1,352.806,1407.981Zm8.576-1.768a.291.291,0,0,1-.049-.578c1.4-.24,2.854-.471,4.333-.685a.291.291,0,0,1,.084.576c-1.474.214-2.926.443-4.317.683A.288.288,0,0,1,361.383,1406.213Zm8.667-1.26a.291.291,0,0,1-.035-.58c1.435-.173,2.9-.334,4.36-.479a.291.291,0,1,1,.057.579c-1.454.144-2.917.3-4.347.477Zm8.719-.862a.291.291,0,0,1-.022-.581c2.705-.208,4.389-.28,4.406-.28a.287.287,0,0,1,.3.279.291.291,0,0,1-.279.3c-.016,0-1.691.072-4.385.279Z" transform="translate(-331.217 -1403.229)"/></g><g transform="translate(195.437 317.986)"><path class="s" d="M1215.324,1424.709l35.868-20.328-32.721,1.934,2.525,5.527-6.759,7.487Z" transform="translate(-1186.229 -1394.352)"/><path class="m" d="M1168.517,1404.382l-37.587,6.888-27.376,19.013Z" transform="translate(-1103.554 -1394.352)"/><path class="m" d="M1226.523,1376.708l32.721-1.933-34.227-10.03Z" transform="translate(-1194.282 -1364.744)"/></g><g transform="translate(392.319 58.54)"><path class="s" d="M1985.262,392.573l40.721,6.445-26.8-18.873-1.468,5.9-9.952,1.646Z" transform="translate(-1959.031 -369.849)"/><path class="m" d="M1948.553,395.067l-33.693-18.028-33.259-2.183Z" transform="translate(-1881.601 -365.898)"/><path class="m" d="M2040.276,349.752l26.8,18.873-20.524-29.169Z" transform="translate(-2000.124 -339.456)"/></g><path class="e" d="M1138.88,920.339s4.553-1.65,5.071-2.79,2.019-1.635,3.831-2.427,2.9-2.229,3.158-2.031.31,1.189-.414,1.932-3.795,5.945-4.952,6.54S1138.88,920.339,1138.88,920.339Z" transform="translate(-936.375 -728.553)"/></g><path class="t" d="M10.953,0H584.2" transform="translate(183.5 759.5)"/><g transform="translate(496.978 601.209)"><ellipse class="q" cx="3.128" cy="3.128" rx="3.128" ry="3.128" transform="translate(14.815 26.261)"/><path class="q" d="M340.673,287.39a18.721,18.721,0,0,0-.1-1.905,19.176,19.176,0,1,0,.047,3.249c0-.034.005-.066.007-.1.026-.4.043-.807.043-1.216V287.4A.1.1,0,0,1,340.673,287.39Zm-37.7.029a18.558,18.558,0,0,1,16.142-18.4,8.3,8.3,0,0,1,5.118,1.285,11.217,11.217,0,0,1,4.994,8.287h-.867c-1.967-5.077-6.581-6.733-9.575-7.27a8.607,8.607,0,0,0-8.121,3.012,6.392,6.392,0,0,0-1.273,4.323c.637,4.791,6,6.629,6,6.629l5.743,2.638c9.054,3.774,10.878,8.863,10.7,12.664-.038.464-.431,2.915-4.284,4.378a18.538,18.538,0,0,1-24.568-17.55Zm20.488-9.982a3.129,3.129,0,1,1-3.128-3.129A3.129,3.129,0,0,1,323.459,277.437Z" transform="translate(-302.388 -268.276)"/></g></g></svg>