<svg xmlns="http://www.w3.org/2000/svg" width="767.974" height="473.152" viewBox="0 0 767.974 473.152"><defs><style>.a{fill:#dffdfb;}.b{fill:#01a8a6;}.c{fill:#009391;}.d{fill:#00cecc;}.e{fill:#78d8d1;}.f{fill:#fff;}.g{fill:#7ddad3;}.h{fill:#3176bb;}.i{fill:#b0d4ff;}.j{fill:#205b96;}.k{fill:#9f5722;}.l{fill:#233862;}.m{fill:#00b5b3;}.n{fill:#000b19;}.o{fill:#001a3a;}.p{fill:#ffc7a2;}.q{fill:#f7b388;}.r{fill:#1a5795;}.s{fill:#f29f6b;}.t{fill:#d54a41;}.u{fill:#e0e0e0;}.v{fill:#ffa30f;}.w{fill:#72390f;}.x{fill:none;stroke:#001a3a;stroke-width:2px;}</style></defs><g transform="translate(-175 -1374.706)"><path class="a" d="M-6255.182,457.568h-482.979c-2.251-.636-3.457-1-3.468-1l0-.009c-.2-.705-5.039-17.569-10.677-43.79-3.378-15.711-6.393-31.705-8.96-47.539-3.209-19.789-5.723-39.379-7.473-58.224-4.454-47.968-4.042-91.463,1.224-129.278,1.521-10.926,3.476-21.52,5.808-31.488a279.244,279.244,0,0,1,8.741-29.954,222.008,222.008,0,0,1,12.039-27.819,180.817,180.817,0,0,1,15.7-25.083A154.387,154.387,0,0,1-6700.5,37.3a147.6,147.6,0,0,1,14.832-10.826,151.531,151.531,0,0,1,16.589-9.166,162.967,162.967,0,0,1,18.431-7.368,182.647,182.647,0,0,1,20.357-5.433,212.276,212.276,0,0,1,22.366-3.361C-6600.086.388-6591.857,0-6583.47,0a332.7,332.7,0,0,1,47,3.557c53.5,7.684,103.92,21.815,149.86,42a489.968,489.968,0,0,1,61.418,32.275,437.691,437.691,0,0,1,52.043,37.835,384.932,384.932,0,0,1,42.392,41.927,329.914,329.914,0,0,1,32.464,44.552,273.679,273.679,0,0,1,22.261,45.709,220.626,220.626,0,0,1,11.781,45.4,173.868,173.868,0,0,1,.231,49.95,143.654,143.654,0,0,1-14.43,45.359,140.116,140.116,0,0,1-29.512,38.533,158.765,158.765,0,0,1-20.543,16.008,184.165,184.165,0,0,1-24.471,13.463c-.733.335-1.475.671-2.206,1Z" transform="translate(6960 1378.931)"/><g transform="translate(-312.488 922.377)"><g transform="translate(847.26 699.529)"><g transform="translate(71.617 102.97)"><path class="b" d="M1837.482,1573.248h.156a1.637,1.637,0,0,0,1.636-1.674l-2.48-107.523-7.308-.853,6.232,108.384A1.767,1.767,0,0,0,1837.482,1573.248Z" transform="translate(-1829.485 -1463.198)"/></g><g transform="translate(114.201 102.97)"><path class="b" d="M1931.9,1573.248h.156a1.636,1.636,0,0,0,1.636-1.674l-2.481-107.523-7.307-.853,6.231,108.384A1.768,1.768,0,0,0,1931.9,1573.248Z" transform="translate(-1923.904 -1463.198)"/></g><g transform="translate(2.898 102.97)"><path class="b" d="M1678.91,1573.248h-.156a1.637,1.637,0,0,1-1.636-1.674l2.481-107.523,7.307-.853-6.231,108.384A1.768,1.768,0,0,1,1678.91,1573.248Z" transform="translate(-1677.118 -1463.198)"/></g><path class="c" d="M1830.6,1332.042v-73.68a23.474,23.474,0,0,0-23.474-23.474h-53.085a23.474,23.474,0,0,0-23.474,23.474v76.5Z" transform="translate(-1703.566 -1234.888)"/><path class="b" d="M11.632,0h97.913a0,0,0,0,1,0,0V11.632a0,0,0,0,1,0,0H0a0,0,0,0,1,0,0v0A11.632,11.632,0,0,1,11.632,0Z" transform="translate(127.039 108.786) rotate(180)"/><path class="d" d="M5.816,0H82.151a5.816,5.816,0,0,1,5.816,5.816v0a5.816,5.816,0,0,1-5.816,5.816H5.816A5.816,5.816,0,0,1,0,5.816v0A5.816,5.816,0,0,1,5.816,0Z" transform="translate(87.966 108.786) rotate(180)"/></g><g transform="translate(596.155 452.329)"><rect class="e" width="306.024" height="199.734"/><g transform="translate(5.826 6.638)"><rect class="f" width="294.248" height="187.828"/><g transform="translate(34.642 57.794)"><path class="a" d="M1400.27,966.873h-74.18V874.243l12.579-11.339h61.6Z" transform="translate(-1326.089 -862.904)"/><path class="g" d="M1326.089,874.243h12.174l.4-11.339Z" transform="translate(-1326.089 -862.904)"/><rect class="e" width="23.752" height="1.131" transform="translate(25.214 9.016)"/><rect class="e" width="34.934" height="1.131" transform="translate(19.623 12.409)"/><rect class="e" width="58.006" height="1.454" transform="translate(8.781 34.202)"/><rect class="e" width="58.006" height="1.454" transform="translate(8.781 38.618)"/><rect class="e" width="58.006" height="1.454" transform="translate(8.781 43.035)"/><rect class="e" width="58.006" height="1.454" transform="translate(8.781 47.451)"/><rect class="e" width="58.006" height="1.454" transform="translate(8.781 61.04)"/><rect class="e" width="58.006" height="1.454" transform="translate(8.781 65.456)"/><rect class="e" width="58.006" height="1.454" transform="translate(8.781 70.578)"/></g><g transform="translate(137.026 24.11)"><rect class="h" width="35.604" height="31.389" transform="translate(0 2.479) rotate(-3.993)"/><path class="f" d="M1308.311,750.373a1.559,1.559,0,1,1,1.664,1.446A1.558,1.558,0,0,1,1308.311,750.373Z" transform="translate(-1291.712 -743.355)"/></g><g transform="translate(213.68 40.194)"><rect class="e" width="35.604" height="31.389" transform="translate(0 3.831) rotate(-6.177)"/><path class="f" d="M1186.053,747.578a1.356,1.356,0,1,1,1.494,1.2A1.356,1.356,0,0,1,1186.053,747.578Z" transform="translate(-1169.245 -741.289)"/></g><g transform="translate(241.658 132.35) rotate(13)"><rect class="h" width="35.604" height="31.389" transform="translate(0 7.425) rotate(-12.037)"/><path class="f" d="M.618,2.493a1.355,1.355,0,1,1,1.874-.4A1.355,1.355,0,0,1,.618,2.493Z" transform="translate(16.939 6.504)"/></g><g transform="translate(187.49 78.235)"><path class="a" d="M987.542,772.7H953.655V749.93l9.382-8.62h24.505Z" transform="translate(-953.474 -741.309)"/><path class="e" d="M953.255,749.93h9.256l.307-8.62Z" transform="translate(-953.255 -741.309)"/><path class="f" d="M991.5,746.392a1.114,1.114,0,1,1,1.114,1.115A1.114,1.114,0,0,1,991.5,746.392Z" transform="translate(-974.251 -743.488)"/></g></g></g><g transform="translate(569.175 699.815)"><g transform="translate(45.634 102.971)"><path class="i" d="M1157.084,1573.885h-.156a1.636,1.636,0,0,1-1.636-1.674l2.481-107.524,7.308-.852-6.232,108.383A1.768,1.768,0,0,1,1157.084,1573.885Z" transform="translate(-1155.292 -1463.835)"/></g><g transform="translate(3.05 102.971)"><path class="b" d="M1062.665,1573.885h-.156a1.636,1.636,0,0,1-1.636-1.674l2.481-107.524,7.308-.852-6.232,108.383A1.768,1.768,0,0,1,1062.665,1573.885Z" transform="translate(-1060.873 -1463.835)"/></g><g transform="translate(114.353 102.971)"><path class="b" d="M1315.655,1573.885h.156a1.636,1.636,0,0,0,1.636-1.674l-2.481-107.524-7.307-.852,6.231,108.383A1.768,1.768,0,0,0,1315.655,1573.885Z" transform="translate(-1307.659 -1463.835)"/></g><path class="c" d="M1054.111,1332.678V1259a23.475,23.475,0,0,1,23.475-23.475h53.084A23.475,23.475,0,0,1,1154.145,1259v76.5Z" transform="translate(-1054.111 -1235.523)"/><path class="b" d="M0,0H109.545a0,0,0,0,1,0,0V11.632a0,0,0,0,1,0,0H11.632A11.632,11.632,0,0,1,0,0V0A0,0,0,0,1,0,0Z" transform="translate(0 97.155)"/><rect class="d" width="87.966" height="11.632" rx="5.816" transform="translate(39.073 97.155)"/></g><path class="j" d="M1248.219,1407.593c-7.6,13.236-17.17,18.345-17.17,18.345h-39.793S1254.021,1397.5,1248.219,1407.593Z" transform="translate(-560.228 -628.982)"/><path class="k" d="M1248.64,1597.119a3.679,3.679,0,0,0-.656,3.935.031.031,0,0,0,.01.02c.949,2.622,4.085,5.552,7.727,8.476.465.376.88.718,1.24,1.034.095.083.189.166.278.25.073.065.144.132.214.194,3.4,3.131,2.118,3.848,8.22,10.2,6.957,7.239,11.748,7.37,13.11,6.71,1.153-.562-1.189-4.4-3.785-8.717-.126-.208-.249-.419-.378-.63-.346-.573-.689-1.156-1.032-1.732-3.042-5.194-2.26-7.631-1.539-15.36.586-6.281,9.771-35.089,9.771-35.089l-13.333-2.3s-4.015,22.94-8.439,26.473c-2.365,1.883-5.013,1.907-7.287,3.3q-.242.145-.473.3A17.479,17.479,0,0,0,1248.64,1597.119Z" transform="translate(-591.21 -716.1)"/><path class="l" d="M1248.64,1633.364a3.679,3.679,0,0,0-.656,3.935.031.031,0,0,0,.01.02c1.162,2.62,4.219,5.534,7.739,8.449.46.382.866.733,1.228,1.06.095.083.189.167.278.25.073.065.144.132.214.193,3.4,3.131,2.118,3.848,8.22,10.2,6.957,7.239,11.748,7.37,13.11,6.71,1.153-.562-1.189-4.4-3.785-8.717a29.652,29.652,0,0,1-12.4-9.139c-4.189-5.346-6.983-12.215-9.836-16.193-.161.1-.318.2-.473.3A17.479,17.479,0,0,0,1248.64,1633.364Z" transform="translate(-591.21 -752.345)"/><path class="k" d="M1475.19,1583.853c.823,4.116,6.69,3.429,13.244,1.827s5,.3,14.325-.73,12.154-4.511,12.438-5.9c.255-1.231-4.355-1.665-9.3-2.235-.621-.07-1.246-.146-1.871-.224-5.582-.7-9.669-4.3-14.739-7.26-4.8-2.8-11.969-14.218-11.969-14.218l-12.793,1.013s6.713,10.2,9.31,14.629c1.527,2.607,1.446,6.056,1.256,8.718A16.413,16.413,0,0,0,1475.19,1583.853Z" transform="translate(-710.25 -711.161)"/><path class="l" d="M1501.176,1612.1c6.554-1.6,5,.3,14.325-.73s12.154-4.511,12.438-5.9c.255-1.231-4.355-1.665-9.3-2.235l-.046.1a26.3,26.3,0,0,1-13.359,4.152c-6.329.154-13.032-1.659-17.4-1.588a16.415,16.415,0,0,0,.1,4.375C1488.755,1614.385,1494.621,1613.7,1501.176,1612.1Z" transform="translate(-722.992 -737.577)"/><path class="j" d="M1326.047,1412.5l-11.959,32.18-15.613,42.017a25.3,25.3,0,0,1-8.294-.758,35.991,35.991,0,0,1-8.022-3.9s4.335-45.115,12.423-71.013c2.072-6.647,4.4-12.024,6.959-15.051C1314.078,1381.155,1326.047,1412.5,1326.047,1412.5Z" transform="translate(-610.132 -621.609)"/><path class="h" d="M1211.709,1316.325c-7.834-2.527-30.18.718-52.627,5.112l-4.7-7.752L1105.9,1309.9s-16,35.48-7.24,58.087c1.287,3.323,3.845,5.454,8.206,5.524,0,0,.706,0,.708,0s28.857-.017,38.227-.017c24.112,0,51.029-16.575,54.511-17.271,5.7-1.14,7.98,10.259,13.679,22.228s53.575,53,53.575,53,7.358.073,10.4-1.067a10.244,10.244,0,0,0,4.464-2.818S1229.376,1322.024,1211.709,1316.325Z" transform="translate(-507.952 -576.539)"/><path class="h" d="M1314.088,1467.843l-15.613,42.017a25.3,25.3,0,0,1-8.294-.758,35.983,35.983,0,0,1-8.022-3.9s4.335-45.115,12.423-71.013Z" transform="translate(-610.132 -644.771)"/><g transform="translate(603.874 746.511)"><g transform="translate(397.384 14.204)"><path class="m" d="M2022.719,1524.637h.207a2.234,2.234,0,0,0,2.163-2.344l-3.281-150.547-9.663-1.193,8.241,151.751A2.4,2.4,0,0,0,2022.719,1524.637Z" transform="translate(-2012.144 -1370.553)"/></g><g transform="translate(13.778 14.204)"><path class="m" d="M1163.968,1524.637h-.207a2.233,2.233,0,0,1-2.163-2.344l3.281-150.547,9.664-1.193L1166.3,1522.3A2.4,2.4,0,0,1,1163.968,1524.637Z" transform="translate(-1161.598 -1370.553)"/></g><path class="m" d="M9.083,0H416.645a9.083,9.083,0,0,1,9.083,9.083v0a9.083,9.083,0,0,1-9.083,9.083H9.083A9.083,9.083,0,0,1,0,9.083v0A9.083,9.083,0,0,1,9.083,0Z" transform="translate(0 0)"/></g><g transform="translate(913.647 532.871)"><path class="n" d="M2124.853,1694.774s1.148-7.262,3.807-11.579,19.577-1.57,19.577-1.57,3.384,2.355,4.109,13.346Z" transform="translate(-2013.375 -1302.361)"/><path class="n" d="M1931.515,1683.66c3.976-1.97,1.713-16.669,1.713-16.669s-18.524-12.033-21.071-2.821-17.6,13.35-26.165,14.478c-5.914.779-7.745,3.439-8.312,5.011Z" transform="translate(-1877.68 -1291.345)"/><path class="o" d="M2000.925,1338a51.342,51.342,0,0,0-1.53,8.125c-1.938,27.275-31.821,89.639-37.166,91.093-8.271,2.252-21.295-2.535-28.109-4.1-2.824-.651-4.729-2.706-4.1-4.79,14.8-49.087,20.238-119.769,22.216-161.617,1-21.078,6.015-35.639,6.015-35.639s72.885-14.031,73.317,3.718C2031.951,1250.5,2007.425,1312.095,2000.925,1338Z" transform="translate(-1906.348 -1052.596)"/><path class="n" d="M2028.114,1338l-48.689-71.289c1-21.078,6.015-35.639,6.015-35.639s72.885-14.031,73.317,3.718C2059.14,1250.5,2034.614,1312.095,2028.114,1338Z" transform="translate(-1933.537 -1052.596)"/><path class="o" d="M2050.174,1238.064l38.428,201.483s16.875,2.944,30,.589c0,0,11.251-107.157,10.313-133.063s8.074-69.321-2.056-74.108S2050.174,1238.064,2050.174,1238.064Z" transform="translate(-1972.378 -1055.804)"/><path class="h" d="M2089.755,1088.319c.164,1.82-1.27,3.476-3.428,3.985-4.776,1.125-16.821,1.908-27.441,3.695a247.992,247.992,0,0,1-39.88,3.254c-26.224.135-36.152-7.2-36.152-7.2-1.13.017-10.472-4.44-8.916-25.63.527-7.178,12.1-16.277,12.47-27.776.331-10.347.554-22.639.575-37.223.028-17.542,33.467-36.415,34.084-36.415l.007.008c0,2.526,4.9,7.187,12.453,7.589,8.963.476,19.957-3.146,19.957-7.337,0-.043,16.2,21.045,21.956,43.514C2078.347,1020.09,2083.71,1019.786,2089.755,1088.319Z" transform="translate(-1930.429 -909.416)"/><path class="h" d="M2010.094,965.007s-31.095-.214-38.579,8.308-23.891,54.368-15.329,69.624,24.584-6.31,33.476-15.655S2010.094,965.007,2010.094,965.007Z" transform="translate(-1919.455 -909.418)"/><path class="p" d="M2079.387,938.136l.02,2.61s-.968,8.163,12.7,9.355,23.819-1.524,23.449-7.823c-1.232-4.877-2.373-9.885-2.465-13.921a21.066,21.066,0,0,1,.487-4.888l-26.492-.389-7.8.937Z" transform="translate(-1988.359 -886.4)"/><path class="q" d="M2079.286,924.017l.1,14.119a28.911,28.911,0,0,0,9.478,1.549,31.2,31.2,0,0,0,23.979-11.328,21.235,21.235,0,0,1,.483-4.888l-26.3-.389Z" transform="translate(-1988.359 -886.4)"/><path class="p" d="M2105.955,874.762c1.148,16.484-23.848,12.677-32.856,11.853-2.535-.229-4.13-.491-4.13-.491-2.858-.619-4.453-4.272-5.195-9.057-1.471-9.469.387-23.37,2.358-26.925,2.968-5.35,8.557-11.136,29.55-6.961S2104.762,857.642,2105.955,874.762Z" transform="translate(-1979.553 -841.752)"/><path class="r" d="M1993.924,1040.764s-12.026,21.566-11.676,28.031a50.714,50.714,0,0,1,11.676,1.219C2003.326,1072.29,1993.924,1040.764,1993.924,1040.764Z" transform="translate(-1935.083 -951.007)"/><path class="r" d="M2057.679,1129.208c-5.077,16.554-71.048,25.109-83.529,26.847.527-7.178,12.1-16.276,12.47-27.776Z" transform="translate(-1930.641 -999.052)"/><path class="p" d="M2128.5,1121.034c.523,0,12.206-1.416,14.3-2.266s11.662-11.893,5.4-14.724-23.091,8.495-23.091,8.495Z" transform="translate(-2013.51 -985.498)"/><path class="h" d="M1974.573,1125.417s45.182,1.99,75.5-3.281c0,0,.765-7.114-8.764-10.273,0,0-47.258-8.134-58.611-5.868S1974.573,1125.417,1974.573,1125.417Z" transform="translate(-1930.641 -986.6)"/><path class="h" d="M2165.875,1020.345c-9.377,9.18-21.635,16.676-35.148,18.431l0,0a17.639,17.639,0,0,1-3.345-12.253,21.709,21.709,0,0,1,4.921-11.247,23.4,23.4,0,0,0,2.657-4.349c7.379-15.288,6.28-44.755,6.28-44.755s31.337,2.665,41.1,13.992C2188.318,987.1,2180.692,1005.83,2165.875,1020.345Z" transform="translate(-2014.711 -910.055)"/><path class="s" d="M2083.227,931.625c-3.147-.223-5.127-.479-5.127-.479-3.548-.6-5.529-4.164-6.448-8.826,6.654,1.044,9.7,4.318,10.973,5.713C2083.2,928.66,2083.316,930.067,2083.227,931.625Z" transform="translate(-1987.106 -886.428)"/><path class="p" d="M2056,938.727s-10.822-14.5-2.406-15.132,11.8,3.994,13.012,5.693-.317,9.363-.317,9.363Z" transform="translate(-1972.494 -886.65)"/><path class="h" d="M2101.144,1017.977a16.4,16.4,0,0,1-1.845,5.035,25.467,25.467,0,0,1-6.891,7.708l0,0c-28.107-10.3-33.795-45.678-34.747-65.115a118.382,118.382,0,0,1,0-13.051c12.68-3.409,16.243,2.514,16.243,2.514s14.971,28.909,22.737,47.8C2099.61,1010.1,2101.524,1015.862,2101.144,1017.977Z" transform="translate(-1976.393 -901.999)"/><path class="r" d="M2127.764,1029.462c-9.377,9.18-21.635,16.676-35.148,18.431l0,0c-28.107-10.3-33.8-45.678-34.747-65.115,0,0,13.3,39.171,31.4,52.862a21.463,21.463,0,0,0,10.24,4.548s22.827-5.239,27.615-10.172A2.388,2.388,0,0,1,2127.764,1029.462Z" transform="translate(-1976.6 -919.173)"/></g><g transform="translate(794.345 693.479)"><path class="o" d="M1645.589,1274.506H1574.7l-21.326-53.032h70.785Z" transform="translate(-1553.369 -1221.474)"/><path class="o" d="M1598.812,1334.479h93.615v2.066h-92.785Z" transform="translate(-1578.317 -1283.512)"/><path class="f" d="M1640.168,1276.158a2.456,2.456,0,0,1,2.407-3.376,4.837,4.837,0,0,1,4.343,3.376,2.456,2.456,0,0,1-2.408,3.375A4.836,4.836,0,0,1,1640.168,1276.158Z" transform="translate(-1600.946 -1249.641)"/></g><path class="h" d="M1116.263,1073.487l-25.609,9.555s7.167,52.016,7.782,71.88-9.42,37.1-9.42,37.1h66.964s9.215-54.094,7.372-73.139-14.54-38.776-15.154-39.251-15.973-3.958-15.973-3.958l-15.962-2.183Z" transform="translate(-504.098 -446.752)"/><path class="t" d="M1233.344,1215.453s2.581,24.165,3.646,25.393,40.384,20.477,40.384,20.477l-57.135,3.893,13.106-49.763Z" transform="translate(-576.138 -524.69)"/><path class="f" d="M1220.238,1087.1c6.348.137,8.073,10.517,9.565,18.23s-9.565-18.23-9.565-18.23Z" transform="translate(-576.138 -454.227)"/><path class="f" d="M1139.339,1120.673c-3.481-12.492-22.186-47.277-22.186-47.277l-24.5,9.6s5.617,40.767,7.332,63.9l9.308,45.075h30.049s3.481-58.8,0-71.3Z" transform="translate(-506.093 -446.702)"/><path class="u" d="M1116.572,1190c-4.505-6.1-8.912-12.811-4.62-26.827s4.71-19.045,3.207-31.742-8.327-32.97-21.637-33.585c0,0-.439,4.44-1.149,11.527,2.162,16.742,5.644,45.342,6.063,58.919.614,19.864-9.42,37.1-9.42,37.1l54.472,1.2s-22.41-10.487-26.916-16.588" transform="translate(-504.098 -460.127)"/><path class="f" d="M1222.093,1122.952c-1.843-19.045-14.54-38.776-15.154-39.251-.379-.295-6.39-1.737-10.926-2.8,1.333,3.148,15.4,36.675,14.817,50.486-.614,14.5.018,64.7.018,64.7h3.872s9.216-54.094,7.372-73.139Z" transform="translate(-562.839 -450.825)"/><path class="u" d="M1196.013,1080.906s10.792,27.711,12.5,35.51,2.06,45.907,2.06,45.907,4.962-33.226,3.529-43.056-3.481-18.711-3.481-18.711l-6.553-4.839s-1.239-13.177-1.935-13.348-6.123-1.462-6.123-1.462Z" transform="translate(-562.839 -450.825)"/><path class="o" d="M30.029,7.384C26.058-4.6,9.783-1.764,2.408,14.175s3.91,26.6,10.748,22.693S30.029,7.384,30.029,7.384Z" transform="translate(585.88 573.739) rotate(-14)"/><path class="k" d="M1197.639,1310.741a8.444,8.444,0,0,0,1.571.3,1.89,1.89,0,0,0,1.757-.678l-10.6-5.15c-2.809-1.545-20.216,2.331-20.216,2.331l1.538,7.641s5.034,1.408,13.25-1.33c1.952-.651,5.9-2.021,7.394-1.619.245.065.545.164.882.283a14.475,14.475,0,0,0,2.838,2.807,3.565,3.565,0,0,0,1.968.421l-.984-1.771c2.3.857,4.348,1.471,3.863.367A15.417,15.417,0,0,0,1197.639,1310.741Z" transform="translate(-548.638 -573.767)"/><g transform="translate(619.671 692.994)"><g transform="translate(0)"><path class="o" d="M1214.609,1273.431H1285.5l21.326-53.032h-70.785Z" transform="translate(-1192.719 -1220.398)"/><path class="o" d="M1259.688,1333.4h-93.616v2.066h92.785Z" transform="translate(-1166.072 -1282.437)"/></g><path class="f" d="M1323.734,1275.082a2.456,2.456,0,0,0-2.408-3.375,4.838,4.838,0,0,0-4.343,3.375,2.457,2.457,0,0,0,2.407,3.376A4.838,4.838,0,0,0,1323.734,1275.082Z" transform="translate(-1248.846 -1248.566)"/></g><path class="f" d="M1063.592,1094.673c-8.192,14.335-10.791,22.154-17.467,48.981s-9.36,39.034-1.988,42.559c6.1,2.918,50.518,16.239,55.906,14.6,2.458.139,6.229-12.551,6.229-12.551l-40.428-18.021s11.7-27.933,13.721-46.282-6.963-29.284-11.468-29.284Z" transform="translate(-477.036 -458.383)"/><path class="v" d="M2094.107,807.893c9.918-.27,6.238-7.641,17.641-4.7,6,1.549,1.57,4.014,9.358,3.212s11.622-1.606,12.6,3.477,1.457,6.692,5.2,7.494,5.438,7.494,0,12.042-2.795,6.421-1.59,10.168-2.9,4.014-5.13,7.491,2.053,4.137-1.159,7.154a11.383,11.383,0,0,1-7.715,2.747L2109.8,831.061l-15.695-23.168Z" transform="translate(-1082.849 -287.333)"/><path class="v" d="M2056.379,813.607c-4.7-1.963-10-4.065-8.358,3.924.711,3.48,0,2.5-1.249,5.71s3.146,5.731,4.572,7.515-2.078,3.723.778,5.863,6.618-.792,9.277,0c7.938,2.369,6.958-3.876,11.417-5.173s6.646-1.1,7.493,1.756-3.122,12.246.268,11.355,4.153,6.689,5.064,10.973,3.238-2.957,3.087-7.854c-.23-7.512,1.634-10.667,4.4-12.769s3.945-21.211-9.435-21.925-13.464-2.006-19.173-3.213-6,4.732-8.142,3.837Z" transform="translate(-1056.742 -291.234)"/><path class="o" d="M18.311,4.5C15.889-2.8,5.965-1.075,1.469,8.643S3.853,24.862,8.023,22.481,18.311,4.5,18.311,4.5Z" transform="translate(622.76 551.365) rotate(45)"/><path class="o" d="M18.311,4.5C15.889-2.8,5.965-1.075,1.469,8.643S3.853,24.862,8.023,22.481,18.311,4.5,18.311,4.5Z" transform="matrix(0.208, 0.978, -0.978, 0.208, 651.97, 551.726)"/><path class="o" d="M12.9,3.172C11.194-1.975,4.2-.758,1.035,6.089s1.68,11.427,4.617,9.749S12.9,3.172,12.9,3.172Z" transform="translate(604.207 615.271) rotate(-83)"/><path class="o" d="M1150.429,939.417c19.375-10.659,37.574-5.009,44.093,9.419,6.089,13.477-1.714,42.434-30.62,37.389-29.9-5.221-32.394-11.709-32.167-21.139.182-7.535,4.715-17.978,18.694-25.668Z" transform="translate(-529.311 -370.117)"/><path class="k" d="M1159.387,994.163s-5.368,27.407-11.3,32.209,13.655,27.963,20.436,22.029.471-18.92.471-18.92-3.672-2.261,2.543-16.67-10.518-25.146-10.518-25.146l-1.632,6.5Z" transform="translate(-535.921 -399.636)"/><path class="w" d="M1173.7,987.665l-1.632,6.5s-.747,3.813-1.991,8.843c2.319,10.823,6.656,17.859,10.534,22.334.113-2.494.971-6.42,3.606-12.529,6.215-14.411-10.518-25.146-10.518-25.146Z" transform="translate(-548.598 -399.636)"/><path class="k" d="M1210.215,989.875c-3.606,9.948-12.422,17.935-18.021,16.092-9.144-3.01-15.8-10.158-14.228-25.959,1.851-18.609,16.171-20.742,24.58-18.365s11.663,17.223,7.669,28.232Z" transform="translate(-552.805 -384.917)"/><path class="k" d="M1174.435,998.843c-1.978,6.209-1.129,7.477-3.867,8.056s-5.239-2.138-6.048-5.953.755-7.383,3.493-7.964,7.607,2.144,6.423,5.861Z" transform="translate(-545.432 -402.513)"/><path class="o" d="M1201.3,961.67c-10.714,19.045-32,16.248-44.937,9.694-10.546-5.341,30.086-25.578,30.086-25.578L1201.3,961.67Z" transform="translate(-540.11 -376.646)"/><path class="u" d="M1136.452,1073.4l-8.65,3.387,13.634,17.472-3.891,6.963a55.057,55.057,0,0,1,18.309,30.97,182.677,182.677,0,0,1,3.8,37.832s1.048-41.428-1.02-49.347c-4.009-15.359-22.186-47.277-22.186-47.277Z" transform="translate(-525.392 -446.702)"/></g><line class="x" x2="681" transform="translate(175 1835.5)"/><path class="a" d="M6879.88,1720.459c7.546-74.033-134.419-130.047-78.946-11.014S6872.334,1794.492,6879.88,1720.459Z" transform="matrix(0.545, 0.839, -0.839, 0.545, -1428.428, -4919.922)"/></g></svg>