<svg xmlns="http://www.w3.org/2000/svg" width="687.903" height="462.259" viewBox="0 0 687.903 462.259"><defs><style>.a{fill:#dffdfb;}.b{fill:#233862;}.c{fill:#215f9d;}.d{fill:#001a3a;}.e{fill:#f7b388;}.f{fill:#fff;}.g{fill:#ffc7a2;}.h{fill:#e2e2e2;}.i{fill:#3176bb;}.j{fill:#78d8d1;}.k{fill:#b8fcf6;}.l{fill:#99e5e0;}.m{fill:#9cf4ed;}.n,.o{fill:none;}.n{stroke:#9cf4ed;}.o{stroke:#001a3a;stroke-width:2px;}.p{fill:#d2e4ff;}.q{fill:#ea8700;}.r{fill:#0d4379;}.s{fill:#ffa30f;}.t{fill:#c77300;}.u{fill:#009391;}.v{fill:#00716f;}.w{fill:#01a8a6;}.x{fill:#00b5b3;}.y{fill:#77a4e5;}</style></defs><g transform="translate(-1118 -1397.371)"><path class="a" d="M6828.552,1784.813s-108.052-101.359,0-168.267,183.372-138.624,196.96-186.573,168.91-151.692,292.37,21.793-49.026,333.048-49.026,333.048Z" transform="translate(-5556.5 51)"/><path class="b" d="M1654.251,1036.022l-39.472-3.1s-.946-6.016,1.115-10.58c1.976-4.379-.742-7.548-3.447-12.764,2.508,2.583,11.147,2.2,16.853,1.435.7,1.133,7.739,11.567,10.075,13.245C1641.954,1026.117,1653.457,1028.552,1654.251,1036.022Z" transform="translate(-82.655 682.285)"/><path class="b" d="M1518.871,1029.844H1479.4s-.946-6.016,1.116-10.58c1.976-4.379,5.418-9.08,2.714-14.3,2.508,2.583,10.431,2.3,16.137,1.532.7,1.133-2.641,8.541,4.63,14.68C1506.421,1023.229,1518.076,1022.373,1518.871,1029.844Z" transform="translate(6.367 685.368)"/><path class="c" d="M1343.4,655.285s-18.8-6.411-26.011,12.686c-34.423,27.886-83.655,99.1-87.81,104.077-8.322,9.97-1.891,23.848,32.139,23.516,19.895-.194,32.072-9.328,37.526-17.541,1.453-2.188,6.793-12.165,13.335-25.527-.2,13.42-.276,23.147-.276,23.147-1.021,9.512,20.346,6.912,20.346,6.912C1368.882,661.34,1343.4,655.285,1343.4,655.285Z" transform="translate(175.292 919.647)"/><path class="d" d="M1287.434,485.274c-2-4-5.738-6.8-8.554-8.452a5.522,5.522,0,0,1,2.728.4c-1.513-1.375-6.377-2.222-6.377-2.222-17.33-24.659-44.056,7.279-48.92,15.6s-10.974,17.556-27.441,16.908c-32.4-1.276-32.354,30.621-27.831,48,2.391,9.186,16.921,30.665,16.921,30.665,3.738-6.853,36.425-38.242,58.812-38.029,7.519-3.036,15.46-11.977,16.08-12.684-5.884,7.366-10.152,10.849-13,12.514C1271.138,544.681,1292.737,495.881,1287.434,485.274Z" transform="translate(213.632 1045.513)"/><path class="e" d="M1358.349,642.374c.06.083-2.926,11.133-11.9,6.286-5.891-3.182-15.346-16.755-11.7-21.354,1.732-2.187,9.36-6.34,17.3-20.406l.954.824,16.032,13.868s-3.649,5.453-6.712,10.8C1359.75,636.885,1357.593,641.306,1358.349,642.374Z" transform="translate(103.393 951.278)"/><path class="d" d="M1389.6,534.141s.3-11.4,3.669-19.057c2.407-5.468,17.033-21.911,33.485-7.106a29.768,29.768,0,0,1,7.656,10.749c2.163,5.317,4,14.9-12.964,26.432l-5.234,4.229Z" transform="translate(66.208 1021.385)"/><path class="f" d="M1324.689,630.538s5.891,1.123,8.38-2.214,7.913-10.4,9.178-6.346,13.226,15.83,15.991,16.139,4.7,1.083,3.139,2.518-.912,7.172-2.478,7.694S1328.293,630.222,1324.689,630.538Z" transform="translate(109.568 942.02)"/><path class="g" d="M1404.253,575.484s-23.122-14.95-13.591-29.206,12.967-25.787,28.133-16.844,14.369,16.28,12.344,21.812S1410.514,579,1404.253,575.484Z" transform="translate(67.037 1005.128)"/><path class="f" d="M1266.493,668.189s-39.156-28.854-52.86-17.986c-20.212,16.03-16.17,70.147-20.865,77.189s-31.148,57.537,11.876,62.673,52.935-21.987,54.891-42.33S1266.493,668.189,1266.493,668.189Z" transform="translate(205.935 923.986)"/><path class="h" d="M1278.753,708.153s-11.275,62.331,11.069,79.359S1323.414,706.225,1278.753,708.153Z" transform="translate(142.154 883.66)"/><path class="h" d="M1352.214,667.882s.428-7.283,6.854-4.5,18.314,6.962,22.919,5.248-7.407,21.312-18.376,13.6S1352.214,667.882,1352.214,667.882Z" transform="translate(91.181 913.971)"/><path class="d" d="M1426.728,533.8s-17.462,12.516-28.728,8.547-13.708-9.337-13.708-9.337a32.757,32.757,0,0,0,19.675-10.112S1427.335,522.682,1426.728,533.8Z" transform="translate(69.754 1007.39)"/><path class="g" d="M1601.777,800.467s8.855,3.855,7.095,14.016-5.282,6.756-5.282,6.756Z" transform="translate(-75.527 821.975)"/><path class="d" d="M1498.222,555.125s2.176,6.865.884,11.257-5.783,12.2-3.436,13.407c0,0,12.33-8.2,11.335-18.178C1505.951,551.031,1498.222,555.125,1498.222,555.125Z" transform="translate(-4.202 986.384)"/><path class="i" d="M1311.527,640.27l0,.007c-1.744-5.016-5.564-8.117-12.132-8.489-28.7-1.622-97.7,118.98-102.926,125.244-8.322,9.97-1.891,23.848,32.139,23.516,19.895-.194,27.742-9.719,33.2-17.932a597.217,597.217,0,0,0,34.5-62.093c11.66,27.778,36.086,64.44,36.086,64.44,3.63,8.851,19.934-2.962,19.934-2.962C1313.244,641.871,1311.527,640.27,1311.527,640.27Z" transform="translate(197.409 934.663)"/><path class="g" d="M1271.54,661.032s-10.315,15.931,21.761,30.549,35.851,18.185,42.107,19.49c9.745,2.033,47.179,1.747,47.179,1.747s.982-5.937-2.465-7.941c-5.52-3.211-37.405-8.423-41.7-10.143S1288.307,643.769,1271.54,661.032Z" transform="translate(146.127 917.565)"/><path class="f" d="M1274.739,647.829s16.383.661,50.561,32.148c0,0,5.23,6.351,7.832,6.774s9.65,2.276,9.8,4.069-8.68,24.284-19.926,24.927-65.4-39.419-61.71-52.431S1274.739,647.829,1274.739,647.829Z" transform="translate(152.032 923.937)"/><rect class="j" width="144.487" height="116.444" transform="translate(1360.942 1719.187)"/><rect class="k" width="130.726" height="116.441" transform="translate(1446.946 1719.188)"/><path class="l" d="M1103.859,1064.966s19.635-18.135,32.588-12.6c17.049,7.28,57.365,5.251,67.537,3.373s89.628,3.732,116.606,9.044Z" transform="translate(257.083 654.41)"/><path class="m" d="M1493.635,1177.77v30.545H1362.908V1091.873h21.931l.43.187S1397.005,1171.045,1493.635,1177.77Z" transform="translate(84.038 627.315)"/><path class="a" d="M6908.282,1380.912c-45.358,22.7-46.233,70.451-126.617,99.022s11.07,155.831,103.894,62.2S6953.64,1358.212,6908.282,1380.912Z" transform="translate(-5528.5 20)"/><line class="n" y2="116" transform="translate(1577.5 1719.5)"/><line class="o" x2="681" transform="translate(1118 1835.5)"/><path class="p" d="M2042.93,1050.892a2.285,2.285,0,1,0,3.875,2.27c.756-1.292,1.216-6.518,1.216-6.518S2043.686,1049.6,2042.93,1050.892Z" transform="translate(-369.926 681.528)"/><path class="q" d="M1789.454,1126.467s-27.734-3.565-29.345-7.625c0,0,1.926-3.67-1.118-4.628-.817-.258-2.189-.731-2.8-.028l.038,7.487a46.473,46.473,0,0,1,4.666,4.773c.925,1.176,18.846,7.98,18.846,7.98Z" transform="translate(-178.676 636.656)"/><path class="q" d="M1939.978,1273.506c2.384-3.446-.093-27.79-17.265-20.4-3.647,1.1-8.035,3.74-13.291,8.555,0,0-7.544,17.774,22.2,29.532,0,0,2.948,1.275,3.367,3.984s.889,14.942-.12,15.311-2.5-1.033-3.593.51-.705,4.091-.705,4.091h10.81s5.166-27.452,4.876-29.635S1937.149,1277.6,1939.978,1273.506Z" transform="translate(-280.464 544.538)"/><path class="r" d="M1862.708,1017.646s5.721,12,2.562,15.6l-8.889-7.139S1856.337,1022.569,1862.708,1017.646Z" transform="translate(-245.603 700.899)"/><path class="s" d="M1856.885,1085.41c-2.334-4.231-5.832-11.306-1.216-14.194,3.934-2.462,2.427-7.593.152-8.821-4.791-2.585-9.657.684-11.938,3.878-4.341,6.077,1.425,15.575,1.425,15.575,5.45,11.735-5.769,17.844-11.18,20.023a63.2,63.2,0,0,0-9.111-10.735c-1.864-1.767-3.575-3.208-5.01-4.433-15.229-13.018-11.541-17.78-15.157-23.632-.71-1.159-3.512-4.311-4.256-5.32s-1-4.562-1.092-7.7a5.279,5.279,0,0,0,1.9-3.092,3.093,3.093,0,0,1-.014,1.341c1.774-1.439,1.372-4.756,1.372-4.756a3.927,3.927,0,0,1,.548,1.507,13.294,13.294,0,0,0-2.309-9.4c.56-4.848-3.46-13.28-3.46-13.28a92.206,92.206,0,0,0,.894,9.44,12.851,12.851,0,0,0-3.549-2.6c-3.177-1.577-7.516-3.062-12.11,1.446a9.106,9.106,0,0,1-5.591,1.665c-.8-.1-2.632,3.921-2.7,4.47-.8,6.086,1.135,9.1,4.612,12.212.488,1.371.862,3.215.007,4.455,0,0,.733-.3.823-.535a5.943,5.943,0,0,1-1.5,3.1,3.052,3.052,0,0,0,.707-.166c-.912,1.157-4.38,5.95-4.333,11.854-7.295.061-14.234-.386-14.907-2.255,0,0,1.573-3.079-1.014-4.628a5.734,5.734,0,0,0-2.837-.656l-.126,8.406a26.188,26.188,0,0,1,4.69,4.482c.522.732,10.73,5.339,18.366,8.714,4.445,19.27,18.722,30.409,23.447,33.639.682,5.887,4.177,13.545,14.2,22.467,0,0,2.33,2.21,1.792,4.9s-4.3,14.337-5.376,14.337-4.66-1.553-6.213-.477.6,5.257.6,5.257h10.935s13.5-22.222,13.979-24.373-5.854-10.514-1.792-13.381c1.742-1.229,4.159-7.972,3.657-14.163C1839.525,1108.109,1864.191,1098.657,1856.885,1085.41Z" transform="translate(-178.486 686.742)"/><path class="s" d="M1862.244,1030.83l8.894,7.138a4.2,4.2,0,0,0,.895-2.316c.561-4.848-3.46-13.281-3.46-13.281C1862.2,1027.293,1862.244,1030.83,1862.244,1030.83Z" transform="translate(-249.519 697.742)"/><path class="t" d="M1817.007,1052.075a1.068,1.068,0,0,1,1.022-.079,2.3,2.3,0,0,1-2.118,2.148S1816.481,1052.389,1817.007,1052.075Z" transform="translate(-218.569 678.02)"/><g transform="translate(1602.074 1734.393)"><path class="t" d="M1830.163,1065.623a35.294,35.294,0,0,1,12.8,8.89h0a36.968,36.968,0,0,0-12.725-9.132Z" transform="translate(-1830.163 -1065.381)"/></g><g transform="translate(1601.383 1734.902)"><path class="t" d="M1828.082,1067.171a41.923,41.923,0,0,1,12.255,13.879h0a43.907,43.907,0,0,0-12.095-14.136Z" transform="translate(-1828.082 -1066.914)"/></g><g transform="translate(1600.584 1735.607)"><path class="t" d="M1825.674,1069.223a35.287,35.287,0,0,1,7.641,13.588h0a36.969,36.969,0,0,0-7.463-13.771Z" transform="translate(-1825.674 -1069.039)"/></g><g transform="translate(0 12)"><g transform="translate(1227.156 1718.774)"><path class="u" d="M758.277,1124s-13.8-16.1-.851-26.324c0,0,9.458-5.726,17.17-5.261,0,0-10.927,18.324-7.393,20.146s10.7-21.3,10.7-21.3,21.523-2.087,28.446,1.242c0,0-18.4,15.057-14.524,15.953s23.749-13.882,23.749-13.882,20.031,3.409,18.964,15.629-7.97,15.993-11,15.668-20.779-7.1-21.166-4.614,10.3,10.609,17.775,10.989c0,0-14.122,15.575-23.508,11.08s-10.187-11.62-16.038-14.292-10.845-2.666-8.43.06,13,5.374,16.35,11.293,6.348,9.911-3.363,8.449-25.5-8.567-26.189-16.7Z" transform="translate(-734.953 -1090.625)"/><g transform="translate(0 19.823)"><path class="v" d="M813.2,1150.426s-54.407-2.1-66.422,13.463a39.347,39.347,0,0,1-10.834,15.205l-1.275,3.474s9.428-9.941,12.8-10.542C747.47,1172.026,742.194,1152.749,813.2,1150.426Z" transform="translate(-723.453 -1150.331)"/><path class="v" d="M713.378,1234.212s-11.678,8.637-12.489,24.068l2.119.19s3.73-15.956,10.471-22.2S713.378,1234.212,713.378,1234.212Z" transform="translate(-700.889 -1205.449)"/></g></g><g transform="translate(1121.718 1675.066)"><path class="w" d="M463.819,1015.817s21.95-12.293,11.707-28.975c0,0-8.2-10.243-16.975-12.878,0,0,4.683,24.877,0,25.463s-3.219-28.1-3.219-28.1-23.121-11.122-32.194-10.244c0,0,14.341,24.292,9.659,23.707s-20.78-25.17-20.78-25.17-23.707-4.39-27.511,9.658,2.342,21.072,5.853,21.95,26.048.585,25.463,3.512-15.8,7.61-24.292,4.976c0,0,9.366,23.121,21.658,21.95s16.1-8.78,23.707-9.366,13.17,1.464,9.365,3.513-16.682.671-22.829,5.9-11.122,8.444.292,10.786,31.9.878,36-7.9Z" transform="translate(-383.303 -958.974)"/><g transform="translate(12.029 14.698)"><path class="u" d="M419.537,1003.244s61.462,19.9,68.486,42.145a46.689,46.689,0,0,0,5.853,21.365v4.39s-6.439-14.926-9.951-16.975C483.925,1054.169,497.681,1034.853,419.537,1003.244Z" transform="translate(-419.537 -1003.244)"/><path class="u" d="M637.542,1189.044s9.478,14.393,4.075,31.914l-2.438-.655s2.367-19.3-2.592-29S637.542,1189.044,637.542,1189.044Z" transform="translate(-563.203 -1125.533)"/></g></g><g transform="translate(1218.133 1640.026)"><path class="x" d="M692.732,928.362s-28.935-16.2-15.432-38.194c0,0,10.8-13.5,22.376-16.975,0,0-6.173,32.793,0,33.565s4.244-37.037,4.244-37.037,30.479-14.66,42.438-13.5c0,0-18.9,32.022-12.731,31.25s27.392-33.178,27.392-33.178,31.249-5.787,36.265,12.731-3.086,27.778-7.716,28.935-34.336.772-33.565,4.629,20.833,10.031,32.021,6.559c0,0-12.345,30.478-28.549,28.935s-21.219-11.574-31.25-12.345-17.361,1.929-12.346,4.629,21.991.885,30.093,7.772,14.66,11.132-.386,14.218-42.052,1.157-47.453-10.417Z" transform="translate(-673.71 -853.433)"/><g transform="translate(3.74 19.374)"><path class="x" d="M805.759,911.789s-81.018,26.235-90.277,55.555c0,0,.386,13.117-7.716,28.163v5.787s8.487-19.676,13.117-22.377C720.883,978.918,702.75,953.455,805.759,911.789Z" transform="translate(-700.2 -911.789)"/><path class="x" d="M692.542,1156.708s-12.494,18.973-5.371,42.069l3.214-.864s-3.12-25.439,3.417-38.233S692.542,1156.708,692.542,1156.708Z" transform="translate(-684.976 -1072.989)"/></g></g><path class="w" d="M614.028,1327.484a56.679,56.679,0,0,0,56.68-56.678H557.35A56.678,56.678,0,0,0,614.028,1327.484Z" transform="translate(622.151 507.788)"/><path class="x" d="M641.874,1327.049a56.716,56.716,0,0,1-63.718-56.245h14.081A56.688,56.688,0,0,0,641.874,1327.049Z" transform="translate(608.253 507.789)"/><rect class="y" width="116.51" height="1.738" transform="translate(1177.638 1778.593)"/><path class="w" d="M672.3,1429.034H562.906a6.744,6.744,0,0,1,6.744-6.743h95.907a6.743,6.743,0,0,1,6.743,6.743Z" transform="translate(618.44 406.595)"/></g></g></svg>