<svg xmlns="http://www.w3.org/2000/svg" width="125" height="125" viewBox="0 0 125 125"><defs><style>.a{fill:#9cf4ed;opacity:0.4;}.b{fill:#fff;}.c{fill:#ffdbc3;}.d{fill:#fabd95;}.e{fill:#ffa30f;}.f{fill:#a7f5ef;}.g{fill:#3176bb;}.h{fill:#1c538b;}</style></defs><g transform="translate(-1371 -6711)"><rect class="a" width="125" height="125" rx="20" transform="translate(1371 6711)"/><path class="b" d="M-208.309,362.275V423.3a15.868,15.868,0,0,1-.864,5.178,15.876,15.876,0,0,1-12.845,10.534,15.956,15.956,0,0,1-2.148.145h-61.023a15.859,15.859,0,0,1-14.926-10.493,15.8,15.8,0,0,1-.931-5.364V362.275a15.857,15.857,0,0,1,15.857-15.857h61.023A15.859,15.859,0,0,1-208.309,362.275Z" transform="translate(1688.094 6379.485)"/><path class="c" d="M-214.565,454.054s-.309,9.552-1.532,13.832l-9.677,6.75,36.427,5.451-8.687-12s-2.623-12.808-1.247-17.547S-214.565,454.054-214.565,454.054Z" transform="translate(1640.012 6313.914)"/><path class="d" d="M-194.892,466.516s2.88,6.934,8.306,6.781,6.661-6.288,6.661-6.288Z" transform="translate(1620.285 6302.771)"/><path class="e" d="M-210.292,402.174s-1.752-8.748-2.975-11.4-2.242-14.469,11.31-15.08c0,0,5.2.612,8.05-1.121,0,0,0,1.732-.713,2.343a9.008,9.008,0,0,1,8.355,2.955c3.668,4.076-2.445,18.341-2.139,21.7Z" transform="translate(1632.447 6361.499)"/><path class="c" d="M-193.366,431.529c-3.932-.069-11.168-5.3-11.168-11.787V409.625c0-2.367,1.65-4.3,3.668-4.3h15c2.017,0,3.668,1.937,3.668,4.3v9.544C-182.2,425.967-188.858,431.608-193.366,431.529Z" transform="translate(1626.444 6341.86)"/><path class="e" d="M-205.419,410.975s.021-6.078,4.835-7.013,15.59,2.963,17.118-1.469-20.827-4.356-21.953-1.528S-205.419,410.975-205.419,410.975Z" transform="translate(1627.329 6345.912)"/><path class="f" d="M-230.52,504.047c-.006,0-.009-.006-.014-.006a6.6,6.6,0,0,0-1.552-.42v.017a96.019,96.019,0,0,0-11.2-2.137c-.4-.052-.791-.1-1.18-.145a17.368,17.368,0,0,1-6.312,5.633c-.447.223-.9.426-1.357.621-.4.168-.808.334-1.229.5a7.579,7.579,0,0,1-1.549-.389c-.29-.1-.574-.223-.855-.357a18.9,18.9,0,0,1-6.762-6.207c-.539.055-1.064.116-1.568.18a53.042,53.042,0,0,0-8.982,1.829h-.006c-.281.035-10.2,1.4-25.379,24.338A15.859,15.859,0,0,0-283.544,538h61.023a15.966,15.966,0,0,0,2.148-.145,15.876,15.876,0,0,0,12.845-10.534C-219.027,509.872-227.25,505.256-230.52,504.047Z" transform="translate(1686.447 6280.644)"/><path class="g" d="M-201.252,494.709a3.867,3.867,0,0,0-2.076,2.507s6.488,6.674,10.733,6.776Z" transform="translate(1625.674 6284.762)"/><path class="g" d="M-173.615,503.395l8.374-9.621a3.929,3.929,0,0,1,1.7,3.01S-170.015,503.649-173.615,503.395Z" transform="translate(1606.694 6285.359)"/><path class="g" d="M-178.042,548.959h-8.368c.986-11.235,2.189-22.349,2.766-27.548.119-1.056.209-1.867.27-2.386.009-.087.017-.165.026-.235.006-.038.009-.076.012-.107.026-.209.038-.319.038-.319l.838-.014,1.319-.023h0l.56-.008s.009.087.02.255c.009.09.018.206.032.348.009.107.018.232.029.368.052.615.128,1.5.22,2.624C-179.823,527.34-178.921,538.149-178.042,548.959Z" transform="translate(1614.867 6269.682)"/><path class="h" d="M-183.345,510.559a40.256,40.256,0,0,1,6.215-.149.651.651,0,0,1,.5.968c-.659,1.186-2,3.244-3.41,3.244C-182.018,514.621-185.1,510.7-183.345,510.559Z" transform="translate(1613.242 6274.782)"/></g></svg>