<svg xmlns="http://www.w3.org/2000/svg" width="74.25" height="78.922" viewBox="0 0 74.25 78.922"><defs><style>.a{fill:#fff;}.b{fill:#3176bb;stroke:#3176bb;stroke-width:0.5px;}</style></defs><g transform="translate(-817 -6474.078)"><circle class="a" cx="35" cy="35" r="35" transform="translate(817 6483)"/><g transform="translate(-3709.808 6541.531)"><path class="b" d="M4562.613-26.817a7.281,7.281,0,0,0-7.273,7.274,7.285,7.285,0,0,0,7.273,7.281,7.288,7.288,0,0,0,7.279-7.281,7.284,7.284,0,0,0-7.279-7.274Zm0,15.62a8.352,8.352,0,0,1-8.338-8.346,8.349,8.349,0,0,1,8.338-8.34,8.352,8.352,0,0,1,8.344,8.34,8.355,8.355,0,0,1-8.344,8.346ZM4561.549,1.2h2.134l.817-5.429a.528.528,0,0,1,.447-.447,14.6,14.6,0,0,0,3.087-.821.536.536,0,0,1,.609.164l3.416,4.289,1.848-1.064L4571.9-7.224a.532.532,0,0,1,.16-.608,15.168,15.168,0,0,0,2.262-2.261.534.534,0,0,1,.609-.162l5.112,2,1.064-1.847-4.289-3.416a.537.537,0,0,1-.166-.608,15.328,15.328,0,0,0,.831-3.092.532.532,0,0,1,.446-.444l5.42-.816v-2.136l-5.42-.817a.533.533,0,0,1-.447-.444,15.349,15.349,0,0,0-.831-3.092.532.532,0,0,1,.166-.605l4.29-3.423-1.064-1.849-5.112,2.011a.525.525,0,0,1-.611-.162,14.517,14.517,0,0,0-2.258-2.258.527.527,0,0,1-.163-.608l2.005-5.116-1.848-1.068-3.416,4.3a.533.533,0,0,1-.609.164,14.873,14.873,0,0,0-3.09-.83.531.531,0,0,1-.443-.446l-.817-5.43h-2.134l-.817,5.43a.532.532,0,0,1-.444.446,14.913,14.913,0,0,0-3.09.83.531.531,0,0,1-.61-.163l-3.42-4.3-1.85,1.069,2.011,5.115a.534.534,0,0,1-.164.612,14.268,14.268,0,0,0-2.255,2.256.525.525,0,0,1-.611.162l-5.115-2.011-1.069,1.849,4.3,3.422a.53.53,0,0,1,.164.608,15.011,15.011,0,0,0-.829,3.09.531.531,0,0,1-.447.443l-5.428.811v2.142l5.428.816a.531.531,0,0,1,.446.444,15.048,15.048,0,0,0,.829,3.089.532.532,0,0,1-.165.611l-4.295,3.416,1.069,1.847,5.115-2.005a.535.535,0,0,1,.609.162,14.733,14.733,0,0,0,2.258,2.259.535.535,0,0,1,.161.61l-2.01,5.112,1.848,1.065,3.422-4.29a.531.531,0,0,1,.609-.164,14.552,14.552,0,0,0,3.085.821.532.532,0,0,1,.448.447l.817,5.429Zm2.592,1.065h-3.051a.53.53,0,0,1-.525-.453l-.828-5.5a15.6,15.6,0,0,1-2.557-.68l-3.466,4.345a.532.532,0,0,1-.681.131l-2.643-1.522a.534.534,0,0,1-.229-.658l2.037-5.179a15.768,15.768,0,0,1-1.866-1.868l-5.183,2.031a.529.529,0,0,1-.655-.228l-1.528-2.642a.532.532,0,0,1,.129-.683l4.352-3.461a16.084,16.084,0,0,1-.684-2.555l-5.5-.828a.531.531,0,0,1-.454-.525v-3.06a.531.531,0,0,1,.454-.526l5.5-.821a16.059,16.059,0,0,1,.684-2.554l-4.353-3.468a.531.531,0,0,1-.128-.682l1.528-2.642a.53.53,0,0,1,.656-.23l5.18,2.039a15.347,15.347,0,0,1,1.868-1.87l-2.036-5.18a.532.532,0,0,1,.228-.656l2.644-1.527a.533.533,0,0,1,.683.129l3.465,4.353a15.794,15.794,0,0,1,2.557-.686l.828-5.5a.531.531,0,0,1,.525-.454h3.051a.533.533,0,0,1,.527.454l.827,5.5a15.712,15.712,0,0,1,2.556.686l3.46-4.352a.528.528,0,0,1,.683-.129l2.642,1.527a.532.532,0,0,1,.229.655l-2.032,5.182a15.614,15.614,0,0,1,1.871,1.869L4580.083-32a.53.53,0,0,1,.656.231l1.521,2.642a.532.532,0,0,1-.129.681l-4.346,3.47a16.441,16.441,0,0,1,.687,2.552l5.492.828a.534.534,0,0,1,.454.527v3.053a.532.532,0,0,1-.454.525l-5.493.828a16.5,16.5,0,0,1-.686,2.554l4.346,3.461a.533.533,0,0,1,.129.682l-1.521,2.641a.533.533,0,0,1-.655.23l-5.18-2.031a16.213,16.213,0,0,1-1.871,1.868l2.033,5.181a.533.533,0,0,1-.23.656L4572.193.105a.533.533,0,0,1-.682-.131l-3.46-4.345a15.586,15.586,0,0,1-2.556.68l-.827,5.5a.533.533,0,0,1-.527.453Z" transform="translate(0 -4.682)"/><path class="b" d="M4567.141-29.668a.272.272,0,0,0-.266.264.269.269,0,0,0,.266.266.263.263,0,0,0,.266-.266.268.268,0,0,0-.266-.264Zm0,1.6a1.333,1.333,0,0,1-1.331-1.332,1.331,1.331,0,0,1,1.331-1.329,1.332,1.332,0,0,1,1.331,1.329,1.334,1.334,0,0,1-1.331,1.332Z" transform="translate(-4.528 -6.605)"/><path class="b" d="M4574.333-27.734a.257.257,0,0,0-.225.129.265.265,0,0,0-.027.206.258.258,0,0,0,.121.161.277.277,0,0,0,.366-.1.257.257,0,0,0,.026-.2.258.258,0,0,0-.121-.156.276.276,0,0,0-.141-.04Zm0,1.6a1.327,1.327,0,0,1-.663-.178,1.318,1.318,0,0,1-.619-.813,1.322,1.322,0,0,1,.137-1.009,1.36,1.36,0,0,1,1.814-.479,1.3,1.3,0,0,1,.62.8,1.312,1.312,0,0,1-.133,1.013,1.34,1.34,0,0,1-1.157.666Z" transform="translate(-5.831 -6.957)"/><path class="b" d="M4579.607-22.469a.255.255,0,0,0-.137.038.252.252,0,0,0-.12.155.263.263,0,0,0,.025.2.248.248,0,0,0,.357.1.272.272,0,0,0,.128-.167.257.257,0,0,0-.025-.2.259.259,0,0,0-.229-.133Zm0,1.6a1.321,1.321,0,0,1-1.152-.675,1.315,1.315,0,0,1-.129-1.006,1.311,1.311,0,0,1,.616-.8,1.37,1.37,0,0,1,1.818.486,1.317,1.317,0,0,1,.134,1,1.335,1.335,0,0,1-.624.814,1.321,1.321,0,0,1-.663.18Z" transform="translate(-6.786 -7.911)"/><path class="b" d="M4581.529-15.279a.263.263,0,0,0-.266.264.267.267,0,0,0,.266.267.265.265,0,0,0,.267-.267.263.263,0,0,0-.267-.264Zm0,1.6a1.332,1.332,0,0,1-1.33-1.331,1.332,1.332,0,0,1,1.33-1.331,1.332,1.332,0,0,1,1.331,1.331,1.332,1.332,0,0,1-1.331,1.331Z" transform="translate(-7.134 -9.211)"/><path class="b" d="M4579.6-8.08a.246.246,0,0,0-.219.124.274.274,0,0,0,.093.372.27.27,0,0,0,.362-.1.259.259,0,0,0,.027-.2.259.259,0,0,0-.122-.156.275.275,0,0,0-.141-.04Zm0,1.6a1.318,1.318,0,0,1-.666-.18,1.335,1.335,0,0,1-.482-1.818,1.357,1.357,0,0,1,1.813-.482,1.3,1.3,0,0,1,.621.8,1.311,1.311,0,0,1-.132,1.014,1.336,1.336,0,0,1-1.155.667Z" transform="translate(-6.785 -10.517)"/><path class="b" d="M4574.338-2.815a.26.26,0,0,0-.136.038.259.259,0,0,0-.094.357.264.264,0,0,0,.358.1.275.275,0,0,0,.129-.168.264.264,0,0,0-.026-.2.264.264,0,0,0-.231-.133Zm0,1.6a1.334,1.334,0,0,1-1.151-.667,1.329,1.329,0,0,1,.479-1.814,1.366,1.366,0,0,1,1.822.482,1.316,1.316,0,0,1,.134,1A1.329,1.329,0,0,1,4575-1.4a1.312,1.312,0,0,1-.662.179Z" transform="translate(-5.832 -11.47)"/><path class="b" d="M4567.141-.89a.272.272,0,0,0-.266.265.269.269,0,0,0,.266.267.263.263,0,0,0,.266-.267.268.268,0,0,0-.266-.265Zm0,1.6a1.332,1.332,0,0,1-1.331-1.332,1.332,1.332,0,0,1,1.331-1.329,1.333,1.333,0,0,1,1.331,1.329,1.333,1.333,0,0,1-1.331,1.332Z" transform="translate(-4.528 -11.817)"/><path class="b" d="M4559.946-2.815a.259.259,0,0,0-.226.132.27.27,0,0,0-.028.206.254.254,0,0,0,.122.16.276.276,0,0,0,.367-.1.25.25,0,0,0,.027-.193.267.267,0,0,0-.129-.165.257.257,0,0,0-.132-.038Zm0,1.6a1.327,1.327,0,0,1-.665-.179,1.311,1.311,0,0,1-.616-.807,1.325,1.325,0,0,1,.137-1.015,1.356,1.356,0,0,1,1.814-.48,1.327,1.327,0,0,1,.622.812,1.316,1.316,0,0,1-.135,1,1.339,1.339,0,0,1-1.156.665Z" transform="translate(-3.226 -11.47)"/><path class="b" d="M4554.685-8.079a.263.263,0,0,0-.134.036.253.253,0,0,0-.125.155.26.26,0,0,0,.028.2.261.261,0,0,0,.359.1.267.267,0,0,0,.1-.366.258.258,0,0,0-.228-.13Zm0,1.6a1.337,1.337,0,0,1-1.152-.667,1.32,1.32,0,0,1-.134-1.018,1.308,1.308,0,0,1,.622-.8,1.38,1.38,0,0,1,1.814.487,1.334,1.334,0,0,1-.488,1.82,1.313,1.313,0,0,1-.661.179Z" transform="translate(-2.271 -10.518)"/><path class="b" d="M4552.751-15.279a.268.268,0,0,0-.265.264.269.269,0,0,0,.265.267.264.264,0,0,0,.267-.267.262.262,0,0,0-.267-.264Zm0,1.6a1.333,1.333,0,0,1-1.33-1.331,1.333,1.333,0,0,1,1.33-1.331,1.332,1.332,0,0,1,1.332,1.331,1.332,1.332,0,0,1-1.332,1.331Z" transform="translate(-1.922 -9.211)"/><path class="b" d="M4554.68-22.469a.257.257,0,0,0-.226.133.265.265,0,0,0-.028.2.257.257,0,0,0,.124.161.265.265,0,0,0,.362-.1.261.261,0,0,0,.026-.2.253.253,0,0,0-.12-.156.269.269,0,0,0-.139-.038Zm0,1.6a1.325,1.325,0,0,1-.665-.181,1.32,1.32,0,0,1-.617-.808,1.324,1.324,0,0,1,.137-1.011,1.362,1.362,0,0,1,1.813-.482,1.3,1.3,0,0,1,.619.8,1.315,1.315,0,0,1-.131,1.013,1.336,1.336,0,0,1-1.156.669Z" transform="translate(-2.271 -7.911)"/><path class="b" d="M4559.951-27.734a.27.27,0,0,0-.137.037.242.242,0,0,0-.121.152.257.257,0,0,0,.026.2.265.265,0,0,0,.358.1.276.276,0,0,0,.129-.168.262.262,0,0,0-.026-.2.263.263,0,0,0-.23-.129Zm0,1.6a1.333,1.333,0,0,1-1.152-.668,1.319,1.319,0,0,1-.134-1.019,1.3,1.3,0,0,1,.623-.8,1.381,1.381,0,0,1,1.814.485,1.325,1.325,0,0,1,.134,1.009,1.331,1.331,0,0,1-.625.813,1.308,1.308,0,0,1-.66.178Z" transform="translate(-3.225 -6.958)"/><path class="b" d="M4593.268-57.339a4.575,4.575,0,0,0-4.569,4.571,4.573,4.573,0,0,0,4.569,4.565,4.574,4.574,0,0,0,4.57-4.565,4.576,4.576,0,0,0-4.57-4.571Zm0,10.2a5.639,5.639,0,0,1-5.635-5.631,5.641,5.641,0,0,1,5.635-5.636,5.641,5.641,0,0,1,5.636,5.636,5.64,5.64,0,0,1-5.636,5.631Zm-.542,7.733h1.084l.507-3.389a.533.533,0,0,1,.443-.446,9.972,9.972,0,0,0,1.985-.53.535.535,0,0,1,.606.165l2.137,2.681.93-.539-1.254-3.189a.533.533,0,0,1,.16-.609,10.106,10.106,0,0,0,1.451-1.454.533.533,0,0,1,.606-.158l3.19,1.25.539-.931-2.678-2.134a.532.532,0,0,1-.164-.612,9.468,9.468,0,0,0,.534-1.982.532.532,0,0,1,.446-.443l3.383-.509v-1.074l-3.383-.509a.532.532,0,0,1-.446-.443,9.38,9.38,0,0,0-.534-1.981.532.532,0,0,1,.164-.612l2.678-2.135-.538-.931-3.191,1.255a.536.536,0,0,1-.607-.161,10,10,0,0,0-1.45-1.457.531.531,0,0,1-.16-.608l1.254-3.189-.93-.539-2.137,2.679a.537.537,0,0,1-.606.165,10.029,10.029,0,0,0-1.985-.53.531.531,0,0,1-.443-.446l-.507-3.389h-1.084l-.508,3.389a.531.531,0,0,1-.443.446,9.993,9.993,0,0,0-1.984.53.539.539,0,0,1-.606-.165l-2.129-2.679-.937.54,1.254,3.189a.529.529,0,0,1-.16.608,9.961,9.961,0,0,0-1.451,1.457.537.537,0,0,1-.607.161l-3.194-1.255-.536.931,2.678,2.136a.531.531,0,0,1,.164.61,9.42,9.42,0,0,0-.532,1.982.533.533,0,0,1-.446.443l-3.382.509v1.074l3.382.509a.533.533,0,0,1,.446.443,9.5,9.5,0,0,0,.532,1.983.529.529,0,0,1-.164.608l-2.678,2.136.537.935,3.194-1.254a.533.533,0,0,1,.606.16,10.108,10.108,0,0,0,1.452,1.453.531.531,0,0,1,.16.609l-1.254,3.188.938.54,2.129-2.68a.537.537,0,0,1,.605-.165,9.992,9.992,0,0,0,1.985.53.533.533,0,0,1,.443.446l.508,3.389Zm1.542,1.066h-2a.533.533,0,0,1-.526-.454l-.52-3.465a10.919,10.919,0,0,1-1.442-.385L4587.6-39.9a.532.532,0,0,1-.683.129l-1.731-1a.532.532,0,0,1-.229-.656l1.282-3.259a11.437,11.437,0,0,1-1.054-1.056l-3.266,1.282a.531.531,0,0,1-.656-.231l-.993-1.729a.532.532,0,0,1,.129-.681l2.736-2.18a10.742,10.742,0,0,1-.388-1.448l-3.457-.52a.532.532,0,0,1-.454-.526v-1.992a.532.532,0,0,1,.454-.527l3.457-.52a10.6,10.6,0,0,1,.387-1.447L4580.4-58.44a.533.533,0,0,1-.129-.681l.993-1.724a.533.533,0,0,1,.656-.232l3.266,1.282a10.768,10.768,0,0,1,1.055-1.06l-1.282-3.259a.532.532,0,0,1,.229-.656l1.731-1a.533.533,0,0,1,.683.13l2.177,2.739a10.62,10.62,0,0,1,1.442-.385l.52-3.464a.533.533,0,0,1,.526-.454h2a.533.533,0,0,1,.526.454l.519,3.464a10.647,10.647,0,0,1,1.444.385l2.185-2.741a.534.534,0,0,1,.683-.128l1.723,1a.531.531,0,0,1,.228.655l-1.282,3.259a10.876,10.876,0,0,1,1.055,1.06l3.26-1.282a.535.535,0,0,1,.655.23l1,1.725a.532.532,0,0,1-.129.683L4603.4-56.26a10.446,10.446,0,0,1,.389,1.448l3.457.52a.532.532,0,0,1,.453.527v1.992a.532.532,0,0,1-.453.526l-3.458.52a10.3,10.3,0,0,1-.389,1.448l2.737,2.18a.532.532,0,0,1,.129.683l-1,1.723a.533.533,0,0,1-.655.229l-3.261-1.277a11.057,11.057,0,0,1-1.053,1.057l1.282,3.259a.532.532,0,0,1-.228.655l-1.723,1a.533.533,0,0,1-.683-.129l-2.185-2.74a11.008,11.008,0,0,1-1.444.385l-.519,3.465a.533.533,0,0,1-.526.454Z" transform="translate(-6.888)"/></g></g></svg>