<svg xmlns="http://www.w3.org/2000/svg" width="125" height="125" viewBox="0 0 125 125"><defs><style>.a{fill:#9cf4ed;opacity:0.4;}.b{fill:#fff;}.c{fill:#001a3a;}.d{fill:#b56f40;}.e{fill:#99592e;}.f{fill:#02a09e;}.g{fill:#2c3a64;}</style></defs><g transform="translate(-1042 -6720)"><rect class="a" width="125" height="125" rx="20" transform="translate(1042 6720)"/><path class="b" d="M-208.309,362.275V423.3a15.868,15.868,0,0,1-.864,5.178,15.876,15.876,0,0,1-12.845,10.534,15.956,15.956,0,0,1-2.148.145h-61.023a15.859,15.859,0,0,1-14.926-10.493,15.8,15.8,0,0,1-.931-5.364V362.275a15.857,15.857,0,0,1,15.857-15.857h61.023A15.859,15.859,0,0,1-208.309,362.275Z" transform="translate(1359.094 6388.485)"/><g transform="translate(-123.893 6422.655)"><path class="c" d="M1264.241,395.9s-10.51-.527-10.806-6.592-8.976-10.489-6.462-15.358c3.083-5.972.271-11.713,4.163-15.728,4.289-4.424,9.708-2.021,12.567-4.6s8.086-4.953,13.243-1.769,9.091,1.47,12.48,4.537c3.744,3.388,2.325,7.653,5.413,9.969,2.83,2.123,1.676,7.924-.708,12.636-1.719,3.4,2.242,6.581-4.557,10.484-2.83,1.625-2.216,5.714-10.809,6.419C1274.9,396.222,1266.5,394.409,1264.241,395.9Z" transform="translate(-42.919 -24.49)"/><path class="d" d="M1275.364,448.415s-.29,8.962-1.437,12.977l-9.079,6.333,34.175,5.114-8.15-11.261s-2.461-12.016-1.17-16.461S1275.364,448.415,1275.364,448.415Z" transform="translate(-53.349 -84.564)"/><path class="e" d="M1294.173,460.305s2.7,6.505,7.793,6.362,6.249-5.9,6.249-5.9Z" transform="translate(-72.208 -95.217)"/><path class="d" d="M1295.494,426.782c-3.688-.065-10.477-4.976-10.477-11.059v-9.49c0-2.221,1.548-4.038,3.442-4.038h14.072c1.893,0,3.441,1.817,3.441,4.038v8.954C1305.971,421.565,1299.724,426.857,1295.494,426.782Z" transform="translate(-66.32 -57.846)"/><path class="f" d="M1258.867,495.67h-.005a92.455,92.455,0,0,0-11.617-2.284c-3.174,4.211-5.448,5.335-8.35,6.481-4.664-.645-8.6-6.536-8.6-6.667a48.152,48.152,0,0,0-9.9,2.03.055.055,0,0,0-.014,0c-.41.052-9.494,1.461-23.375,22.189a15.753,15.753,0,0,0,10.436,3.928h54.506c0-.049-.005-.1-.008-.143h6.427a15.8,15.8,0,0,0,12.089-5.609C1270.7,498.848,1258.867,495.67,1258.867,495.67Z" transform="translate(-9.721 -116.37)"/><path class="g" d="M1305.848,425.569a2.7,2.7,0,0,0-2.12-.9h-4.451a1.966,1.966,0,0,0-1.759.722,1.581,1.581,0,0,0-.249.736v0a4.151,4.151,0,0,0-1.979.035h0v0a1.616,1.616,0,0,0-.255-.771,1.958,1.958,0,0,0-1.756-.722h-4.455a2.687,2.687,0,0,0-2.116.9,2.268,2.268,0,0,0-.416,1.957c.507,2.518,3.4,2.839,4.853,2.839.447,0,.753-.031.811-.037,1.355,0,2.309-.776,3-2.432a4.339,4.339,0,0,0,.338-1.366h0a3.833,3.833,0,0,1,1.962-.04h0a4.321,4.321,0,0,0,.338,1.406c.693,1.656,1.647,2.429,3,2.432.057.006.367.037.814.037,1.447,0,4.346-.321,4.852-2.836A2.289,2.289,0,0,0,1305.848,425.569Zm-10.854,1.052a4.392,4.392,0,0,1-.307,1.163c-.642,1.535-1.512,2.252-2.739,2.252h-.02a8.648,8.648,0,0,1-2.47-.115c-1.653-.335-2.621-1.16-2.882-2.452a1.987,1.987,0,0,1,.355-1.713,2.406,2.406,0,0,1,1.89-.794h4.455a1.694,1.694,0,0,1,1.513.593,1.367,1.367,0,0,1,.209.691v0a3.84,3.84,0,0,0-.391.145.175.175,0,1,0,.146.319s.093-.041.239-.091Zm10.983.848c-.261,1.292-1.232,2.117-2.885,2.452a8.648,8.648,0,0,1-2.47.115h-.017c-1.227,0-2.1-.716-2.739-2.252a4.149,4.149,0,0,1-.309-1.192v0c.085.035.17.073.254.117a.175.175,0,1,0,.164-.309,3.058,3.058,0,0,0-.418-.179v0a1.34,1.34,0,0,1,.206-.659,1.692,1.692,0,0,1,1.513-.593h4.451a2.409,2.409,0,0,1,1.894.794A2,2,0,0,1,1305.977,427.469Z" transform="translate(-67.1 -72.299)"/><path class="c" d="M1219.13,349.893s12.47,1.35,15.826-5.147-1.411-10.151-1.411-10.151l-14.415,4.963-5.849,10.334Z" transform="translate(0 -1)"/><path class="c" d="M1242.4,350.846s-9.084-3.606-7.591-6.458,6.612-4.683,6.612-4.683l3.592,7.985Z" transform="translate(0 -1)"/></g></g></svg>