<svg xmlns="http://www.w3.org/2000/svg" width="125" height="125" viewBox="0 0 125 125"><defs><style>.a{fill:#9cf4ed;opacity:0.4;}.b{fill:#fff;}.c{fill:#02a09e;}</style></defs><g transform="translate(-813 -6639)"><rect class="a" width="125" height="125" rx="20" transform="translate(813 6639)"/><path class="b" d="M-208.309,362.275V423.3a15.868,15.868,0,0,1-.864,5.178,15.876,15.876,0,0,1-12.845,10.534,15.956,15.956,0,0,1-2.148.145h-61.023a15.859,15.859,0,0,1-14.926-10.493,15.8,15.8,0,0,1-.931-5.364V362.275a15.857,15.857,0,0,1,15.857-15.857h61.023A15.859,15.859,0,0,1-208.309,362.275Z" transform="translate(1130.094 6307.485)"/><g transform="translate(850.221 6678.029)"><ellipse class="c" cx="3.75" cy="3.75" rx="3.75" ry="3.75" transform="translate(17.758 31.478)"/><path class="c" d="M348.278,291.187a22.44,22.44,0,0,0-.116-2.284,22.986,22.986,0,1,0,.056,3.895c0-.04.007-.079.009-.118.031-.482.051-.968.051-1.458v-.02A.117.117,0,0,1,348.278,291.187Zm-45.191.035a22.244,22.244,0,0,1,19.349-22.051,9.949,9.949,0,0,1,6.135,1.54,13.445,13.445,0,0,1,5.986,9.933h-1.04c-2.358-6.086-7.888-8.071-11.477-8.715a10.317,10.317,0,0,0-9.735,3.61,7.662,7.662,0,0,0-1.526,5.182c.764,5.742,7.187,7.946,7.187,7.946l6.884,3.162c10.853,4.524,13.039,10.624,12.823,15.18-.046.556-.517,3.494-5.136,5.248a22.221,22.221,0,0,1-29.449-21.036Zm24.558-11.965a3.75,3.75,0,1,1-3.75-3.751A3.75,3.75,0,0,1,327.646,279.257Z" transform="translate(-302.388 -268.276)"/></g></g></svg>