<svg xmlns="http://www.w3.org/2000/svg" width="70" height="70" viewBox="0 0 70 70"><defs><style>.a{fill:#e8fffd;}.b{fill:#3176bb;}</style></defs><g transform="translate(-1150.616 -5558)"><circle class="a" cx="35" cy="35" r="35" transform="translate(1150.616 5558)"/><g transform="translate(-6893.393 3684.326)"><g transform="translate(8061.139 1886.378)"><path class="b" d="M8223.623,2074.132a1.029,1.029,0,0,0,1.029-1.028v-7.624a.745.745,0,0,1,.744-.745h4.729a.745.745,0,0,1,.745.745v7.624a1.028,1.028,0,0,0,2.057,0v-7.624a2.8,2.8,0,0,0-2.8-2.8H8225.4a2.8,2.8,0,0,0-2.8,2.8v7.624A1.028,1.028,0,0,0,8223.623,2074.132Z" transform="translate(-8222.596 -2048.492)"/><path class="b" d="M8379.719,1979.568a1.028,1.028,0,0,0,1.028-1.028v-15.9a.747.747,0,0,1,.744-.745h3.547a.747.747,0,0,1,.746.745v15.9a1.028,1.028,0,0,0,2.057,0v-15.9a2.8,2.8,0,0,0-2.8-2.8h-3.547a2.8,2.8,0,0,0-2.8,2.8v15.9A1.028,1.028,0,0,0,8379.719,1979.568Z" transform="translate(-8366.13 -1953.929)"/><path class="b" d="M8537.485,1916.122a1.029,1.029,0,0,0,1.028-1.028V1889.18a.746.746,0,0,1,.745-.746h4.138a.747.747,0,0,1,.746.746v25.754a1.027,1.027,0,1,0,2.055,0V1889.18a2.8,2.8,0,0,0-2.8-2.8h-4.138a2.8,2.8,0,0,0-2.8,2.8v25.915A1.029,1.029,0,0,0,8537.485,1916.122Z" transform="translate(-8512.887 -1886.378)"/></g><g transform="translate(8047.009 1915.233)"><path class="b" d="M8057.382,2268.061a1.043,1.043,0,0,1-.841-1.66l3.243-4.425a3.374,3.374,0,0,1,2.626-1.4c11.2-.341,19.361-.778,20.307-1.087.834-.326,9.1-4.37,14.5-7.032-.754-1.6-2.18-1.672-3.75-.868l-9.824,4.237-12.4.338c-1.879.049-4.04-.124-4.266-2.463a1.939,1.939,0,0,1,1.873-2.136l10.79-.342c2.513-.077,2.328-4.131-.121-4.056-.048,0-5.347.185-9.947.565-1.747.148-3.93-.306-6.895-.664a7.277,7.277,0,0,0-6.459,3.189l-.071.109-7.257,9.9a1.042,1.042,0,1,1-1.681-1.233l7.225-9.86a9.332,9.332,0,0,1,8.494-4.18,42.312,42.312,0,0,0,6.471.656c4.3-.357,9.815-.573,10.171-.573,5.223,0,5.247,8.073.134,8.228l-10.614.336c.179.453.866.465,2.1.435l11.993-.328,9.393-4.049c2.628-1.349,5.308-.766,6.546,1.915a2.029,2.029,0,0,1-.9,2.666c-1.4.688-13.554,6.681-14.761,7.153-1.34.525-12.155.956-20.991,1.225a1.3,1.3,0,0,0-1.007.549l-3.243,4.425A1.04,1.04,0,0,1,8057.382,2268.061Z" transform="translate(-8047.009 -2244.948)"/></g></g></g></svg>