<svg xmlns="http://www.w3.org/2000/svg" width="70" height="70" viewBox="0 0 70 70"><defs><style>.a{fill:#e8fffd;}.b{fill:#3176bb;}</style></defs><g transform="translate(-1149.616 -5944)"><circle class="a" cx="35" cy="35" r="35" transform="translate(1149.616 5944)"/><g transform="translate(-4570.292 3996.088)"><path class="b" d="M5856.59,1979.329c0-5.277-.013-17.6.025-18.05.062-.835.519-2.787,3.377-2.787h.019a3.348,3.348,0,0,1,1.57.37,4.174,4.174,0,0,1,1.363-1.427,3.709,3.709,0,0,1,5.079,1.738c2.043-.63,4.354.256,4.771,2.466v1.761a5.34,5.34,0,0,1,1.289-.151,2.792,2.792,0,0,1,2.334,1.523c.643,1.215.677,3.918.684,8.589,0,2.123.006,4.53.109,6.8.01.213,1.411,10.045-.325,13.48-.75,1.488-1.881,4.086-2.483,5.258a.566.566,0,0,0-.063.255l0,1.757a.992.992,0,0,1-.992.988h0a.991.991,0,0,1-.987-.994l.007-1.755a2.494,2.494,0,0,1,.281-1.149c.582-1.15,1.745-3.8,2.476-5.252,1.476-3.215.125-12.286.115-12.5-.106-2.316-.108-4.746-.111-6.89,0-3.2-.009-6.824-.453-7.663-.078-.734-1.443-1.088-1.872-.7v14.965a.992.992,0,0,1-1.983-.011v-18.035c-.3-1.237-2.222-1.081-2.687-.652v17.24a.991.991,0,0,1-1.982-.006V1960.38a1.327,1.327,0,0,0-2.071-.92c-.738.369-.82,1.629-.822,2.38v16.507a.99.99,0,0,1-1.98-.006v-16.507a1.183,1.183,0,0,0-1.263-1.36h-.017c-.946.031-1.385.531-1.416.96-.027.55-.006,11.508,0,17.894Z" transform="translate(-109.698)"/><path class="b" d="M5907.306,2582.138h0a.991.991,0,0,1-.987-.994l.006-1.925a2.161,2.161,0,0,0-1.168-.281h-20.218a.99.99,0,0,1,0-1.981h20.221c1.826.006,3.148.9,3.145,2.127l-.007,2.066A.99.99,0,0,1,5907.306,2582.138Z" transform="translate(-138.649 -573.441)"/><path class="b" d="M5754.332,2217.614a9.332,9.332,0,0,0-1.848-3.427c-1.071-1.256-3.9-1.623-5.62-1.1a.993.993,0,0,1-1.21-.595c-.009-.021-2.225-3.04-2.225-3.04-1.36-2.016-3.053-4.525-4.576-4.612a1.579,1.579,0,0,0-.86.193c-.206.128-.589.359-.121,1.542.123.25,1.156,1.863,2.067,3.285,2.061,3.216,3.669,5.749,4.052,6.635.669,1.543.932,2.606,1.5,3.623a32.775,32.775,0,0,0,4.475,5.29.993.993,0,0,1,.4.795l-.006,2.082a.992.992,0,0,1-.992.988h0a.99.99,0,0,1-.988-.994l.006-1.653a32.09,32.09,0,0,1-4.617-5.543c-.66-1.183-.956-2.336-1.589-3.8-.35-.809-2.4-4.013-3.9-6.35a40.9,40.9,0,0,1-2.242-3.628c-.932-2.358.136-3.467.872-3.922a3.577,3.577,0,0,1,2.056-.521c2.511.145,4.425,2.981,6.115,5.483l1.954,2.671c2.356-.433,5.486.155,6.966,1.891a21.7,21.7,0,0,1,2.275,4.272C5756.652,2218.459,5754.99,2219.264,5754.332,2217.614Z" transform="translate(0 -227.407)"/></g></g></svg>