<svg xmlns="http://www.w3.org/2000/svg" width="80.306" height="80.219" viewBox="0 0 80.306 80.219">
  <g id="Group_340" data-name="Group 340" transform="translate(-1358.85 -7387.781)">
    <g id="Group_311" data-name="Group 311" transform="translate(210.321 1448.781)">
      <circle id="Ellipse_38" data-name="Ellipse 38" cx="40.109" cy="40.109" r="40.109" transform="translate(1148.616 5939)" fill="#fff"/>
    </g>
    <path id="Path_537" data-name="Path 537" d="M-141.375,192.043l-5.748-2.654.346-.378a6.618,6.618,0,0,0,1.746-4.47v-4.453a6.028,6.028,0,0,0-6.022-6.02h-1.2a6.028,6.028,0,0,0-6.021,6.02v4.256a6.915,6.915,0,0,0,1.789,4.662l.344.379-5.8,2.66a5.4,5.4,0,0,0-3.111,4.881v3.594l.431.254A27.584,27.584,0,0,0-151.655,204a27.715,27.715,0,0,0,12.967-3.229l.43-.254v-3.594A5.406,5.406,0,0,0-141.375,192.043Zm-15.153-7.7v-1.289l.292-.066c2.533-.572,5.583-1.6,6.988-4.473l-1.614-.682c-1.04,2.028-3.2,2.815-5.2,3.314l-.465.117v-1.177a4.275,4.275,0,0,1,4.271-4.27h1.2a4.246,4.246,0,0,1,4.233,3.866l.059.626-.579-.245c-.117-.049-.236-.1-.359-.16l-.807,1.554a10.018,10.018,0,0,0,1.454.565l.271.079v2.438a4.827,4.827,0,0,1-1.542,3.556,4.86,4.86,0,0,1-3.354,1.316c-.1,0-.2,0-.3-.009A4.987,4.987,0,0,1-156.528,184.344Zm16.52,15.155-.208.1a26.637,26.637,0,0,1-11.439,2.65,26.764,26.764,0,0,1-11.438-2.651l-.209-.1v-2.572a3.643,3.643,0,0,1,2.1-3.293l6.762-3.1.155.07a6.358,6.358,0,0,0,2.2.551,6.468,6.468,0,0,0,3.112-.551l.156-.069,6.715,3.1a3.649,3.649,0,0,1,2.1,3.3Z" transform="translate(1550.143 7238.855)" fill="#3176bb"/>
    <g id="Group_335" data-name="Group 335">
      <g id="Group_330" data-name="Group 330" transform="translate(1371.424 7396.508)">
        <path id="Path_524" data-name="Path 524" d="M296.69,826.379a26.777,26.777,0,0,1,25.71-35.191" transform="translate(-295.333 -786.363)" fill="none" stroke="#3176bb" stroke-linecap="round" stroke-width="1.7"/>
        <path id="Path_525" data-name="Path 525" d="M314.513,787.373l4.7,4.811-4.907,4.794" transform="translate(-290.304 -787.373)" fill="none" stroke="#3176bb" stroke-linecap="round" stroke-linejoin="round" stroke-width="1.7"/>
      </g>
      <g id="Group_331" data-name="Group 331" transform="translate(1403.905 7401.631)">
        <path id="Path_526" data-name="Path 526" d="M321.008,791.423a26.777,26.777,0,0,1,17.37,39.973" transform="translate(-321.008 -791.423)" fill="none" stroke="#3176bb" stroke-linecap="round" stroke-width="1.7"/>
        <path id="Path_527" data-name="Path 527" d="M340.886,824.052l-6.527,1.624-1.656-6.657" transform="translate(-317.908 -784.107)" fill="none" stroke="#3176bb" stroke-linecap="round" stroke-linejoin="round" stroke-width="1.7"/>
      </g>
      <g id="Group_332" data-name="Group 332" transform="translate(1372.375 7439.397)">
        <path id="Path_528" data-name="Path 528" d="M341.57,827.939a26.776,26.776,0,0,1-43.247-5.4" transform="translate(-295.491 -820.939)" fill="none" stroke="#3176bb" stroke-linecap="round" stroke-width="1.7"/>
        <path id="Path_529" data-name="Path 529" d="M296.085,827.72l1.925-6.444,6.573,1.963" transform="translate(-296.085 -821.275)" fill="none" stroke="#3176bb" stroke-linecap="round" stroke-linejoin="round" stroke-width="1.7"/>
      </g>
      <path id="Path_532" data-name="Path 532" d="M321.644,795.192a27.216,27.216,0,0,1,3.287,1.684,26.636,26.636,0,0,1,8.993,8.891" transform="translate(1090.101 6605.112)" fill="none" stroke="#3176bb" stroke-linecap="round" stroke-width="1.7"/>
      <path id="Path_533" data-name="Path 533" d="M0,0A27.219,27.219,0,0,1,3.287,1.684a26.636,26.636,0,0,1,8.994,8.891" transform="translate(1369.15 7437.707) rotate(-135)" fill="none" stroke="#3176bb" stroke-linecap="round" stroke-width="1.7"/>
      <path id="Path_534" data-name="Path 534" d="M0,0A27.225,27.225,0,0,1,3.287,1.684a26.636,26.636,0,0,1,8.993,8.891" transform="translate(1413.121 7455.731) rotate(126)" fill="none" stroke="#3176bb" stroke-linecap="round" stroke-width="1.7"/>
    </g>
  </g>
</svg>
