<svg xmlns="http://www.w3.org/2000/svg" xmlns:xlink="http://www.w3.org/1999/xlink" width="125" height="125" viewBox="0 0 125 125"><defs><style>.a{fill:#fff;}.b{fill:#9cf4ed;opacity:0.4;}.c{clip-path:url(#a);}.d{fill:#001a3a;}.e{fill:#ffb27d;}.f{fill:#ffa30f;}.g{fill:#b5453c;}.h{fill:#5153a0;}.i{fill:#e8945b;}.j{fill:#ff6b0f;}.k{fill:#f48d00;}</style><clipPath id="a"><path class="a" d="M-208.309,362.275V423.3a15.868,15.868,0,0,1-.864,5.178,15.876,15.876,0,0,1-12.845,10.534,15.956,15.956,0,0,1-2.148.145h-61.023a15.859,15.859,0,0,1-14.926-10.493,15.8,15.8,0,0,1-.931-5.364V362.275a15.857,15.857,0,0,1,15.857-15.857h61.023A15.859,15.859,0,0,1-208.309,362.275Z" transform="translate(1688.094 6307.485)"/></clipPath></defs><g transform="translate(-1371 -6639)"><rect class="b" width="125" height="125" rx="20" transform="translate(1371 6639)"/><path class="a" d="M-208.309,362.275V423.3a15.868,15.868,0,0,1-.864,5.178,15.876,15.876,0,0,1-12.845,10.534,15.956,15.956,0,0,1-2.148.145h-61.023a15.859,15.859,0,0,1-14.926-10.493,15.8,15.8,0,0,1-.931-5.364V362.275a15.857,15.857,0,0,1,15.857-15.857h61.023A15.859,15.859,0,0,1-208.309,362.275Z" transform="translate(1688.094 6307.485)"/><g class="c"><g transform="translate(2650.571 5931.744)"><path class="d" d="M-1099.242,735.707s-6.987-1.819-13.808,4.466c-5.423,5-4.36,9.464-5.1,15.844-.483,4.141-7.654,10.626-5.315,16.638s9.227.793,13.747,3.376,15.574,1.9,20.827,0c4.849-1.751,7.521,1.77,13.488-3.546,4.519-4.026-6.564-14.442-6.274-17.956C-1081.149,748.089-1088.061,732.41-1099.242,735.707Z" transform="translate(-116.357)"/><path class="e" d="M-1083.586,929.426s-48.844,2.192-48.381,0,6.917-13.137,7.376-14.521-2.661-15.564-4.839-25.5a33.149,33.149,0,0,1,.08-11.5,89.422,89.422,0,0,1,3.873-15.23s4.147-1,10.007-2.731a4.427,4.427,0,0,0,3.155-3.962c.1-1.5.109-3.094.093-4.409-.016-1.669-.08-2.89-.08-2.89l12.694.284a20.07,20.07,0,0,0-.179,2.737,39.465,39.465,0,0,0,.392,5.225,3.514,3.514,0,0,0,2.632,2.941c4.536,1.148,6.32,2.3,11.239,4.591,0,0-.073.53-.2,1.5l.093-.073s.137,4.32.131,10.559c0,1.793-.019,3.739-.054,5.79-.137,8.3-5.155,28.912-6.134,32.861q-.043.4-.086.794C-1088.4,921.412-1083.586,929.426-1083.586,929.426Z" transform="translate(-110.609 -81.145)"/><path class="f" d="M-1124.583,943.217c.463-1.381-2.661-15.564-4.839-25.5a33.146,33.146,0,0,1,.08-11.5l13.88-17.96c.4,1.311,8.157,4.874,8.157,4.874l10.955-3.085,7.761,7.762,3.095,6.948c0,1.793-.019,3.739-.054,5.79-.137,8.3-5.155,28.912-6.135,32.861q-.043.4-.086.794c3.379,5.532,8.192,13.545,8.192,13.545h-48.381C-1131.5,955.55-1125.043,944.6-1124.583,943.217Z" transform="translate(-110.617 -109.458)"/><path class="g" d="M-1067.583,776.367s-5.381-.1-6.6,1.7-1.387,3.816-2,4.831a3.9,3.9,0,0,0-.511,2.153s-4.632-11.857,6.06-9.5C-1069.869,775.731-1067.583,776.367-1067.583,776.367Z" transform="translate(-149.437 -28.613)"/><path class="h" d="M-808.128,1034.5c-.057-.018-.116-.036-.176-.052A1.815,1.815,0,0,0-808.128,1034.5Z" transform="translate(-342.175 -214.053)"/><path class="i" d="M-1050.134,858.967s-2.505,5.81-6.624,5.464-5.811-5.594-5.811-5.594Z" transform="translate(-160.262 -88.415)"/><path class="d" d="M-1059.952,773.478a53.542,53.542,0,0,0,3.171-8.869c.861-3.405.026-16.318-12.956-15.4a17.5,17.5,0,0,0-7.437,2.215c-2.926,1.683-7.245,5.461-3.548,16.943l.9,3.854Z" transform="translate(-146.253 -9.947)"/><path class="e" d="M-1074.3,790.891c3.361,3.195,7.538,7.453,16.49-.471,1.751-1.55,2.366-4.721,2.458-8.133.111-4.039.335-5.719-.123-8.046-.544-2.783-3.626-7.917-8.572-8.333-9.078-.761-12.124,5.142-12.339,9.681C-1076.845,785.413-1077.716,787.641-1074.3,790.891Z" transform="translate(-150.056 -21.882)"/><path class="f" d="M-1008.252,887.993l2.909,20.5s2.252,4.043,5.7,9.384c2.442,3.778,5.479,8.206,8.748,12.312.585.738,1.178,1.466,1.777,2.176,4.938,5.864,9.526,8.617,13.927,9.3,9.636,1.5,25.4-12.387,25.4-12.387a3,3,0,0,0,1.077-2.81,18.28,18.28,0,0,0-1.313-3.066c-8.451,4.917-20.515,6.146-22.821,6.27-.8.044-3.3-1.925-6.337-7.688v0c-5.7-10.825-13.289-26.795-15.018-28.75a9.2,9.2,0,0,0-2.969-1.927A61.353,61.353,0,0,0-1008.252,887.993Z" transform="translate(-199.123 -109.275)"/><path class="f" d="M-1286.51,928.855s16.029,13.54,25.2,12.434a23.744,23.744,0,0,0,15.081-7.752c.41-.475.821-.956,1.226-1.445a179.067,179.067,0,0,0,15.855-23.425l.98-6.521,2.086-13.9a67.13,67.13,0,0,0-10,2.738,11.513,11.513,0,0,0-4.207,2.423c-1.918,2.169-19.608,35.756-21.841,35.756-2.146,0-12.627-3.068-22.262-5.592a4.849,4.849,0,0,0-2.116,2.833A14.156,14.156,0,0,0-1286.51,928.855Z" transform="translate(0 -109.455)"/><path class="j" d="M-1076.673,874.321s-4.153,1.712-5.476,4.636c0,0,2.612,6.965,7.4,8.88a13.428,13.428,0,0,1,3.084-4.679S-1076.68,877.394-1076.673,874.321Z" transform="translate(-146.253 -99.493)"/><path class="j" d="M-1045.317,883.158s8.072-4.561,7.8-8.837c0,0,5.146.975,6.25,4.693,0,0-3.469,7.706-10.965,9.407C-1042.233,888.421-1043.137,884.274-1045.317,883.158Z" transform="translate(-172.605 -99.493)"/><path class="j" d="M-1049.222,902.441a1.114,1.114,0,0,1,1.24-.971,1.113,1.113,0,0,1,.97,1.24,1.113,1.113,0,0,1-1.24.97A1.113,1.113,0,0,1-1049.222,902.441Z" transform="translate(-169.805 -118.911)"/><circle class="j" cx="1.063" cy="1.063" r="1.063" transform="translate(-1219.53 793.891)"/><circle class="j" cx="1.063" cy="1.063" r="1.063" transform="translate(-1219.73 805.353)"/><path class="k" d="M-1051.67,1068.249a1.063,1.063,0,0,1,1.063-1.063,1.063,1.063,0,0,1,1.063,1.063,1.063,1.063,0,0,1-1.063,1.063A1.063,1.063,0,0,1-1051.67,1068.249Z" transform="translate(-168.059 -237.478)"/><path class="d" d="M-1069.447,763.471s3.568,1.18,5.2,3.355c2.1,2.791,1.052,7.707,3.021,8.693a18.739,18.739,0,0,0,4.58,1.409s-1.2-13.517-5.557-15.106-12.229-4.035-16.482.538-3.569,15.006-3.569,15.006,2.009-.224,4.473-3.414S-1077.119,763.837-1069.447,763.471Z" transform="translate(-146.151 -17.508)"/></g></g></g></svg>