<svg xmlns="http://www.w3.org/2000/svg" xmlns:xlink="http://www.w3.org/1999/xlink" width="125" height="125" viewBox="0 0 125 125"><defs><style>.a{fill:#fff;}.b{fill:#9cf4ed;opacity:0.4;}.c{clip-path:url(#a);}.d{fill:#ffb27d;}.e{fill:#ed985f;}.f{fill:#3176bb;}.g{fill:#ed7d2b;}.h{fill:#99592e;}</style><clipPath id="a"><path class="a" d="M-208.309,362.275V423.3a15.868,15.868,0,0,1-.864,5.178,15.876,15.876,0,0,1-12.845,10.534,15.956,15.956,0,0,1-2.148.145h-61.023a15.859,15.859,0,0,1-14.926-10.493,15.8,15.8,0,0,1-.931-5.364V362.275a15.857,15.857,0,0,1,15.857-15.857h61.023A15.859,15.859,0,0,1-208.309,362.275Z" transform="translate(1211.094 6307.485)"/></clipPath></defs><g transform="translate(-813 -6639)"><g transform="translate(-229 -81)"><rect class="b" width="125" height="125" rx="20" transform="translate(1042 6720)"/><path class="a" d="M-208.309,362.275V423.3a15.868,15.868,0,0,1-.864,5.178,15.876,15.876,0,0,1-12.845,10.534,15.956,15.956,0,0,1-2.148.145h-61.023a15.859,15.859,0,0,1-14.926-10.493,15.8,15.8,0,0,1-.931-5.364V362.275a15.857,15.857,0,0,1,15.857-15.857h61.023A15.859,15.859,0,0,1-208.309,362.275Z" transform="translate(1359.094 6388.485)"/></g><g class="c" transform="translate(-81)"><g transform="translate(145.771 6317.483)"><path class="d" d="M858.031,427.237s-.36,11.141-1.785,16.132l-11.287,7.874,42.486,6.358-10.132-14s-3.058-14.938-1.454-20.464S858.031,427.237,858.031,427.237Z" transform="translate(-55.269 -44.538)"/><path class="e" d="M876.193,439.07s3.36,8.087,9.688,7.909,7.769-7.334,7.769-7.334Z" transform="translate(-73.493 -52.832)"/><path class="d" d="M892.49,382.2v11.132a13.154,13.154,0,0,1-1.15,5.292h0a16.9,16.9,0,0,1-5.7,6.878,10.964,10.964,0,0,1-6.172,2.246,11.955,11.955,0,0,1-5.866-2.212,16.56,16.56,0,0,1-6.587-8.115l-.017-.05-.042-.141A10.7,10.7,0,0,1,866.44,394V382.2c0-2.761,1.926-5.018,4.279-5.018h17.491C890.564,377.178,892.49,379.436,892.49,382.2Z" transform="translate(-67.803 -16.722)"/><path class="f" d="M836.486,477s-9.976-2.149-14.444-2.668c-3.944,5.237-6.774,6.643-10.376,8.071-5.8-.8-10.69-8.137-10.69-8.3a59.845,59.845,0,0,0-12.308,2.539h-.007c-.4.05-15.855,2.2-38.433,43.05a21.26,21.26,0,0,0,15.4,10.664c2.91-2.513,9.159-7.939,14.058-12.194-.054,1.373-.065,2.616-.034,3.7.084,2.925.177,5.826.242,8.732h61.6c-.12-1.474-.215-2.9-.285-4.256-.212-4.233-.408-8.1-.589-11.63,0-.031,0-.062-.008-.093s0-.073-.006-.112l.013.012c.893.774,1.955,1.7,3.113,2.7l.7.611.623.543c.289.247.582.5.874.758q.79.687,1.6,1.389c.246.215.5.431.742.646.131.115.262.227.4.343.15.131.3.262.454.4.111.1.227.193.339.292.266.228.527.459.789.685.216.189.427.374.643.559.177.153.358.307.535.462.646.566,1.281,1.116,1.9,1.651.246.212.488.424.731.631s.5.435.742.642c.169.15.339.3.509.442.077.066.15.131.223.192.257.223.5.443.746.647.25.219.492.431.723.631.1.085.193.166.285.247s.2.173.3.254q.364-.122.726-.265A21.308,21.308,0,0,0,871.229,514.5C850.082,478.093,836.486,477,836.486,477Z" transform="translate(0 -75.272)"/><path class="g" d="M828.374,590.526h-7.3c-.065-2.906-.158-5.807-.242-8.732-.031-1.085-.02-2.328.034-3.7.012-.308.023-.62.038-.939.07.115.2.312.366.589C822.359,579.52,825.337,584.48,828.374,590.526Z" transform="translate(-41.183 -135.395)"/><path class="h" d="M895.664,426.411v4.906a10.964,10.964,0,0,1-6.172,2.246,11.955,11.955,0,0,1-5.866-2.212v-4.94a5,5,0,0,1,4.981-4.981h2.075A5,5,0,0,1,895.664,426.411Z" transform="translate(-77.83 -42.54)"/><path class="g" d="M984.822,583.479q-.362.144-.727.265c-.1-.081-.2-.165-.3-.254s-.188-.161-.285-.247c-.231-.2-.473-.412-.723-.631-.243-.2-.489-.424-.747-.647-.073-.061-.147-.126-.223-.193-.17-.145-.339-.292-.509-.442-.242-.207-.492-.423-.742-.642s-.485-.419-.731-.631c-.616-.535-1.251-1.085-1.9-1.651-.177-.154-.358-.308-.535-.462-.215-.185-.427-.369-.643-.559-.261-.227-.523-.457-.789-.685-.112-.1-.227-.2-.339-.292-.15-.134-.3-.265-.454-.4-.134-.116-.265-.227-.4-.343-.246-.216-.5-.431-.742-.646q-.809-.7-1.6-1.389c-.292-.258-.585-.512-.874-.758l-.623-.543-.7-.612c-1.158-1-2.221-1.928-3.113-2.7-.023-.019-.042-.035-.061-.054,0,0,.019-.016.054-.039.585-.412,5.911-3.929,9.274,2.016A140.523,140.523,0,0,0,984.822,583.479Z" transform="translate(-126.513 -129.776)"/><path class="h" d="M892.056,426.7c-2.353,5.359-7.845,9.194-11.871,9.124-3.869-.071-10.481-4.429-12.453-10.327l-.017-.05-.042-.141s4.155,3.545,6.9,1.789H886.12A5.7,5.7,0,0,0,892.056,426.7Z" transform="translate(-68.523 -44.802)"/><path class="d" d="M895.76,429.042h-2.49c-.571,0-1.3-.934-1.3-1.505a2.739,2.739,0,0,1,1.3-.57h2.49a2.084,2.084,0,0,1,1.54.812A1.712,1.712,0,0,1,895.76,429.042Z" transform="translate(-82.7 -45.771)"/><path class="h" d="M861.9,366.541a4.887,4.887,0,0,1,5.482-1.706c3.579,1.1,3.946,4.158,10.059,3.669s7.582-3.383,8.683-1.936,1.739,9.995,1.739,9.995,12.294-28.031-12.626-28.031c0,0-25.678-1.551-13.336,26.943v-8.934Z" transform="translate(-63.197)"/></g></g></g></svg>