<svg xmlns="http://www.w3.org/2000/svg" width="80.219" height="80.219" viewBox="0 0 80.219 80.219">
  <g id="Group_341" data-name="Group 341" transform="translate(-534.938 -7387.781)">
    <g id="Group_336" data-name="Group 336" transform="translate(-613.678 1448.781)">
      <circle id="Ellipse_38" data-name="Ellipse 38" cx="40.109" cy="40.109" r="40.109" transform="translate(1148.616 5939)" fill="#fff"/>
    </g>
    <g id="Group_339" data-name="Group 339" transform="translate(0 6)">
      <g id="Group_338" data-name="Group 338" transform="translate(892.654 6253.995)">
        <path id="Path_539" data-name="Path 539" d="M-295.878,1155.484a.216.216,0,0,0-.243-.182,26.427,26.427,0,0,1-21.331-7.136h0a.218.218,0,0,0-.308,0h0a26.427,26.427,0,0,1-21.331,7.136.216.216,0,0,0-.243.182c-.413,2.849-4.275,33.877,21.707,44.206h.04C-291.6,1189.361-295.465,1158.333-295.878,1155.484Z" transform="translate(0 0)" fill="rgba(0,0,0,0)" stroke="#3176bb" stroke-linecap="round" stroke-width="1.7"/>
        <path id="Path_540" data-name="Path 540" d="M-223.539,1273.782h-6.351v-6.351h-5.033v6.351h-6.351v5.033h6.351v6.351h5.033v-6.351h6.351Z" transform="translate(-85.199 -103.22)" fill="rgba(0,0,0,0)" stroke="#3176bb" stroke-linecap="round" stroke-linejoin="round" stroke-width="1.7"/>
      </g>
      <path id="Path_542" data-name="Path 542" d="M4294.37,331.4a.48.48,0,0,1-.123-.943l4.962-1.328a.48.48,0,1,1,.249.927l-4.963,1.328a.513.513,0,0,1-.125.016Z" transform="matrix(0.259, -0.966, 0.966, 0.259, -855.705, 11459.351)" fill="#3176bb" stroke="#3176bb" stroke-width="0.8"/>
      <path id="Path_543" data-name="Path 543" d="M4300.9,340.13h-5.13a.48.48,0,1,1,0-.96h5.13a.48.48,0,1,1,0,.96Z" transform="matrix(0.259, -0.966, 0.966, 0.259, -858.348, 11459.022)" fill="#3176bb" stroke="#3176bb" stroke-width="0.8"/>
      <path id="Path_544" data-name="Path 544" d="M4299.931,349.8a.465.465,0,0,1-.124-.016l-4.957-1.328a.48.48,0,1,1,.248-.927l4.957,1.328a.48.48,0,0,1-.125.943Z" transform="matrix(0.259, -0.966, 0.966, 0.259, -860.408, 11458.254)" fill="#3176bb" stroke="#3176bb" stroke-width="0.8"/>
      <path id="Path_545" data-name="Path 545" d="M4285.567,316.5a.48.48,0,0,1-.34-.819l3.629-3.628a.48.48,0,0,1,.679.679l-3.628,3.628a.481.481,0,0,1-.34.14Z" transform="matrix(0.259, -0.966, 0.966, 0.259, -850.75, 11458.289)" fill="#3176bb" stroke="#3176bb" stroke-width="0.8"/>
      <path id="Path_546" data-name="Path 546" d="M4290.9,323.338a.479.479,0,0,1-.239-.9l4.45-2.565a.48.48,0,0,1,.479.831l-4.45,2.565a.478.478,0,0,1-.239.064Z" transform="matrix(0.259, -0.966, 0.966, 0.259, -853.114, 11459.101)" fill="#3176bb" stroke="#3176bb" stroke-width="0.8"/>
    </g>
  </g>
</svg>
