<svg xmlns="http://www.w3.org/2000/svg" width="63.356" height="63.356" viewBox="0 0 63.356 63.356">
  <g id="Group_344" data-name="Group 344" transform="translate(-196 -4540)">
    <g id="Group_148" data-name="Group 148" transform="translate(117.961 4042.884)">
      <g id="Group_147" data-name="Group 147">
        <path id="Path_297" data-name="Path 297" d="M109.717,560.472A31.678,31.678,0,1,1,141.4,528.794,31.714,31.714,0,0,1,109.717,560.472Zm0-48.356a16.678,16.678,0,1,0,16.678,16.678A16.7,16.7,0,0,0,109.717,512.116Z" fill="#02a09e"/>
      </g>
    </g>
    <g id="Group_343" data-name="Group 343" transform="translate(304.637 3618.328)">
      <path id="Path_549" data-name="Path 549" d="M-70.5,942.172a5.993,5.993,0,0,1,6,6.019,6.017,6.017,0,0,1-6.047,5.983,6.023,6.023,0,0,1-5.957-5.989A5.993,5.993,0,0,1-70.5,942.172Z" transform="translate(-6.152)" fill="#02a09e"/>
      <path id="Path_550" data-name="Path 550" d="M-67.4,982.654a7.759,7.759,0,0,0-5.231-6.718.6.6,0,0,0-.455.051,6.78,6.78,0,0,1-7.128,0,.705.705,0,0,0-.533-.025,7.938,7.938,0,0,0-5.181,6.805v7.494A16.807,16.807,0,0,0-76.74,993a17.13,17.13,0,0,0,9.395-2.758v-6.878C-67.359,983.125-67.376,982.889-67.4,982.654Z" transform="translate(0 -21.016)" fill="#02a09e"/>
    </g>
  </g>
</svg>
