<svg xmlns="http://www.w3.org/2000/svg" width="63.356" height="63.859" viewBox="0 0 63.356 63.859">
  <g id="Group_342" data-name="Group 342" transform="translate(-197 -4412.496)">
    <g id="Group_144" data-name="Group 144" transform="translate(360.86 3896.733)">
      <path id="Path_293" data-name="Path 293" d="M-132.182,564.622a16.7,16.7,0,0,1-16.678-16.677,16.7,16.7,0,0,1,16.678-16.678h0v-15h0a31.714,31.714,0,0,0-31.678,31.678,31.713,31.713,0,0,0,31.678,31.677h0v-15Z" fill="#02a09e" opacity="0.185"/>
      <path id="Path_294" data-name="Path 294" d="M-100.5,547.945a31.714,31.714,0,0,0-31.678-31.678v15A16.7,16.7,0,0,1-115.5,547.945a16.7,16.7,0,0,1-16.678,16.677v15A31.714,31.714,0,0,0-100.5,547.945Z" fill="#02a09e" opacity="0.185"/>
    </g>
    <path id="Intersection_1" data-name="Intersection 1" d="M-9541.68,19.58v-15a31.735,31.735,0,0,1,30.011,22.534l-14.351,4.365A16.711,16.711,0,0,0-9541.68,19.58Z" transform="translate(9770.68 4408.423)" fill="#02a09e" stroke="rgba(0,0,0,0)" stroke-width="1"/>
  </g>
</svg>
