<svg xmlns="http://www.w3.org/2000/svg" width="72.304" height="70" viewBox="0 0 72.304 70"><defs><style>.a{fill:#e8fffd;}.b{fill:#3176bb;stroke:#3176bb;stroke-width:0.8px;}</style></defs><g transform="translate(-1148.616 -5939)"><circle class="a" cx="35" cy="35" r="35" transform="translate(1148.616 5939)"/><g transform="translate(-3063.279 5636.281)"><path class="b" d="M4225.5,342.519l3.02,11.28,4.09-1.095-3.02-11.28-4.09,1.095Zm2.68,12.348a.485.485,0,0,1-.24-.065.478.478,0,0,1-.223-.291l-3.268-12.207a.482.482,0,0,1,.34-.587l5.016-1.343a.48.48,0,0,1,.587.339l3.267,12.207a.48.48,0,0,1-.34.587l-5.017,1.343a.479.479,0,0,1-.124.017Z" transform="translate(0 -7.46)"/><path class="b" d="M4235.142,347.053l24.292.615a39.966,39.966,0,0,1-6-22.406L4232.7,337.938l2.439,9.116Zm25.234,1.6h-.026L4234.76,348a.479.479,0,0,1-.451-.355l-2.626-9.808a.482.482,0,0,1,.213-.533l21.835-13.352a.479.479,0,0,1,.727.456,38.417,38.417,0,0,0,6.238,23.4.48.48,0,0,1-.319.839Z" transform="translate(-1.896 -3.14)"/><path class="b" d="M4267.486,313.385a3.441,3.441,0,0,0-.894.116c-4.215,1.131-5.563,10.339-2.942,20.1,2.415,9.009,7.555,16.067,11.7,16.067h0a3.489,3.489,0,0,0,.9-.117c4.211-1.132,5.556-10.339,2.935-20.106-2.408-9.009-7.547-16.064-11.7-16.064Zm7.864,37.246h0c-4.634,0-10.061-7.212-12.625-16.777-2.851-10.623-1.26-19.971,3.619-21.28a4.431,4.431,0,0,1,1.143-.148c4.642,0,10.07,7.211,12.625,16.775,2.852,10.623,1.264,19.971-3.612,21.281a4.42,4.42,0,0,1-1.148.15Z" transform="translate(-9.671 -0.135)"/><path class="b" d="M4271.081,313.907c-2.462,3.348-2.773,10.856-.727,18.491s6.067,13.98,9.869,15.644c2.465-3.335,2.774-10.84.726-18.482s-6.067-13.99-9.867-15.653Zm9.3,35.193a.474.474,0,0,1-.167-.03c-4.235-1.562-8.569-8.162-10.783-16.424s-1.76-16.148,1.13-19.624a.479.479,0,0,1,.534-.144c4.233,1.56,8.566,8.163,10.783,16.434s1.764,16.154-1.129,19.617a.479.479,0,0,1-.367.172Z" transform="translate(-11.433 -0.246)"/><path class="b" d="M4270.215,336.284c.137.627.282,1.219.441,1.8.147.553.317,1.138.516,1.784a11.436,11.436,0,0,0,1.316-.266,8.842,8.842,0,0,0,3.25-1.561c.684-.563,1.009-1.13.894-1.554-.158-.59-1.207-.986-2.607-.986a10.638,10.638,0,0,0-3.811.783Zm.62,4.586a.479.479,0,0,1-.457-.335c-.258-.811-.471-1.531-.649-2.2-.194-.713-.37-1.446-.533-2.237a.477.477,0,0,1,.27-.533,11.5,11.5,0,0,1,4.56-1.023c1.926,0,3.247.634,3.534,1.7a2.577,2.577,0,0,1-1.211,2.544,9.818,9.818,0,0,1-3.616,1.748,11.726,11.726,0,0,1-1.854.337l-.044,0Z" transform="translate(-11.736 -5.935)"/><path class="b" d="M4240.581,356.381l8.66,15.705,3.655-1.56-7.744-13.915-4.571-.229Zm8.449,16.8a.48.48,0,0,1-.42-.249l-9.285-16.838a.479.479,0,0,1,.014-.485.5.5,0,0,1,.43-.225l5.695.286a.479.479,0,0,1,.4.246l8.132,14.612a.479.479,0,0,1-.23.674l-4.543,1.94a.482.482,0,0,1-.188.039Z" transform="translate(-3.889 -11.4)"/><path class="b" d="M4239.467,346.676a.479.479,0,0,1-.124-.943l15.021-4.03a.48.48,0,0,1,.248.927l-15.021,4.03a.473.473,0,0,1-.124.016Z" transform="translate(-3.815 -7.809)"/><path class="b" d="M4294.37,331.4a.48.48,0,0,1-.123-.943l4.962-1.328a.48.48,0,1,1,.249.927l-4.963,1.328a.513.513,0,0,1-.125.016Z" transform="translate(-17.214 -5.511)"/><path class="b" d="M4300.9,340.13h-5.13a.48.48,0,1,1,0-.96h5.13a.48.48,0,1,1,0,.96Z" transform="translate(-17.581 -8.149)"/><path class="b" d="M4299.931,349.8a.465.465,0,0,1-.124-.016l-4.957-1.328a.48.48,0,1,1,.248-.927l4.957,1.328a.48.48,0,0,1-.125.943Z" transform="translate(-17.372 -10.338)"/><path class="b" d="M4285.567,316.5a.48.48,0,0,1-.34-.819l3.629-3.628a.48.48,0,0,1,.679.679l-3.628,3.628a.481.481,0,0,1-.34.14Z" transform="translate(-14.906 -1)"/><path class="b" d="M4290.9,323.338a.479.479,0,0,1-.239-.9l4.45-2.565a.48.48,0,0,1,.479.831l-4.45,2.565a.478.478,0,0,1-.239.064Z" transform="translate(-16.302 -3.073)"/></g></g></svg>