<svg xmlns="http://www.w3.org/2000/svg" width="94.346" height="99.865" viewBox="0 0 94.346 99.865">
  <g id="Group_325" data-name="Group 325" transform="translate(-565.328 -1633)">
    <circle id="Ellipse_38" data-name="Ellipse 38" cx="46.933" cy="46.933" r="46.933" transform="translate(565.809 1639)" fill="#e8fffd"/>
    <g id="Group_324" data-name="Group 324" transform="translate(-213.893 1286.672)">
      <path id="Path_512" data-name="Path 512" d="M855.06,388.744l-2.393-1.069a18.761,18.761,0,0,0-6.484-1.406,20.542,20.542,0,0,0-11.667,2.789,21.087,21.087,0,0,0-10.887,17.376,20.15,20.15,0,0,0,4.306,13.87c.713.961,1.513,1.868,2.13,2.887a16.534,16.534,0,0,1,1.93,5.323c.194.954.343,1.916.513,2.874q.087.983.176,1.965c.117,1.037.175,2.085.364,3.109a2.254,2.254,0,0,0,2.338,2.125c2.348.163,4.7.346,7.053.331,4.1-.028,8.195-.163,12.288-.332a2.21,2.21,0,0,0,2.392-2.206c.288-1.914.434-3.85.641-5.777l.025-.26a1.968,1.968,0,0,0,.1-.307,19.235,19.235,0,0,1,4-9.356,19.914,19.914,0,0,0,3.852-18.82A20.976,20.976,0,0,0,855.06,388.744Zm4.231,30.642a19.447,19.447,0,0,0-3.959,8.708c-.255,1.21-.356,2.454-.527,3.682l-.045.652a4.976,4.976,0,0,0-.12.559c-.081.8-.164,1.6-.218,2.4-.025.381-.225.458-.554.463-4.469.067-8.939.16-13.408.2-1.306.011-2.614-.178-3.919-.167-.712.005-.823-.354-.872-.894-.134-1.455-.243-2.912-.421-4.362a23.456,23.456,0,0,0-2.488-8.48,15.025,15.025,0,0,0-1.574-2.317,18.979,18.979,0,0,1-4.572-9.686,17.74,17.74,0,0,1,5.5-15.689c5.322-5.1,11.716-6.7,18.728-4.372,7.115,2.361,11.371,7.494,12.661,14.894C864.446,410.416,862.764,415.222,859.291,419.386Z" transform="translate(-20.157 -18.14)" fill="#3176bb"/>
      <path id="Path_513" data-name="Path 513" d="M862.779,492.692c-2.727-.01-5.454,0-8.182,0s-5.454-.007-8.182,0a1.794,1.794,0,1,0-.007,3.581c1.331.011,2.661.011,3.993.01q6.185,0,12.371-.012a1.793,1.793,0,1,0,.007-3.579Z" transform="translate(-29.671 -66.519)" fill="#3176bb"/>
      <path id="Path_514" data-name="Path 514" d="M930.469,402.293q-2.835.772-5.671,1.547c-2.52.689-5.042,1.372-7.559,2.072a1.366,1.366,0,0,0-1.154,1.5c.16.642.822.981,1.688.865.065-.009.131-.011.195-.024q6.767-1.3,13.534-2.594a1.492,1.492,0,0,0,1.256-1.585A1.712,1.712,0,0,0,930.469,402.293Z" transform="translate(-62.192 -25.397)" fill="#3176bb"/>
      <path id="Path_515" data-name="Path 515" d="M885.957,361.892a1.4,1.4,0,0,0,1.736-.774c.033-.056.063-.115.093-.172q3.136-5.95,6.272-11.9a1.748,1.748,0,0,0-1.644-2.717,1.343,1.343,0,0,0-1.379.889c-.473,1.122-.961,2.239-1.443,3.358q-2.044,4.735-4.085,9.47A1.4,1.4,0,0,0,885.957,361.892Z" transform="translate(-48.236)" fill="#3176bb"/>
      <path id="Path_516" data-name="Path 516" d="M918.718,465.725q-5.589-4.1-11.2-8.183a6.17,6.17,0,0,0-.972-.479,1.142,1.142,0,0,0-1.124,1.571,2.171,2.171,0,0,0,.6.834q5.231,4.5,10.488,8.974a1.6,1.6,0,0,0,2.4-.3A1.582,1.582,0,0,0,918.718,465.725Z" transform="translate(-57.32 -50.329)" fill="#3176bb"/>
      <path id="Path_517" data-name="Path 517" d="M827.538,355.968c.955,1.788,1.9,3.582,2.867,5.362a1.329,1.329,0,0,0,1.735.748,1.345,1.345,0,0,0,.459-1.783c-.022-.062-.044-.123-.07-.183q-2.764-6.319-5.526-12.64a1.361,1.361,0,0,0-1.377-.9,1.745,1.745,0,0,0-1.661,2.7Z" transform="translate(-20.21 -0.11)" fill="#3176bb"/>
      <path id="Path_518" data-name="Path 518" d="M807.392,457.686a2.835,2.835,0,0,0-.382.25q-5.488,4.072-10.974,8.148a1.442,1.442,0,0,0-.675,1.8,2.1,2.1,0,0,0,1.989,1.445,3.807,3.807,0,0,0,.819-.459q4.679-4.041,9.331-8.112c.46-.4.938-.787,1.357-1.227a1.279,1.279,0,0,0,.153-1.624A1.3,1.3,0,0,0,807.392,457.686Z" transform="translate(-7.291 -50.53)" fill="#3176bb"/>
      <path id="Path_519" data-name="Path 519" d="M863.4,500.894a14.4,14.4,0,0,0-1.566-.061c-1.591-.007-3.181,0-4.771,0v.094c-.589,0-1.177,0-1.765,0-1.59-.01-3.181-.064-4.769-.018-.868.025-1.052.523-.532,1.218a5.587,5.587,0,0,0,3.421,2.133,18.385,18.385,0,0,0,6.632.1,5.8,5.8,0,0,0,3.873-2.222C864.445,501.446,864.258,500.991,863.4,500.894Z" transform="translate(-32.035 -70.221)" fill="#3176bb"/>
      <path id="Path_520" data-name="Path 520" d="M863.114,484c-1.827.07-3.653.185-5.479.281l-.554.019-2.214.032-.394,0-.816.015h-.441l-1.1-.019-1.309-.013-.046.158.046-.158-.131,0-.915-.014h0l-.515-.022-2.235-.075-2.751-.135a1.777,1.777,0,0,0-2.324,1.7q.006.135.011.27l.2.567.393.525,1.072.453.523.02,1.442.093.915.028.906.033.814.045,3.124.057.134,0,1.043.011.919.008h.261c3.221-.092,6.444-.164,9.664-.288a1.732,1.732,0,0,0,1.587-1.9A1.784,1.784,0,0,0,863.114,484Zm-13.354.458h0v0Z" transform="translate(-28.504 -62.572)" fill="#3176bb"/>
      <path id="Path_521" data-name="Path 521" d="M794.28,408.695a1.308,1.308,0,0,0,1.6-.892,1.3,1.3,0,0,0-1.022-1.454c-.123-.042-.25-.075-.376-.109-.757-.2-1.512-.409-2.27-.607l-8.9-2.323-.151-.052.081.148-.081-.148-.387-.108c-.5-.141-1-.265-1.5-.425a1.39,1.39,0,0,0-1.611.529,2.007,2.007,0,0,0-.037,2.465l.13.13.653.267.524.115.133.01a1.527,1.527,0,0,0,.244.088q5.425.993,10.851,1.982C792.867,408.438,793.571,408.583,794.28,408.695Z" transform="translate(0 -25.595)" fill="#3176bb"/>
      <path id="Path_522" data-name="Path 522" d="M844.631,396.38a16.579,16.579,0,0,0-11.522,11.069,1.416,1.416,0,0,0,1.561,1.921,1.55,1.55,0,0,0,1.212-1.227,13.755,13.755,0,0,1,9.386-8.99,1.473,1.473,0,0,0,1.239-1.582,2.75,2.75,0,0,0-.158-.5A1.379,1.379,0,0,0,844.631,396.38Z" transform="translate(-24.455 -22.717)" fill="#3176bb"/>
    </g>
  </g>
</svg>
