<svg xmlns="http://www.w3.org/2000/svg" width="650.57" height="481.771" viewBox="0 0 650.57 481.771"><defs><style>.a{fill:none;stroke:#001a3a;stroke-width:2px;}.b{fill:#dffdfb;}.c{fill:#78d8d1;}.d{fill:#fff;}.e{fill:#ffa30f;}.f{fill:#2c3a64;}.g{fill:#ffc790;}.h{fill:#f6b078;}.i{fill:#9cf4ed;}.j{fill:#141d38;}.k{fill:#3176bb;}.l{fill:#b16833;}.m{fill:#955425;}.n{fill:#d7e8fa;}.o{fill:#9dc5fb;}.p{fill:#8cf0e8;}.q{fill:#009290;}.r{fill:#ffdab5;}.s{fill:#ea8700;}.t{fill:#e2e2e2;}.u{fill:#8b5025;}.v{fill:#f09959;}.w{fill:#009391;}.x{fill:#00b5b3;}</style></defs><g transform="translate(-164.818 -259.148)"><path class="a" d="M10.953,0H584.2" transform="translate(183.5 726.5)"/><g transform="translate(164.818 319.81)"><path class="b" d="M487.4,237.8c93.572-37.429,188.674-4.338,253.173,67.734,32.26,36.047,82.247,23.592,133.141,11.138,50.863-12.447,102.631-24.895,138.515,11.072,48.994,49.106,26.553,175.358-40.627,230.041-91.309,74.328-369,36.613-429.067,23.965-69.2-14.574-119.8-58.788-140.353-112.451C352.652,340,446.048,254.343,487.4,237.8" transform="translate(-388.055 -222.029)"/><g transform="translate(0)"><path class="c" d="M468.825,715.192H581.086v-184H468.825v184" transform="translate(-218.551 -497.53)"/><path class="d" d="M491.592,718.949H594.284V545.708H491.592V718.949" transform="translate(-237.628 -508.3)"/><path class="e" d="M653.008,783.2c-3.865-8.315-10.407-10.978-21.149-10.978-12.791,0-19.433,4.634-21.315,11.38,22.906.314,42.464-.4,42.464-.4Z" transform="translate(-327.068 -676.323)"/><path class="f" d="M640.16,614.54c5.415,1.52,5.177,4.562,6.982,7.387s5.726,4.706,6.2,6.589-1.208,5.8.784,8,2.667,3.295,1.883,5.491-2.51,5.648-2.667,6.118-2.354,3.765-5.021,4.236-7.687,1.255-10.2,2.353-10.581-1.406-15.061-1.249-7.531-3.144-7.217-5.34-3.3-6.589-3.294-10.355c.009-4.043,4.706-7.06,5.961-9.727s-.157-7.374,4.55-10.161c2.974-1.762,5.021-1.605,7.374-2.39s6.276-1.923,9.727-.954Z" transform="translate(-330.903 -559.082)"/><path class="g" d="M678.286,720.412c1.225,1.808,2.123,1.883,3.451,0,1.057-1.5,3.138-4.9,3.138-6.623V696.565a3.147,3.147,0,0,0-3.138-3.138h-3.451a3.147,3.147,0,0,0-3.138,3.138v17.224c0,1.726,2.039,5,3.138,6.623Z" transform="translate(-375.617 -617.874)"/><path class="h" d="M678.286,693.427h3.451a3.147,3.147,0,0,1,3.138,3.138v15.367c-3.875,1.234-7.413-1.219-9.727-3.982V696.565a3.147,3.147,0,0,1,3.138-3.138Z" transform="translate(-375.617 -617.874)"/><path class="g" d="M653.579,653.266c0,7.851,4.671,14.216,10.433,14.216s10.433-6.365,10.433-14.216-4.671-14.216-10.433-14.216-10.433,6.365-10.433,14.216Z" transform="translate(-359.618 -577.539)"/><path class="f" d="M655.818,634.169c6.589,11.139,16.316,10.041,16.316,10.041s-.235-14.747-7.962-15.532-12.276,2.317-13.845,7.434,0,8.49,0,8.49a13.545,13.545,0,0,0,3.765-5.1,36.628,36.628,0,0,0,1.726-5.334Z" transform="translate(-356.287 -569.756)"/><path class="g" d="M636.884,685.425c-.976,2.054-.657,4.247.713,4.9s3.271-.488,4.247-2.542.656-4.248-.713-4.9-3.271.488-4.247,2.542Z" transform="translate(-323.124 -609.917)"/><path class="g" d="M731.763,685.425c.976,2.054.657,4.247-.713,4.9s-3.271-.488-4.247-2.542-.656-4.248.713-4.9,3.271.488,4.247,2.542Z" transform="translate(-436.263 -609.917)"/><path class="d" d="M678.794,723.96s1.756,2.277,3.922,2.277,3.922-2.277,3.922-2.277Z" transform="translate(-378.322 -640.523)"/><path class="i" d="M631.246,884.469h26.347a3.064,3.064,0,0,0,0-6.127H631.246a3.064,3.064,0,0,0,0,6.127Z" transform="translate(-339.271 -755.04)"/><path class="i" d="M612.564,920.921h36a3.064,3.064,0,0,0,0-6.127h-36a3.064,3.064,0,1,0,0,6.127Z" transform="translate(-325.414 -782.079)"/><path class="i" d="M516.417,1059.4h87.558a1.778,1.778,0,1,0,0-3.555H516.417a1.778,1.778,0,0,0,0,3.555" transform="translate(-255.047 -886.71)"/><path class="i" d="M516.417,1091.4h87.558a1.777,1.777,0,1,0,0-3.555H516.417a1.777,1.777,0,1,0,0,3.555" transform="translate(-255.047 -910.444)"/><path class="i" d="M516.417,1123.4h87.558a1.778,1.778,0,0,0,0-3.556H516.417a1.778,1.778,0,0,0,0,3.556" transform="translate(-255.047 -934.179)"/><path class="i" d="M622.9,575.561a.6.6,0,0,1,.592.592v58.124a.6.6,0,0,1-.592.592H559.831a.6.6,0,0,1-.592-.592V576.153a.6.6,0,0,1,.592-.592Zm-63.065,61.889H622.9a3.178,3.178,0,0,0,3.174-3.174V576.153a3.178,3.178,0,0,0-3.174-3.174H559.831a3.178,3.178,0,0,0-3.174,3.174v58.124a3.178,3.178,0,0,0,3.174,3.174Z" transform="translate(-286.215 -528.529)"/><path class="i" d="M587.217,969.474l-1.826,3.7-4.083.594,2.954,2.88-.7,4.066,3.652-1.92,3.652,1.92-.7-4.066,2.954-2.88-4.083-.594-1.826-3.7Z" transform="translate(-259.636 -822.639)"/><path class="i" d="M645.131,969.474l-1.826,3.7-4.083.594,2.954,2.88-.7,4.066,3.652-1.92,3.652,1.92-.7-4.066,2.954-2.88-4.083-.594-1.826-3.7Z" transform="translate(-332.505 -822.639)"/><path class="i" d="M703.046,969.474l-1.826,3.7-4.083.594,2.954,2.88-.7,4.066,3.652-1.92,3.652,1.92-.7-4.066,2.954-2.88-4.083-.594-1.826-3.7Z" transform="translate(-405.375 -822.639)"/><path class="i" d="M760.96,969.474l-1.826,3.7-4.083.594,2.954,2.88-.7,4.066,3.652-1.92,3.652,1.92-.7-4.066,2.954-2.88-4.083-.594-1.826-3.7Z" transform="translate(-478.244 -822.639)"/><path class="c" d="M1438.041,715.192H1550.3v-184h-112.26v184" transform="translate(-1438.041 -497.53)"/><path class="d" d="M1460.8,718.949h102.693V545.708H1460.8V718.949" transform="translate(-1457.112 -508.3)"/><path class="j" d="M1630.072,690.469c0,8.242-4.961,21.539-16.666,21.113s-14.3-13.1-14.75-16.679,31.416-4.433,31.416-4.433Z" transform="translate(-1559.285 -615.68)"/><path class="k" d="M1622.224,783.2c-3.863-8.315-10.406-10.978-21.149-10.978-12.79,0-19.431,4.634-21.314,11.38,22.9.314,42.462-.4,42.462-.4Z" transform="translate(-1546.559 -676.323)"/><path class="l" d="M1647.5,720.412c1.227,1.808,2.123,1.883,3.452,0,1.056-1.5,3.138-4.9,3.138-6.623V696.565a3.147,3.147,0,0,0-3.138-3.138H1647.5a3.147,3.147,0,0,0-3.137,3.138v17.224c0,1.726,2.04,5,3.137,6.623Z" transform="translate(-1595.105 -617.874)"/><path class="m" d="M1647.5,693.427h3.452a3.147,3.147,0,0,1,3.138,3.138v15.367c-3.876,1.234-7.414-1.219-9.727-3.982V696.565a3.147,3.147,0,0,1,3.137-3.138Z" transform="translate(-1595.105 -617.874)"/><path class="l" d="M1622.792,653.266c0,7.851,4.671,14.216,10.435,14.216s10.432-6.365,10.432-14.216-4.671-14.216-10.432-14.216-10.435,6.365-10.435,14.216Z" transform="translate(-1579.105 -577.539)"/><path class="j" d="M1608.041,627.182c1.24,4.372,3.956,4.321,7.744,5.757s5.6,2.88,6.838,5.677c1.583,3.566-.718,13.964-.718,13.964s9.593-7.178,8.485-18.467-7.767-15.661-14.029-15.661-8.648,3.817-8.648,3.817-3.336.014-6.492,3.752c-4.243,5.025-2.936,17.227,0,21.6s4.893,5.742,4.829,5.546-2.74-10.235-1.307-16.444a39.616,39.616,0,0,1,3.3-9.541Z" transform="translate(-1559.655 -562.26)"/><path class="d" d="M1648,723.96s1.756,2.277,3.922,2.277,3.923-2.277,3.923-2.277Z" transform="translate(-1597.803 -640.523)"/><path class="i" d="M1600.455,884.469H1626.8a3.064,3.064,0,1,0,0-6.127h-26.346a3.064,3.064,0,0,0,0,6.127Z" transform="translate(-1558.754 -755.04)"/><path class="i" d="M1581.777,920.921h35.994a3.064,3.064,0,1,0,0-6.127h-35.994a3.064,3.064,0,1,0,0,6.127Z" transform="translate(-1544.9 -782.079)"/><path class="i" d="M1485.631,1059.4h87.556a1.778,1.778,0,1,0,0-3.555h-87.556a1.778,1.778,0,1,0,0,3.555" transform="translate(-1474.535 -886.71)"/><path class="i" d="M1485.631,1091.4h87.556a1.777,1.777,0,1,0,0-3.555h-87.556a1.777,1.777,0,1,0,0,3.555" transform="translate(-1474.535 -910.444)"/><path class="i" d="M1485.631,1123.4h87.556a1.778,1.778,0,1,0,0-3.556h-87.556a1.778,1.778,0,1,0,0,3.556" transform="translate(-1474.535 -934.179)"/><path class="i" d="M1592.111,575.561a.6.6,0,0,1,.591.592v58.124a.6.6,0,0,1-.591.592h-63.066a.6.6,0,0,1-.591-.592V576.153a.6.6,0,0,1,.591-.592Zm-63.066,61.889h63.066a3.177,3.177,0,0,0,3.174-3.174V576.153a3.177,3.177,0,0,0-3.174-3.174h-63.066a3.177,3.177,0,0,0-3.174,3.174v58.124a3.177,3.177,0,0,0,3.174,3.174Z" transform="translate(-1505.705 -528.529)"/><path class="i" d="M1556.43,969.474l-1.826,3.7-4.082.594,2.954,2.88-.7,4.066,3.651-1.92,3.651,1.92-.7-4.066,2.954-2.88-4.082-.594-1.826-3.7Z" transform="translate(-1479.123 -822.639)"/><path class="i" d="M1614.35,969.474l-1.826,3.7-4.083.594,2.954,2.88-.7,4.066,3.651-1.92,3.654,1.92-.7-4.066,2.954-2.88-4.082-.594-1.826-3.7Z" transform="translate(-1551.999 -822.639)"/><path class="i" d="M1672.26,969.474l-1.826,3.7-4.082.594,2.954,2.88-.7,4.066,3.651-1.92,3.651,1.92-.7-4.066,2.954-2.88-4.083-.594-1.826-3.7Z" transform="translate(-1624.863 -822.639)"/><path class="i" d="M1730.169,969.474l-1.826,3.7-4.083.594,2.954,2.88-.7,4.066,3.651-1.92,3.654,1.92-.7-4.066,2.954-2.88-4.083-.594-1.828-3.7Z" transform="translate(-1697.729 -822.639)"/><path class="n" d="M903.57,715.313h138.013V533.834h-136.3q.158,2.632.163,5.3c0,1.764-.059,3.515-.16,5.254l-1.72.556V715.313" transform="translate(-791.31 -499.492)"/><path class="o" d="M1430.762,544.947l1.72-.556c.1-1.739.16-3.489.16-5.254q0-2.671-.163-5.3h-1.717v11.113" transform="translate(-1318.502 -499.492)"/><path class="b" d="M802.2,718.949h22.486l-1.48-21.43H809.6a1.778,1.778,0,0,1,0-3.556h13.355l-.325-4.707H809.6a1.777,1.777,0,1,1,0-3.555h12.785l-.325-4.707H809.6a1.778,1.778,0,0,1,0-3.556h12.214l-9.1-131.731H802.2V718.949" transform="translate(-548.234 -508.3)"/><path class="p" d="M814.126,1059.4h12.46l-.246-3.555H814.126a1.778,1.778,0,0,0,0,3.555" transform="translate(-552.756 -886.71)"/><path class="p" d="M811.917,1091.4h13.03l-.245-3.555H811.917a1.777,1.777,0,1,0,0,3.555" transform="translate(-550.547 -910.444)"/><path class="p" d="M809.707,1123.4h13.6l-.245-3.556H809.707a1.778,1.778,0,0,0,0,3.556" transform="translate(-548.337 -934.179)"/><path class="b" d="M1466.9,718.949h6.923V545.708H1460.8l4.638,131.731h.653a1.778,1.778,0,1,1,0,3.556h-.529l.168,4.707h.361a1.777,1.777,0,1,1,0,3.555h-.238l.165,4.707h.072a1.777,1.777,0,0,1,.054,3.553l.754,21.433" transform="translate(-1367.441 -508.3)"/><path class="p" d="M1483.976,1059.4h.53a1.778,1.778,0,1,0,0-3.555h-.653l.124,3.555" transform="translate(-1385.853 -886.71)"/><path class="p" d="M1483.976,1091.4h.238a1.777,1.777,0,1,0,0-3.555h-.361l.124,3.555" transform="translate(-1385.561 -910.444)"/><path class="p" d="M1483.979,1123.4a1.777,1.777,0,0,0-.054-3.553h-.073l.127,3.553" transform="translate(-1385.272 -934.179)"/><path class="c" d="M872.883,652.161h153.333V400.842H872.883V652.161Z" transform="translate(-768.019 -400.842)"/><path class="d" d="M903.981,657.294h140.26V420.674H903.981v236.62Z" transform="translate(-794.073 -415.553)"/><path class="e" d="M1144.89,530.766c.1-.294,2.554-14.388,2.848-19.87s-8.811-6.264-8.811-6.264-7.437-4.013-12.821-1.958a21.692,21.692,0,0,0-11.494,9.82c-2.448,4.307,2.151,17.729,2.151,17.729l28.126.542Z" transform="translate(-951.782 -475.945)"/><path class="q" d="M1121.384,728.284c.034-.231-.63-5.778-.653-6-1.24-11.68-15.638-14.965-30-14.965-16.88,0-28.332,3.089-30.161,15.227-.054.356-1.028,5.917-.979,6.291,31.287.428,61.8-.549,61.8-.549Z" transform="translate(-911.399 -628.177)"/><path class="r" d="M1152.237,636.55c1.674,2.469,2.9,2.571,4.715,0,1.443-2.044,6.262-6.709,6.262-9.066l-1.978-23.505a4.3,4.3,0,0,0-4.284-4.286h-4.715a4.3,4.3,0,0,0-4.286,4.286l-.919,23.505c0,2.357,3.706,6.852,5.206,9.066Z" transform="translate(-975.809 -548.345)"/><path class="g" d="M1152.927,599.693h4.715a4.3,4.3,0,0,1,4.284,4.286l1.717,20.852c-5.294,1.685-12.441-1.74-15.6-5.514l.6-15.338a4.3,4.3,0,0,1,4.286-4.286Z" transform="translate(-976.499 -548.345)"/><path class="q" d="M1144.047,685.565l6.941,6.606s-7.073,12.579-7.463,12.579-4.419-.464-4.419-.464l-6.5.464-4.351-1.044-6.593-11.665,6.724-7.128s5.743,11.093,6.786,11.354,1.051.391,1.9-.261,6.98-10.44,6.98-10.44Z" transform="translate(-957.031 -611.558)"/><path class="r" d="M1125.232,544.839c0,10.723,6.381,19.417,14.251,19.417s14.249-8.693,14.249-19.417-6.378-19.417-14.249-19.417-14.251,8.693-14.251,19.417Z" transform="translate(-960.697 -493.252)"/><path class="r" d="M1102.425,588.763c-1.333,2.806-.9,5.8.976,6.69s4.467-.666,5.8-3.472.9-5.8-.974-6.69-4.47.666-5.8,3.472Z" transform="translate(-910.848 -537.476)"/><path class="r" d="M1232.019,588.763c1.333,2.806.9,5.8-.974,6.69s-4.467-.666-5.8-3.472-.9-5.8.973-6.69,4.467.666,5.8,3.472Z" transform="translate(-1065.382 -537.476)"/><path class="d" d="M1155.932,631.467s2.83,4.585,6.321,4.585,6.321-4.585,6.321-4.585Z" transform="translate(-983.467 -571.914)"/><path class="e" d="M1148.246,526.539c-5.872-4.111-8.514-3.426-12.919,3.328s-9.691,6.873-9.691,6.873l-.684-7s6.562-12.692,15.369-11.028,13.815,9.592,13.815,9.592.429,14.86-.8,15.367-1.369-4.8-2.249-5.873.881-6.167-.294-8.516-2.546-2.74-2.546-2.74Z" transform="translate(-961.101 -488.161)"/><path class="e" d="M1224.811,579.031c-2.05,2.245-1.273,11.158-2.35,11.06s-1.469-8.515-1.175-9.4,3.525-1.664,3.525-1.664Z" transform="translate(-1056.555 -533.018)"/><path class="p" d="M1037.668,883.37h65.455a4.184,4.184,0,0,0,0-8.369h-65.455a4.184,4.184,0,1,0,0,8.369Z" transform="translate(-890.578 -752.562)"/><path class="p" d="M1069.2,933.158h49.163a4.184,4.184,0,1,0,0-8.369H1069.2a4.184,4.184,0,0,0,0,8.369Z" transform="translate(-913.97 -789.493)"/><path class="p" d="M937.886,1122.307h119.591a2.427,2.427,0,1,0,0-4.855H937.886a2.427,2.427,0,1,0,0,4.855Z" transform="translate(-817.866 -932.406)"/><path class="p" d="M937.886,1166.007h119.591a2.427,2.427,0,1,0,0-4.855H937.886a2.427,2.427,0,0,0,0,4.855Z" transform="translate(-817.866 -964.821)"/><path class="p" d="M937.886,1209.709h119.591a2.429,2.429,0,0,0,0-4.857H937.886a2.429,2.429,0,0,0,0,4.857Z" transform="translate(-817.866 -997.237)"/><path class="p" d="M1084.678,462.334a1.282,1.282,0,0,1,1.281,1.28V543a1.282,1.282,0,0,1-1.281,1.28H998.541A1.281,1.281,0,0,1,997.26,543V463.615a1.281,1.281,0,0,1,1.281-1.28Zm-86.137,84.531h86.137a3.867,3.867,0,0,0,3.863-3.862V463.615a3.867,3.867,0,0,0-3.863-3.863H998.541a3.867,3.867,0,0,0-3.863,3.863V543a3.867,3.867,0,0,0,3.863,3.862Z" transform="translate(-861.793 -444.54)"/><path class="p" d="M994.409,999.473l-2.495,5.053-5.575.81,4.034,3.933-.953,5.554,4.989-2.622,4.988,2.622-.953-5.554,4.035-3.933-5.576-.81-2.494-5.053Z" transform="translate(-773.579 -844.892)"/><path class="p" d="M1073.514,999.473l-2.495,5.053-5.578.81,4.036,3.933-.953,5.554,4.989-2.622,4.986,2.622-.953-5.554,4.036-3.933-5.578-.81-2.492-5.053Z" transform="translate(-873.108 -844.892)"/><path class="p" d="M1152.613,999.473l-2.495,5.053-5.578.81,4.036,3.933-.953,5.554,4.989-2.622,4.986,2.622-.953-5.554,4.036-3.933-5.578-.81-2.492-5.053Z" transform="translate(-972.634 -844.892)"/><path class="p" d="M1231.711,999.473l-2.492,5.053-5.578.81,4.036,3.933-.953,5.554,4.986-2.622,4.989,2.622-.953-5.554,4.036-3.933-5.578-.81-2.494-5.053Z" transform="translate(-1072.159 -844.892)"/><path class="p" d="M1312.071,999.473l-2.492,5.053-5.577.81,4.036,3.933-.953,5.554,4.986-2.622,4.989,2.622-.953-5.554,4.036-3.933-5.578-.81-2.495-5.053Z" transform="translate(-1173.27 -844.892)"/></g><path class="c" d="M1779.783,1320.421H1583.026a2.14,2.14,0,0,1-2.141-2.141v-3.21a2.14,2.14,0,0,1,2.141-2.141h196.757a2.14,2.14,0,0,1,2.141,2.141v3.21a2.14,2.14,0,0,1-2.141,2.141Z" transform="translate(-1293.725 -1050.225)"/><path class="l" d="M2470.214,884.671c2.665,9.4-3.845,19.084-11.019,21.119s-12.291-4.352-14.956-13.751.986-18.667,8.16-20.7,15.148,3.935,17.815,13.334Z" transform="translate(-1933.492 -722.367)"/><path class="l" d="M2367.733,1629.42s18.383,28.552,20.867,29.791,8.689,1.552,6.36,6.208-3.259,22.967-5.431,23.9-20.792,3.1-18,0,4.511-1.552,5.921-7.137,3.39-16.136.751-18.311-18.775-21.724-18.775-21.724l8.307-12.723Z" transform="translate(-1871.227 -1284.99)"/><path class="l" d="M1925.849,1676.9s-22.344,36.831-26.484,40.141-17.794,8.276-6.621,9.1,16.552-3.724,23.586-5.792,15.726-3.31,12.415-8.692-1.936-17.123,5.2-24.57-8.1-10.189-8.1-10.189Z" transform="translate(-1521.865 -1320.21)"/><path class="s" d="M2120.07,1346.09s-55.317-1.446-77.248,16.552c-12.829,19.449-43.862,76.834-46.277,83.159,1.656,1.655,10.967,4.643,15.106,4.23,12.206-14.556,28.343-27.139,34.759-38.558,7.907-14.068,10.345-21.1,23.173-22.344s41.8-5.381,50.485-5.381,0-37.657,0-37.657Z" transform="translate(-1602.051 -1074.803)"/><path class="c" d="M2593.658,1618.783h-2.9l-20.792-86.753h6.378l17.314,86.753Z" transform="translate(-2027.401 -1212.749)"/><path class="c" d="M2325.335,1609.978h2.9l23.86-89.818h-6.378l-20.382,89.818Z" transform="translate(-1845.94 -1203.944)"/><path class="e" d="M2284.514,1331.5l-32.159,5.552s-42.739.393-62.273,4.031c-17.774,3.311-20.395,23.5,0,51.312,11.584,15.8,21.378,28.4,41.406,42.6,5.095-3.739,7.044-5.154,8.451-14.156-1.448-1.988-5.2-14.427-6.365-16.862-11.08-23.157-25.866-31.578-26.073-33.858,2.484-4.033,65.767,21.03,78.348,6.288,12.015-14.078-1.335-44.91-1.335-44.91Z" transform="translate(-1734.982 -1064)"/><path class="d" d="M2484.238,1048.486a33.653,33.653,0,0,0-25.164,6.262c-7.05,7.187-15.026,19.037-14.538,38.587.62,24.828-3.843,26.422.813,33.249,19.416,8.018,52.621,42.465,44.8,5.536-5.663-26.742,12.418-46.674-2.167-76.337-1.188-2.414-2.673-4.755-3.747-7.3Z" transform="translate(-1933.371 -853.796)"/><path class="t" d="M2444.535,1120.495c-.377,12.945-2.205,16.756-.808,20.815,7.915.808,22.393,3.974,26.011,9.041,4.139,5.792,8.279,6.621,6.347,2.345s-7.037-10.344.826-31.173,11.586-34.9,3.863-49.383l-36.239,48.355Z" transform="translate(-1933.375 -871.613)"/><path class="l" d="M2529.83,974.219c-5.214-12.347-6.494-26.22-6.494-26.22l-13.658,4.034s7.76,17.379.313,23.586a70.646,70.646,0,0,0-5.325,4.861,33.654,33.654,0,0,1,25.165-6.262Z" transform="translate(-1978.962 -779.529)"/><path class="u" d="M2538.211,953.385c-.808-.72-1.821-1.618-2.885-2.557l-11.137,3.291-.023.06a45.522,45.522,0,0,1,3.479,13.6c3.318-2.014,6.954-5.3,11.109-11.032-.225-1.273-.4-2.407-.542-3.364Z" transform="translate(-1993.427 -781.627)"/><path class="v" d="M2326.639,1063.453c-14.065,4.919-12.506,19.734-25.448,41.585-6.7,11.31-12.921,11.14-12.921,11.14a299.456,299.456,0,0,1-34.711-2.2c-11.9-1.454-12.656,2.089-4.379,5.046,16.689,5.968,34.011,12.392,47.975,10.84s37.853-37.184,39.082-46.46c1.7-12.828-2.515-22.431-9.6-19.954Z" transform="translate(-1785.37 -864.88)"/><path class="c" d="M2394.869,1276.83c-.875,0-1.769-.01-2.688-.034a133.472,133.472,0,0,1-25.533-3.143c-7.321-1.487-11.354-2.306-16.046-.064a3.615,3.615,0,1,1-3.117-6.523c6.876-3.287,12.635-2.117,20.6-.5a127.252,127.252,0,0,0,24.273,3c12.116.3,19.5-1.495,23.245-5.647,3.337-3.7,4.313-9.916,3.073-19.561-.423-3.3-.85-6.048-1.224-8.47-1.056-6.835-1.756-11.351-.891-18.331.8-6.481,2.949-15.114,7.922-31.857a3.615,3.615,0,0,1,6.931,2.058c-9.265,31.2-8.8,34.235-6.817,47.025.382,2.466.814,5.26,1.25,8.653,1.529,11.894-.018,19.943-4.873,25.324-5,5.544-13.113,8.067-26.106,8.067Z" transform="translate(-1860.843 -953.934)"/><path class="s" d="M1927.369,1797.11c-14.827,7.251-22.809,11.408-27.563,11.011-1.121-.093-2.05-.206-2.83-.331-5.288,3.127-13.73,6.82-4.233,7.522,11.174.829,16.552-3.724,23.586-5.792s15.726-3.31,12.416-8.692a11.263,11.263,0,0,1-1.376-3.719Z" transform="translate(-1521.864 -1409.378)"/><path class="s" d="M2424.167,1747.14c-.364,11.739-1.978,23.372-9.157,25.569a12.054,12.054,0,0,1-5.172.462c-1.131,1.4-2.507,1.412-4.359,3.465-2.791,3.1,15.829.932,18,0s3.1-19.24,5.43-23.9c1.913-3.824-1.934-4.715-4.743-5.6Z" transform="translate(-1905.177 -1372.312)"/><path class="w" d="M2057.111,1178.448h-47.1a3.617,3.617,0,0,1-3.279-2.092L1987.7,1135.39a3.615,3.615,0,0,1,6.557-3.047l18.063,38.876h44.8a3.615,3.615,0,1,1,0,7.23Z" transform="translate(-1595.236 -914.719)"/><path class="v" d="M2175.341,1247.288c-9.518-.137-18.959-5.81-23.648-4.984s-20,11.45-18.068,11.863,14.068-5.877,14.481-5.973,3.037,4.356,9.518,5.993.046-4.86,20.141,1.211c13.069,3.946-2.425-8.111-2.425-8.111Z" transform="translate(-1703.609 -997.776)"/><path class="t" d="M2504.145,1005.9l1.4,11.268s-12.314.733-18.445,4.181-15.173,13.412-15.173,13.412l7.39-12.722,1.064-8.139,23.764-8Z" transform="translate(-1954.677 -822.48)"/><path class="d" d="M2370.307,1058.672c-9.146-1.714-13.379,6.483-19.31,19.863s-16.056,29.631-18.071,31.725-33.933,0-33.933,0-.966,9.242,0,10.347,6.484.963,6.484.963,2.208,1.764,4.276,3.158,19.586,4.015,27.726,3.6,15.586-1.1,16.689-2.345,23.313-35.452,24.691-47.728-3.884-18.711-8.552-19.586Z" transform="translate(-1826.081 -861.456)"/><path class="j" d="M2429.579,823.459c-17.3.828-14.587,26.855-14.587,26.855s4.493,1.388,13.908-.164c-.723-2.793-.413-9.932-.413-9.932a64.915,64.915,0,0,0,2.482,9.311c1.991.913,4.243.1,8.069-.821,1.968,8.27,7.522,11.764,11.323,12.96,4.2,1.321,8.65,2.9,13.616.414s2.237-27.863-.4-32.967c-3.956-7.661-10.536-14.518-21.916-10.9a84.545,84.545,0,0,0-12.08,5.242Z" transform="translate(-1912.33 -682.521)"/><path class="j" d="M2588.446,955.736l7.073,10.332s-7.839,19.587,14.962,28.46c17.856,6.951,15.752,19.2,7.685,31.511s4.826,23.07,4.826,23.07,1.968-13.642,19.317-16.216c23.656-3.512,30.354-35.271,12.684-51.153-14.62-13.141-19.07-2.258-28.967-14.052s-28.58-3.827-28.58-3.827l-6.848-9.987-2.151,1.862Z" transform="translate(-2041.109 -783.886)"/><path class="j" d="M2687.178,1029.493a.63.63,0,0,1-.552-.932c5.949-10.871,1.094-24.04-1.346-27.608-.26-.378-.506-.762-.764-1.167-2.4-3.744-5.384-8.4-21.314-11.271-3.835-.691-6.941-2.97-10.228-5.384-6.794-4.986-14.492-10.638-31.219-2.939a.629.629,0,0,1-.527-1.143c17.4-8.009,25.417-2.124,32.49,3.068,3.168,2.325,6.158,4.522,9.709,5.161,16.467,2.965,19.617,7.881,22.148,11.831.255.4.5.773.743,1.135,2.557,3.738,7.641,17.536,1.413,28.923a.632.632,0,0,1-.552.328Z" transform="translate(-2065.154 -799.645)"/><path class="j" d="M2520.718,931.39a24.929,24.929,0,0,1-3.675-.3c-6.053-.907-14.174-4.347-14.809-23.664a.629.629,0,1,1,1.257-.041c.261,7.962,1.842,13.853,4.695,17.51a13.191,13.191,0,0,0,9.043,4.951c5.6.839,9.317-.2,11.037-3.074a.629.629,0,1,1,1.079.646c-1.578,2.64-4.472,3.969-8.627,3.969Z" transform="translate(-1977.159 -748.954)"/><path class="c" d="M1662.556,1470.917h4.648l18.083-138.227h-10.226l-12.506,138.227Z" transform="translate(-1354.306 -1064.883)"/><path class="c" d="M2208.107,1470.917h-4.648l-18.084-138.227H2195.6l12.5,138.227Z" transform="translate(-1742.12 -1064.883)"/></g><g transform="translate(242.102 544.985)"><path class="x" d="M1087.666,1416.14c10.626,9.7,6.006,19.406-1.849,37.43s-9.241,84.557-9.241,84.557l6.47-.925s-.925-68.387,7.855-86.868,12.476-27.725,20.331-21.72-23.566-12.475-23.566-12.475Z" transform="translate(-1013.423 -1373.59)"/><path class="w" d="M1090.858,1321.43c1.29-5.75,8.954-11.974,19.2-17.249-1.525,8.48-6.412,22.348-1.355,25.193,6.821,3.835.665-15.526,3.3-26.169a126.73,126.73,0,0,1,31.864-10.452c-.014.041-.027.075-.041.116-6.009,15.25-13.864,21.255-10.629,23.566,2.433,1.74,10.36-15.874,20.826-24.9,7.859-.42,14.5.645,18.437,3.757,6.077,4.812,10.155,9.08,4.044,23.73a27.44,27.44,0,0,1-13.271,4.811c-13.861,1.385-20.331,1.85-10.626,6.47,4.75,2.263,12.714-.13,19.174-1.583-2.1,3.859-4.671,8.227-7.8,13.206a48.985,48.985,0,0,1-6.494,8.265c-4.467.856-8.363.867-10.424-.017-6.47-2.774-23.1-11.554-27.264-7.859-4.068,3.621,30.81,5.911,28.39,15.106-16.9,9.739-36.249,5.105-39.668-3.838-4.593-12.012-21.549-14.837-17.662-32.148Z" transform="translate(-1022.453 -1291.444)"/><path class="w" d="M1093.413,1560.451c-18.485-13.864-37.43-.925-47.131,13.861s-2.774,48.056-2.774,48.056,3.7,0,3.7-1.385-10.165-39.276,13.864-56.375c15.031-10.694,25.876-5.545,27.261-.461s-6.006,14.325-6.006,14.325l11.09-18.021Z" transform="translate(-990.059 -1464.761)"/><path class="w" d="M1068.219,1488.36c18.481,0,24.49,28.65,19.406,45.285s-12.015,47.592-12.015,47.592l-4.62-4.62s17.56-43.435,13.4-62.842-14.325-22.644-16.171-22.644,0-2.771,0-2.771Z" transform="translate(-1007.376 -1421.166)"/><path class="w" d="M1106.277,1613.548a13.429,13.429,0,0,1,4.863-4.088,35.932,35.932,0,0,1-.959,3.962c-2.317,7.579-5.016,18.129-7.268,27.374-.2-1.184-.519-3.01-1.007-5.822-.116-.665-.2-1.389-.27-2.153a178.622,178.622,0,0,0,4.641-19.273Z" transform="translate(-1029.932 -1500.942)"/><path class="x" d="M1111.6,1571.55c35.116-14.785,16.614-35.078,47.575-21.678,2.18.945,4.839,3.327,7.5,6.606a23.054,23.054,0,0,1-9.807.788c-9.244-1.385-6.009,6.006,9.24,7.855a34.222,34.222,0,0,1,7.146,1.508c7.265,13.953,10.537,32.311-4.836,38.692a34.8,34.8,0,0,1-10.943,2.245c-4.743-3.771,1.161-25.589-6.152-22.576-7.023,2.89,2.2,18.7.935,22.685a101.229,101.229,0,0,1-21.938-3.074c-2.9-1.624-5.115-3.8-5.8-6.674-2.31-9.7,12.936-15.711,13.4-24.026.423-7.647-5.589,16.823-21.521,20.422-14.407-6.729-21.215-15.86-4.8-22.774Z" transform="translate(-1030.196 -1458.805)"/><path class="x" d="M947.881,1480.565c3.7-7.855-6.009-9.7-5.545-3.7.41,5.323.454,18.263-5.006,21.784a85.673,85.673,0,0,1-31.905-10.6,3.91,3.91,0,0,1,.406-2.409c4.16-8.319,30.96-15.25,22.641-18.02-6.623-2.208-18.232,10.824-27.585,17.389-5.617-4.262-9.38-9.343-9.38-15.014,0-7.678,9.329-16.366,21.392-20.522,5.429.55,10.469,3.518,18.348,7.982,11.636,6.592,8.944-4.068-2.058-10.394a33.138,33.138,0,0,1,25.951,14.243s-.662,4.142,3.723,10.554c11.967,17.485-1.843,27.694-18.348,27.029.935-4.607,4.811-12.9,7.367-18.331Z" transform="translate(-891.505 -1393.965)"/><path class="w" d="M1183.148,1569.343c9.036,6.982,19.075,15.148,31.4,20.692s9.858,23.617,9.858,23.617,1.846-15.608-8.422-20.948-17.044-11.7-24.848-12.939a112.8,112.8,0,0,1-12.117-2.464s2.464-4.927,1.024-6.777,3.109-1.181,3.109-1.181Z" transform="translate(-1080.907 -1474.437)"/><path class="x" d="M1193.592,1329.27c-33.065,8.831-57.3,29.988-61.818,35.12s-4.518,6.572-4.518,6.572l3.491,6.572,1.641-.819s-2.669-5.548,4.313-12.735c12.042-12.4,26.7-22.18,36.764-26.493s20.126-8.217,20.126-8.217Z" transform="translate(-1046.809 -1316.363)"/><path class="c" d="M1022.773,1778.2H1035.4a16.265,16.265,0,0,0,16.267-16.267V1732.91h-45.166v29.025a16.268,16.268,0,0,0,16.267,16.267Z" transform="translate(-967.263 -1582.267)"/><path class="d" d="M1051.672,1751.3h-45.165v-3.18h45.165v3.18Z" transform="translate(-967.263 -1592.287)"/><path class="d" d="M1051.672,1766.98h-45.165v-1.87h45.165v1.87Z" transform="translate(-967.263 -1603.48)"/></g><path class="b" d="M72.658,0c40.128,0,9.683,35.126,9.683,75.254s30.445,70.061-9.683,70.061A72.658,72.658,0,0,1,72.658,0Z" transform="translate(495.414 340.037) rotate(-60)"/></g></svg>