<svg id="svg" version="1.1" xmlns="http://www.w3.org/2000/svg" xmlns:xlink="http://www.w3.org/1999/xlink" width="400" height="400" viewBox="0, 0, 400,400"><g id="svgg"><path id="path0" d="M200.000 48.275 L 200.000 86.296 203.241 86.300 C 247.526 86.354,291.100 117.598,306.692 160.477 C 307.578 162.914,308.455 164.777,308.677 164.693 C 308.895 164.610,323.324 159.921,340.741 154.274 C 358.157 148.627,374.199 143.424,376.389 142.712 C 378.579 142.000,380.370 141.362,380.370 141.295 C 380.370 139.971,373.997 124.361,370.442 116.979 C 340.380 54.551,276.533 12.924,207.130 10.503 L 200.000 10.254 200.000 48.275 " stroke="none" fill="#04a49c" fill-rule="evenodd"></path><path id="path1" d="M193.889 10.389 C 69.698 15.735,-15.530 132.341,17.538 251.667 C 39.520 330.990,112.729 387.740,195.370 389.520 C 323.453 392.278,417.046 271.359,382.338 147.963 C 380.326 140.811,380.731 141.267,377.381 142.379 C 375.868 142.882,361.963 147.394,346.481 152.406 C 331.000 157.418,316.068 162.265,313.299 163.178 L 308.265 164.837 309.316 168.437 C 330.426 240.750,275.529 313.697,200.000 313.697 C 125.966 313.697,71.762 244.180,89.688 172.222 C 101.762 123.756,144.901 88.510,194.722 86.406 L 200.000 86.183 200.000 48.299 L 200.000 10.415 201.389 10.270 L 202.778 10.125 201.481 10.121 C 200.769 10.119,197.352 10.240,193.889 10.389 M209.907 10.632 C 210.366 10.720,211.116 10.720,211.574 10.632 C 212.032 10.543,211.657 10.471,210.741 10.471 C 209.824 10.471,209.449 10.543,209.907 10.632 M329.614 61.574 C 330.522 62.542,331.314 63.333,331.373 63.333 C 331.652 63.333,331.357 63.001,329.722 61.466 L 327.963 59.815 329.614 61.574 M338.503 70.463 C 339.411 71.431,340.203 72.222,340.262 72.222 C 340.540 72.222,340.246 71.890,338.611 70.355 L 336.852 68.704 338.503 70.463 M205.838 86.558 C 206.298 86.647,206.965 86.643,207.319 86.551 C 207.673 86.458,207.296 86.386,206.481 86.390 C 205.667 86.394,205.377 86.470,205.838 86.558 M280.185 119.630 C 282.215 121.667,283.958 123.333,284.060 123.333 C 284.162 123.333,282.585 121.667,280.556 119.630 C 278.526 117.593,276.782 115.926,276.681 115.926 C 276.579 115.926,278.156 117.593,280.185 119.630 " stroke="none" fill="#ccecec" fill-rule="evenodd"></path><path id="path2" d="M0.000 200.000 L 0.000 400.000 200.000 400.000 L 400.000 400.000 400.000 200.000 L 400.000 0.000 200.000 0.000 L 0.000 0.000 0.000 200.000 M214.630 10.775 C 288.452 15.762,357.259 69.052,379.570 138.519 C 418.445 259.561,337.482 380.485,211.667 389.294 C 124.027 395.431,41.083 336.628,17.538 251.667 C -17.803 124.142,82.267 1.833,214.630 10.775 M189.259 86.685 C 102.703 96.116,57.537 192.025,105.839 263.826 C 148.372 327.051,242.675 330.603,289.133 270.730 C 344.321 199.606,301.895 98.267,212.222 87.018 C 207.923 86.479,193.121 86.264,189.259 86.685 " stroke="none" fill="#fbfcfc" fill-rule="evenodd"></path></g></svg>