<svg xmlns="http://www.w3.org/2000/svg" width="26" height="26" viewBox="0 0 26 26"><defs><style>.a{fill:#02a09e;}.b{fill:#fff;}</style></defs><g transform="translate(-0.062 -0.286)"><circle class="a" cx="13" cy="13" r="13" transform="translate(0.062 0.286)"/><path class="b" d="M6.651,35.1A3.447,3.447,0,1,0,10.1,38.548,3.442,3.442,0,0,0,6.651,35.1Zm0,5.689a2.241,2.241,0,1,1,2.241-2.241,2.245,2.245,0,0,1-2.241,2.241Zm4.392-5.83a.8.8,0,1,1-.8-.8A.8.8,0,0,1,11.043,34.96Zm2.283.816a3.979,3.979,0,0,0-1.086-2.817,4.005,4.005,0,0,0-2.817-1.086c-1.11-.063-4.437-.063-5.548,0a4,4,0,0,0-2.817,1.083A3.992,3.992,0,0,0-.028,35.773c-.063,1.11-.063,4.437,0,5.548a3.979,3.979,0,0,0,1.086,2.817,4.01,4.01,0,0,0,2.817,1.086c1.11.063,4.437.063,5.548,0a3.979,3.979,0,0,0,2.817-1.086,4.005,4.005,0,0,0,1.086-2.817C13.39,40.21,13.39,36.886,13.327,35.776Zm-1.434,6.736a2.269,2.269,0,0,1-1.278,1.278,14.818,14.818,0,0,1-3.963.27,14.934,14.934,0,0,1-3.963-.27,2.269,2.269,0,0,1-1.278-1.278,14.818,14.818,0,0,1-.27-3.963,14.934,14.934,0,0,1,.27-3.963,2.269,2.269,0,0,1,1.278-1.278,14.818,14.818,0,0,1,3.963-.27,14.934,14.934,0,0,1,3.963.27,2.269,2.269,0,0,1,1.278,1.278,14.818,14.818,0,0,1,.27,3.963A14.81,14.81,0,0,1,11.892,42.511Z" transform="translate(6.738 -25.366)"/></g></svg>