<svg id="LinkedIn-Icon" xmlns="http://www.w3.org/2000/svg" width="26" height="26" viewBox="0 0 26 26">
  <g id="Group_174" data-name="Group 174">
    <circle id="Ellipse_10" data-name="Ellipse 10" cx="13" cy="13" r="13" fill="#001a3a"/>
  </g>
  <path id="linkedin-in" d="M2.96,13.232H.218V4.4H2.96ZM1.588,3.2A1.6,1.6,0,1,1,3.175,1.6,1.6,1.6,0,0,1,1.588,3.2ZM13.219,13.232H11.337v-4.3c0-1.024-.021-2.337-1.425-2.337C8.486,6.6,8.268,7.71,8.268,8.861v4.371H5.53V4.4H8.159v1.2H8.2a2.88,2.88,0,0,1,2.594-1.426c2.774,0,3.284,1.827,3.284,4.2v4.849Z" transform="translate(6.971 4.912)" fill="#fff"/>
</svg>
