<svg xmlns="http://www.w3.org/2000/svg" width="73.023" height="73.524" viewBox="0 0 73.023 73.524">
  <g id="Group_234" data-name="Group 234" transform="translate(-1617.977 -4005.477)">
    <g id="Group_151" data-name="Group 151" transform="translate(1273 633)">
      <circle id="Ellipse_1" data-name="Ellipse 1" cx="35" cy="35" r="35" transform="translate(348 3375)" fill="#fff"/>
    </g>
    <g id="Group_73" data-name="Group 73" transform="translate(1618.227 4005.727)">
      <path id="Path_141" data-name="Path 141" d="M3560.929,599.8a19.51,19.51,0,1,0,19.5,19.505,19.532,19.532,0,0,0-19.5-19.505Zm0,40.22a20.71,20.71,0,1,1,20.706-20.715,20.737,20.737,0,0,1-20.706,20.715Z" transform="translate(-3524.529 -581.166)" fill="#3176bb" stroke="#3176bb" stroke-width="0.5"/>
      <path id="Path_142" data-name="Path 142" d="M3545.895,605.447a.6.6,0,0,1-.445-.2l-11.623-12.838a.6.6,0,0,1,.89-.806l11.623,12.838a.6.6,0,0,1-.042.847.59.59,0,0,1-.4.156Z" transform="translate(-3524.025 -580.613)" fill="#3176bb" stroke="#3176bb" stroke-width="0.5"/>
      <path id="Path_143" data-name="Path 143" d="M3581.711,609.019a.6.6,0,0,1-.387-1.059l11.309-9.547a.6.6,0,1,1,.773.917l-11.309,9.547a.6.6,0,0,1-.387.141Z" transform="translate(-3527.675 -581.141)" fill="#3176bb" stroke="#3176bb" stroke-width="0.5"/>
      <path id="Path_144" data-name="Path 144" d="M3590.594,642.695a.6.6,0,0,1-.407-.161l-9.813-9.1a.6.6,0,0,1,.814-.88l9.813,9.1a.6.6,0,0,1-.407,1.04Z" transform="translate(-3527.603 -583.766)" fill="#3176bb" stroke="#3176bb" stroke-width="0.5"/>
      <path id="Path_145" data-name="Path 145" d="M3578.135,652.977a.6.6,0,0,1-.544-.346l-5.616-12a.6.6,0,1,1,1.087-.509l5.617,12a.6.6,0,0,1-.544.855Z" transform="translate(-3526.967 -584.334)" fill="#3176bb" stroke="#3176bb" stroke-width="0.5"/>
      <path id="Path_146" data-name="Path 146" d="M3528.249,651.755a.6.6,0,0,1-.375-1.068l17.893-14.347a.6.6,0,1,1,.75.935l-17.892,14.347a.6.6,0,0,1-.376.133Z" transform="translate(-3523.562 -584.059)" fill="#3176bb" stroke="#3176bb" stroke-width="0.5"/>
      <path id="Path_147" data-name="Path 147" d="M3562.72,598.7h-.008a.6.6,0,0,1-.594-.607l.154-13.244a.6.6,0,0,1,.6-.593h.007a.6.6,0,0,1,.594.607l-.154,13.245a.6.6,0,0,1-.6.593Z" transform="translate(-3526.214 -580.062)" fill="#3176bb" stroke="#3176bb" stroke-width="0.5"/>
      <path id="Path_148" data-name="Path 148" d="M3562.762,580.914a1.7,1.7,0,1,0,1.7,1.7,1.7,1.7,0,0,0-1.7-1.7Zm0,4.6a2.9,2.9,0,1,1,2.9-2.9,2.9,2.9,0,0,1-2.9,2.9Z" transform="translate(-3526.04 -579.713)" fill="#3176bb" stroke="#3176bb" stroke-width="0.5"/>
      <path id="Path_149" data-name="Path 149" d="M3595.67,595.374a1.7,1.7,0,1,0,1.707,1.7,1.7,1.7,0,0,0-1.707-1.7Zm0,4.593a2.9,2.9,0,1,1,2.908-2.9,2.9,2.9,0,0,1-2.908,2.9Z" transform="translate(-3528.572 -580.826)" fill="#3176bb" stroke="#3176bb" stroke-width="0.5"/>
      <path id="Path_150" data-name="Path 150" d="M3532.4,588.272a1.7,1.7,0,1,0,1.7,1.695,1.7,1.7,0,0,0-1.7-1.695Zm0,4.594a2.9,2.9,0,1,1,2.9-2.9,2.9,2.9,0,0,1-2.9,2.9Z" transform="translate(-3523.705 -580.279)" fill="#3176bb" stroke="#3176bb" stroke-width="0.5"/>
      <path id="Path_151" data-name="Path 151" d="M3526.118,652.021a1.7,1.7,0,1,0,1.7,1.7,1.7,1.7,0,0,0-1.7-1.7Zm0,4.6a2.9,2.9,0,1,1,2.9-2.9,2.905,2.905,0,0,1-2.9,2.9Z" transform="translate(-3523.221 -585.183)" fill="#3176bb" stroke="#3176bb" stroke-width="0.5"/>
      <path id="Path_152" data-name="Path 152" d="M3579.476,653.748a1.7,1.7,0,1,0,1.694,1.7,1.7,1.7,0,0,0-1.694-1.7Zm0,4.592a2.9,2.9,0,1,1,2.895-2.9,2.9,2.9,0,0,1-2.895,2.9Z" transform="translate(-3527.325 -585.316)" fill="#3176bb" stroke="#3176bb" stroke-width="0.5"/>
      <path id="Path_153" data-name="Path 153" d="M3593.044,642.648a1.7,1.7,0,1,0,1.7,1.707,1.7,1.7,0,0,0-1.7-1.707Zm0,4.6a2.9,2.9,0,1,1,2.906-2.894,2.9,2.9,0,0,1-2.906,2.894Z" transform="translate(-3528.37 -584.462)" fill="#3176bb" stroke="#3176bb" stroke-width="0.5"/>
      <path id="Path_154" data-name="Path 154" d="M3561.5,605.222a14.659,14.659,0,1,0,14.654,14.654,14.673,14.673,0,0,0-14.654-14.654Zm0,30.672a16.014,16.014,0,1,1,16.01-16.018,16.036,16.036,0,0,1-16.01,16.018Z" transform="translate(-3524.934 -581.571)" fill="#3176bb" stroke="#3176bb" stroke-width="0.5"/>
      <path id="Path_155" data-name="Path 155" d="M3562.472,619.433a4.893,4.893,0,1,0-4.9-4.9A4.9,4.9,0,0,0,3562.472,619.433Zm0-8.586a3.424,3.424,0,1,1,.931,1.274.6.6,0,0,0-.451-.128.6.6,0,0,0-.405.237,3.693,3.693,0,0,1-3.664,1.412A3.7,3.7,0,0,1,3562.472,610.847Zm-2.881,4.063a4.843,4.843,0,0,0,3.539-1.514,4.949,4.949,0,0,0,3.017.724,3.7,3.7,0,1,1-7.361.724A4.818,4.818,0,0,0,3559.591,614.91Z" transform="translate(-3525.864 -582.016)" fill="#3176bb" stroke="#3176bb" stroke-width="0.5"/>
      <path id="Path_156" data-name="Path 156" d="M3565.6,621.128H3559a5.18,5.18,0,0,0-5.177,5.171v2.809a.6.6,0,1,0,1.2,0V626.3a3.979,3.979,0,0,1,3.978-3.971h6.609a3.979,3.979,0,0,1,3.978,3.971v2.809a.6.6,0,1,0,1.2,0V626.3A5.18,5.18,0,0,0,3565.6,621.128Z" transform="translate(-3525.575 -582.899)" fill="#3176bb" stroke="#3176bb" stroke-width="0.5"/>
    </g>
  </g>
</svg>
