<?xml version="1.0" encoding="utf-8"?>
<!-- Generator: Adobe Illustrator 24.2.3, SVG Export Plug-In . SVG Version: 6.00 Build 0)  -->
<svg version="1.1" id="Layer_1" xmlns="http://www.w3.org/2000/svg" xmlns:xlink="http://www.w3.org/1999/xlink" x="0px" y="0px"
	 viewBox="0 0 73 73.5" style="enable-background:new 0 0 73 73.5;" xml:space="preserve">
<style type="text/css">
	.st0{fill:#FFFFFF;}
	.st1{fill:#3176BB;stroke:#3176BB;stroke-width:0.5;}
	.st2{fill:none;stroke:#3176BB;stroke-width:1.5;}
</style>
<g id="Group_234" transform="translate(-1617.977 -4005.477)">
	<g id="Group_151" transform="translate(1273 633)">
		<circle id="Ellipse_1" class="st0" cx="383" cy="3410" r="35"/>
	</g>
	<g id="Group_73" transform="translate(1618.227 4005.727)">
		<path id="Path_141" class="st1" d="M36.4,18.6c-10.8,0-19.5,8.7-19.5,19.5s8.7,19.5,19.5,19.5s19.5-8.7,19.5-19.5l0,0
			C55.9,27.4,47.2,18.7,36.4,18.6z M36.4,58.9c-11.4,0-20.7-9.3-20.7-20.7S25,17.4,36.4,17.4s20.7,9.3,20.7,20.7
			C57.1,49.6,47.8,58.8,36.4,58.9z"/>
		<path id="Path_142" class="st1" d="M21.9,24.8c-0.2,0-0.3-0.1-0.4-0.2L9.8,11.8c-0.2-0.2-0.2-0.6,0-0.8s0.6-0.2,0.8,0l11.6,12.8
			c0.2,0.2,0.2,0.6,0,0.8C22.2,24.8,22,24.8,21.9,24.8L21.9,24.8z"/>
		<path id="Path_143" class="st1" d="M54,27.9c-0.3,0-0.6-0.3-0.6-0.6c0-0.2,0.1-0.3,0.2-0.5L65,17.3c0.2-0.2,0.6-0.2,0.8,0
			c0.2,0.2,0.2,0.6,0,0.8l0,0l-11.3,9.5C54.3,27.8,54.2,27.9,54,27.9L54,27.9z"/>
		<path id="Path_144" class="st1" d="M63,58.9c-0.2,0-0.3-0.1-0.4-0.2l-9.8-9.1c-0.2-0.2-0.2-0.6,0-0.8s0.6-0.2,0.8,0l9.8,9.1
			c0.2,0.2,0.3,0.6,0,0.8C63.3,58.9,63.2,58.9,63,58.9L63,58.9z"/>
		<path id="Path_145" class="st1" d="M51.2,68.6c-0.2,0-0.4-0.1-0.5-0.3l-5.6-12c-0.1-0.3,0-0.7,0.3-0.8s0.7,0,0.8,0.3l5.6,12
			c0.1,0.3,0,0.7-0.3,0.8C51.3,68.6,51.3,68.6,51.2,68.6z"/>
		<path id="Path_146" class="st1" d="M4.7,67.7c-0.3,0-0.6-0.3-0.6-0.6c0-0.2,0.1-0.4,0.2-0.5l17.9-14.3c0.2-0.2,0.6-0.2,0.8,0.1
			s0.2,0.6-0.1,0.8l0,0L5.1,67.6C5,67.6,4.8,67.7,4.7,67.7z"/>
		<path id="Path_147" class="st1" d="M36.5,18.6L36.5,18.6c-0.3,0-0.6-0.3-0.6-0.6l0,0l0.2-13.2c0-0.3,0.3-0.6,0.6-0.6l0,0
			c0.3,0,0.6,0.3,0.6,0.6l0,0L37.1,18C37.1,18.4,36.8,18.6,36.5,18.6L36.5,18.6z"/>
		<path id="Path_148" class="st1" d="M36.7,1.2C35.8,1.2,35,2,35,2.9s0.8,1.7,1.7,1.7s1.7-0.8,1.7-1.7l0,0C38.4,2,37.7,1.2,36.7,1.2
			z M36.7,5.8c-1.6,0-2.9-1.3-2.9-2.9S35.1,0,36.7,0s2.9,1.3,2.9,2.9l0,0C39.6,4.5,38.3,5.8,36.7,5.8z"/>
		<path id="Path_149" class="st1" d="M67.1,14.5c-0.9,0-1.7,0.8-1.7,1.7c0,0.9,0.8,1.7,1.7,1.7c0.9,0,1.7-0.8,1.7-1.7
			C68.8,15.3,68,14.5,67.1,14.5L67.1,14.5z M67.1,19.1c-1.6,0-2.9-1.3-2.9-2.9s1.3-2.9,2.9-2.9s2.9,1.3,2.9,2.9S68.7,19.1,67.1,19.1
			L67.1,19.1z"/>
		<path id="Path_150" class="st1" d="M8.7,8C7.8,8,7,8.8,7,9.7s0.8,1.7,1.7,1.7s1.7-0.8,1.7-1.7l0,0C10.4,8.8,9.6,8,8.7,8z
			 M8.7,12.6c-1.6,0-2.9-1.3-2.9-2.9s1.3-2.9,2.9-2.9s2.9,1.3,2.9,2.9l0,0C11.6,11.3,10.3,12.6,8.7,12.6z"/>
		<path id="Path_151" class="st1" d="M2.9,66.8c-0.9,0-1.7,0.8-1.7,1.7c0,0.9,0.8,1.7,1.7,1.7s1.7-0.8,1.7-1.7l0,0
			C4.6,67.6,3.8,66.8,2.9,66.8z M2.9,71.4c-1.6,0-2.9-1.3-2.9-2.9s1.3-2.9,2.9-2.9s2.9,1.3,2.9,2.9l0,0C5.8,70.1,4.5,71.4,2.9,71.4z
			"/>
		<path id="Path_152" class="st1" d="M52.2,68.4c-0.9,0-1.7,0.8-1.7,1.7c0,0.9,0.8,1.7,1.7,1.7s1.7-0.8,1.7-1.7l0,0
			C53.8,69.2,53.1,68.4,52.2,68.4z M52.2,73c-1.6,0-2.9-1.3-2.9-2.9s1.3-2.9,2.9-2.9s2.9,1.3,2.9,2.9l0,0C55,71.7,53.8,73,52.2,73z"
			/>
		<path id="Path_153" class="st1" d="M64.7,58.2c-0.9,0-1.7,0.8-1.7,1.7s0.8,1.7,1.7,1.7s1.7-0.8,1.7-1.7
			C66.4,59,65.6,58.2,64.7,58.2L64.7,58.2z M64.7,62.8c-1.6,0-2.9-1.3-2.9-2.9c0-1.6,1.3-2.9,2.9-2.9c1.6,0,2.9,1.3,2.9,2.9l0,0
			C67.6,61.5,66.3,62.8,64.7,62.8z"/>
		<path id="Path_154" class="st1" d="M36.6,23.7c-8.1,0-14.7,6.6-14.7,14.7s6.6,14.7,14.7,14.7s14.7-6.6,14.7-14.7l0,0
			C51.2,30.2,44.7,23.7,36.6,23.7z M36.6,54.3c-8.8,0-16-7.2-16-16s7.2-16,16-16s16,7.2,16,16S45.4,54.3,36.6,54.3z"/>
		<path class="st1" d="M41,30.9c-1.1,0.2-2.3-0.1-3.1-0.7C37.7,30,37.4,30,37.3,30c-0.2,0-0.3,0.1-0.4,0.2c-0.8,1-2.2,1.6-3.6,1.5
			c0,0.4,0,0.8-0.1,1.2c0.1,0,0.3,0,0.4,0c1.4,0,2.8-0.5,3.8-1.5c0.9,0.6,2.1,0.8,3.2,0.7v0.1l0,0c0.1,0,0.2,0,0.3,0
			C41,31.8,40.8,31.3,41,30.9z"/>
		<path id="Path_156" class="st1" d="M40,38.2h-6.6c-2.9,0-5.2,2.3-5.2,5.2v2.8c0,0.3,0.3,0.6,0.6,0.6c0.3,0,0.6-0.3,0.6-0.6l0,0
			v-2.8c0-2.2,1.8-4,4-4H40c2.2,0,4,1.8,4,4v2.8c0,0.3,0.3,0.6,0.6,0.6s0.6-0.3,0.6-0.6l0,0v-2.8C45.2,40.5,42.9,38.2,40,38.2z"/>
	</g>
</g>
<circle class="st2" cx="36.9" cy="32.5" r="4.3"/>
</svg>
