<svg xmlns="http://www.w3.org/2000/svg" width="62.774" height="62.775" viewBox="0 0 62.774 62.775"><defs><style>.a{fill:#01b0ae;}</style></defs><g transform="translate(0 0)"><circle class="a" cx="5.129" cy="5.129" r="5.129" transform="translate(24.292 43.059)"/><path class="a" d="M365.162,299.616a30.7,30.7,0,0,0-.159-3.124,31.442,31.442,0,1,0,.077,5.328c0-.055.009-.108.012-.162.042-.66.07-1.324.07-1.994v-.027A.151.151,0,0,1,365.162,299.616Zm-61.817.048A30.428,30.428,0,0,1,329.813,269.5a13.61,13.61,0,0,1,8.392,2.107,18.392,18.392,0,0,1,8.188,13.588h-1.422c-3.226-8.325-10.79-11.04-15.7-11.921a14.113,14.113,0,0,0-13.316,4.938,10.482,10.482,0,0,0-2.088,7.089c1.045,7.855,9.831,10.87,9.831,10.87l9.416,4.325c14.846,6.188,17.836,14.532,17.54,20.765-.063.761-.707,4.78-7.025,7.179a30.4,30.4,0,0,1-40.284-28.776ZM336.938,283.3a5.13,5.13,0,1,1-5.129-5.131A5.13,5.13,0,0,1,336.938,283.3Z" transform="translate(-302.388 -268.276)"/><path class="a" d="M326.4,329.194s-14.155-3.694-13.217-15.819c0,0-3.42,5.863,2.134,11.682L320,327.188l3.625,2.007" transform="translate(-302.388 -268.276)"/><path class="a" d="M313.188,313.375s6.111,16.719,20.587,16.719l-3.743.438-6.313-1.719-4.443-1.656-3.588-3.719-2.5-2.531-.781-3.75" transform="translate(-302.388 -268.276)"/></g></svg>