<svg xmlns="http://www.w3.org/2000/svg" width="225.739" height="62.775" viewBox="0 0 225.739 62.775"><defs><style>.a{fill:#02a09e;}</style></defs><g transform="translate(-302.388 -268.276)"><path class="a" d="M381.4,297.624a14.709,14.709,0,0,1-4.87-2.288l2.151-4.771a14.6,14.6,0,0,0,4.185,2.074,15.736,15.736,0,0,0,4.851.782,7.743,7.743,0,0,0,3.989-.8,2.419,2.419,0,0,0,1.292-2.129,2.043,2.043,0,0,0-.764-1.626,5.778,5.778,0,0,0-1.954-1.034q-1.194-.391-3.228-.861a44.543,44.543,0,0,1-5.123-1.486,8.327,8.327,0,0,1-3.423-2.387,6.444,6.444,0,0,1-1.428-4.38,7.628,7.628,0,0,1,1.292-4.323,8.686,8.686,0,0,1,3.892-3.068,15.845,15.845,0,0,1,6.355-1.135,21.067,21.067,0,0,1,5.125.626,15.147,15.147,0,0,1,4.38,1.8l-1.956,4.809a15.282,15.282,0,0,0-7.586-2.148,7.124,7.124,0,0,0-3.932.858,2.629,2.629,0,0,0-1.271,2.271,2.216,2.216,0,0,0,1.468,2.092,23.177,23.177,0,0,0,4.476,1.35,44.653,44.653,0,0,1,5.125,1.486,8.491,8.491,0,0,1,3.422,2.347,6.293,6.293,0,0,1,1.428,4.341,7.474,7.474,0,0,1-1.31,4.282,8.8,8.8,0,0,1-3.932,3.072,16.082,16.082,0,0,1-6.376,1.134A22.424,22.424,0,0,1,381.4,297.624Z"/><path class="a" d="M419.2,279.007q2.621,2.331,2.621,7.02v12.01H416.11v-2.623q-1.723,2.937-6.416,2.936a9.951,9.951,0,0,1-4.2-.821,6.284,6.284,0,0,1-2.719-2.268,5.914,5.914,0,0,1-.939-3.285,5.475,5.475,0,0,1,2.211-4.615q2.207-1.687,6.824-1.684h4.851a3.9,3.9,0,0,0-1.212-3.071,5.344,5.344,0,0,0-3.639-1.074,10.635,10.635,0,0,0-3.3.528,8.75,8.75,0,0,0-2.758,1.427l-2.19-4.263a13.22,13.22,0,0,1,4.126-1.879,18.565,18.565,0,0,1,4.947-.662Q416.576,276.682,419.2,279.007Zm-5.2,14.511a3.965,3.965,0,0,0,1.722-2.131v-2.152h-4.185q-3.754,0-3.754,2.465a2.192,2.192,0,0,0,.918,1.857,4.137,4.137,0,0,0,2.523.686A5.307,5.307,0,0,0,413.995,293.518Z"/><path class="a" d="M460.559,279.007q2.326,2.331,2.326,6.982v12.047h-6.1V286.928a5.7,5.7,0,0,0-1.035-3.734,3.646,3.646,0,0,0-2.955-1.234,4.346,4.346,0,0,0-3.4,1.391,5.97,5.97,0,0,0-1.252,4.123v10.563h-6.1V286.929q0-4.967-3.99-4.969a4.3,4.3,0,0,0-3.363,1.391,5.97,5.97,0,0,0-1.252,4.123v10.563h-6.1V276.993h5.828v2.426a7.718,7.718,0,0,1,2.877-2.034,9.66,9.66,0,0,1,3.734-.7,9.048,9.048,0,0,1,4.027.879,7.139,7.139,0,0,1,2.895,2.561,8.6,8.6,0,0,1,3.266-2.541,10.273,10.273,0,0,1,4.32-.9A8.474,8.474,0,0,1,460.559,279.007Z"/><path class="a" d="M484.357,279.007q2.622,2.331,2.623,7.02v12.01h-5.711v-2.623q-1.725,2.937-6.414,2.936a9.945,9.945,0,0,1-4.2-.821,6.279,6.279,0,0,1-2.719-2.268,5.9,5.9,0,0,1-.939-3.285,5.476,5.476,0,0,1,2.209-4.615q2.209-1.687,6.826-1.684h4.852a3.9,3.9,0,0,0-1.213-3.071,5.344,5.344,0,0,0-3.639-1.074,10.641,10.641,0,0,0-3.3.528,8.739,8.739,0,0,0-2.758,1.427l-2.189-4.263a13.184,13.184,0,0,1,4.127-1.879,18.555,18.555,0,0,1,4.945-.662Q481.737,276.682,484.357,279.007Zm-5.2,14.511a3.971,3.971,0,0,0,1.723-2.131v-2.152h-4.188q-3.756,0-3.754,2.465a2.2,2.2,0,0,0,.918,1.857,4.141,4.141,0,0,0,2.525.686A5.307,5.307,0,0,0,479.156,293.518Z"/><path class="a" d="M506.064,297.019a6.239,6.239,0,0,1-2.207,1,11.184,11.184,0,0,1-2.76.333,8.19,8.19,0,0,1-5.807-1.918,7.321,7.321,0,0,1-2.055-5.633v-8.643h-3.246v-4.692h3.246V272.34h6.1v5.123h5.24v4.692h-5.24v8.565a2.884,2.884,0,0,0,.684,2.055,2.545,2.545,0,0,0,1.938.723,3.9,3.9,0,0,0,2.463-.782Z"/><path class="a" d="M525.506,279.007q2.622,2.331,2.621,7.02v12.01h-5.711v-2.623q-1.722,2.937-6.416,2.936a9.951,9.951,0,0,1-4.2-.821,6.273,6.273,0,0,1-2.717-2.268,5.9,5.9,0,0,1-.939-3.285,5.478,5.478,0,0,1,2.211-4.615q2.209-1.687,6.824-1.684h4.852a3.886,3.886,0,0,0-1.215-3.071,5.336,5.336,0,0,0-3.637-1.074,10.651,10.651,0,0,0-3.3.528,8.739,8.739,0,0,0-2.758,1.427l-2.189-4.263a13.226,13.226,0,0,1,4.127-1.879,18.57,18.57,0,0,1,4.947-.662Q522.883,276.682,525.506,279.007Zm-5.2,14.511a3.971,3.971,0,0,0,1.723-2.131v-2.152h-4.188q-3.753,0-3.754,2.465a2.2,2.2,0,0,0,.918,1.857,4.142,4.142,0,0,0,2.525.686A5.307,5.307,0,0,0,520.3,293.518Z"/><path class="a" d="M393.4,304.9v20.189h-2.105V315.78H378.66v9.314h-2.134V304.9h2.134v9h12.631v-9Z"/><path class="a" d="M421.8,323.249V325.1H407.526V304.906h13.843v1.848H409.66v7.18H420.1v1.816H409.66v7.5H421.8Z"/><path class="a" d="M447.035,319.7H435.787l-2.42,5.393h-2.223l9.227-20.189h2.107L451.7,325.1h-2.248Zm-.779-1.732-4.846-10.842-4.844,10.842Z"/><path class="a" d="M462.605,304.9h2.135v18.344h11.3V325.1H462.606V304.9Z"/><path class="a" d="M491.07,306.753h-7.094V304.9H500.3v1.848H493.2V325.1h-2.135V306.753Z"/><path class="a" d="M528.127,304.9v20.189h-2.1V315.78H513.391v9.314h-2.135V304.9h2.135v9h12.631v-9Z"/><circle class="a" cx="5.129" cy="5.129" r="5.129" transform="translate(326.68 311.335)"/><path class="a" d="M365.162,299.616a30.7,30.7,0,0,0-.159-3.124,31.442,31.442,0,1,0,.077,5.328c0-.055.009-.108.012-.162.042-.66.07-1.324.07-1.994v-.027A.151.151,0,0,1,365.162,299.616Zm-61.817.048A30.428,30.428,0,0,1,329.813,269.5a13.61,13.61,0,0,1,8.392,2.107,18.392,18.392,0,0,1,8.188,13.588h-1.422c-3.226-8.325-10.79-11.04-15.7-11.921a14.113,14.113,0,0,0-13.316,4.938,10.482,10.482,0,0,0-2.088,7.089c1.045,7.855,9.831,10.87,9.831,10.87l9.416,4.325c14.846,6.188,17.836,14.532,17.54,20.765-.063.761-.707,4.78-7.025,7.179a30.4,30.4,0,0,1-40.284-28.776ZM336.938,283.3a5.13,5.13,0,1,1-5.129-5.131A5.13,5.13,0,0,1,336.938,283.3Z"/><path class="a" d="M326.4,329.194s-14.155-3.694-13.217-15.819c0,0-3.42,5.863,2.134,11.682L320,327.188l3.625,2.007"/><path class="a" d="M313.188,313.375s6.111,16.719,20.587,16.719l-3.743.438-6.313-1.719-4.443-1.656-3.588-3.719-2.5-2.531-.781-3.75"/></g></svg>