<svg xmlns="http://www.w3.org/2000/svg" width="74.698" height="71.688" viewBox="0 0 74.698 71.688"><defs><style>.a{fill:#fff;}.b{fill:#3075ba;}</style></defs><g transform="translate(-329 -3437)"><g transform="translate(-19 62)"><circle class="a" cx="35" cy="35" r="35" transform="translate(348 3375)"/></g><g transform="translate(777.494 3296.547)"><path class="b" d="M-428.688,156.453a5.476,5.476,0,0,0-5.47,5.47,5.476,5.476,0,0,0,5.47,5.47,5.476,5.476,0,0,0,5.47-5.47A5.476,5.476,0,0,0-428.688,156.453Zm0,9.074a3.608,3.608,0,0,1-3.6-3.6,3.608,3.608,0,0,1,3.6-3.6,3.608,3.608,0,0,1,3.6,3.6A3.608,3.608,0,0,1-428.688,165.527Z"/><rect class="b" width="31.736" height="1.866" transform="translate(-420.172 160.991)"/><path class="b" d="M-428.688,171.166a5.476,5.476,0,0,0-5.47,5.47,5.476,5.476,0,0,0,5.47,5.47,5.476,5.476,0,0,0,5.47-5.47A5.476,5.476,0,0,0-428.688,171.166Zm0,9.074a3.608,3.608,0,0,1-3.6-3.6,3.608,3.608,0,0,1,3.6-3.6,3.608,3.608,0,0,1,3.6,3.6A3.608,3.608,0,0,1-428.688,180.24Z" transform="translate(0 -0.986)"/><rect class="b" width="31.736" height="1.866" transform="translate(-420.172 174.562)"/><path class="b" d="M-428.688,185.525a5.476,5.476,0,0,0-5.47,5.47,5.476,5.476,0,0,0,5.47,5.47,5.476,5.476,0,0,0,5.47-5.47A5.476,5.476,0,0,0-428.688,185.525Zm0,9.074a3.608,3.608,0,0,1-3.6-3.6,3.608,3.608,0,0,1,3.6-3.6,3.608,3.608,0,0,1,3.6,3.6A3.608,3.608,0,0,1-428.688,194.6Z" transform="translate(0 -1.948)"/><rect class="b" width="21.586" height="1.866" transform="translate(-420.172 188.134)"/><path class="b" d="M-428.427,159.882a2.3,2.3,0,0,0-2.3,2.3,2.3,2.3,0,0,0,2.3,2.3,2.3,2.3,0,0,0,2.3-2.3A2.3,2.3,0,0,0-428.427,159.882Z" transform="translate(-0.23 -0.23)"/><path class="b" d="M-370.837,201.274l-19.17-16.468V210l5.23-6.335,4.985,10.372,5.273-2.424-4.971-10.342Zm-6.186,9.44-1.881.865-5.455-11.347-3.782,4.581V188.869l12.27,10.54h-6.585Z" transform="translate(-2.959 -1.9)"/></g></g></svg>