<svg xmlns="http://www.w3.org/2000/svg" width="337.992" height="298.137" viewBox="0 0 337.992 298.137"><defs><style>.a{fill:#dffdfb;}.b{fill:#6a3008;}.c{fill:#ffa30f;}.d{fill:#7e3d10;}.e{fill:#572503;}.f{fill:#b26631;}.g{fill:#2b478b;}.h{fill:#b8fcf6;}.i{fill:#d1854f;}.j{fill:#ea8700;}.k{fill:#f3f8ff;}.l{fill:#02a09e;}.m{fill:none;stroke:#001a3a;stroke-width:2px;}</style></defs><g transform="translate(-172.508 -7864.363)"><path class="a" d="M-6382.645,222.614h-271.871c-6.012-24.774-11.33-48.56-15.808-70.7-5.624-27.8-9.93-53.068-12.8-75.092-7.326-56.235-5.435-91.877,5.621-105.936a18.358,18.358,0,0,1,6.032-5.106,16.739,16.739,0,0,1,7.688-1.772,28.4,28.4,0,0,1,10.038,2.09,63.023,63.023,0,0,1,12.157,6.515,135.814,135.814,0,0,1,14.419,11.309c5.243,4.648,10.9,10.19,16.824,16.471,6.87,7.289,13.878,14.12,20.828,20.3,6.671,5.936,13.479,11.443,20.232,16.37a224.534,224.534,0,0,0,19.589,12.813,193.4,193.4,0,0,0,18.9,9.635,174.074,174.074,0,0,0,18.166,6.836,164.534,164.534,0,0,0,17.384,4.414,164.055,164.055,0,0,0,16.557,2.371c5.123.469,10.4.706,15.684.706,17,0,32.236-2.383,46.171-4.958,2.207-.408,4.419-.827,6.372-1.2,10.646-2.018,19.841-3.761,27.348-3.761a29.635,29.635,0,0,1,9.668,1.374,16.442,16.442,0,0,1,7.225,4.773c3.555,4.053,5.646,10.366,6.392,19.3.776,9.284.126,21.609-1.985,37.679-4.888,37.2-11.9,69.35-20.832,95.562Z" transform="translate(6860 7938.887)"/><g transform="translate(23 -138)"><path class="b" d="M829.291,2777.177s-16.187,32.381-32.63,54.734c-6.541,8.9-13.125,16.2-18.743,19.251-5.5,2.981-10.156,7.615-14.008,12.748-9.978,13.294-14.583,29.936-14.583,29.936l-42.045-63.609s1.435-62.178,6.483-72.579c7.358-15.157,10.912-45.781,13.738-51.878,2.1-4.523,8.085-27.885,8.66-29.6.249-.74,2.242-1.874,4.829-1.872,2.077,0,5.6,2.007,6.491,6.132,4.5,20.847-.916,34.6-.854,35.208,1.586,16.021-3.182,27.915.161,31.064.125.117.356.061.683-.147,5.8-3.722,41.771-56.169,46.2-57.3,4.679-1.194,35.615,87.916,35.615,87.916Z" transform="translate(-437.709 5351.173)"/><path class="c" d="M679.058,3156.888s-.573,28.267-2.211,66.338H570.792c24.243-51.7,45.318-95.206,45.318-95.206s60.387,1.844,62.948,28.868Z" transform="translate(-354.792 5075.543)"/><path class="d" d="M1046.946,2633.5l-13.02,19.088-12.777,18.731a2.925,2.925,0,0,1-2.657,1.173c-3.065-.291-6.859-4.713-9.814-7.161l-.3-.247a9.224,9.224,0,0,1-1.224-12.949l19.528-23.605v0l5.791-7a9.223,9.223,0,0,1,12.948-1.225l.3.246a9.226,9.226,0,0,1,1.224,12.951Z" transform="translate(-618.604 5385.252)"/><path class="b" d="M1054.727,2668.577l-12.777,18.731a2.925,2.925,0,0,1-2.657,1.173l8.189-43.962c.017.247,1.409,19.971,7.244,24.059Z" transform="translate(-639.405 5369.269)"/><path class="e" d="M854.8,3069.789c-6.541,8.9-13.125,16.2-18.743,19.251-5.5,2.981-10.156,7.615-14.008,12.748-4.431-2.065-9.483-4.489-14.421-6.889a8.224,8.224,0,0,1-.354-14.623c.058-.031.114-.061.169-.093,5.519-3.157,11.172-14.307,11.172-14.307l36.184,3.913Z" transform="translate(-495.85 5113.295)"/><path class="f" d="M774.845,2681.541l-3.407,13.754s2.978,1.218,4.891.272,3.473-13.285-1.484-14.026Z" transform="translate(-476.684 5346.778)"/><path class="g" d="M896.064,2802.633H822.808a13.14,13.14,0,0,1-13.1-13.1V2628.512a13.139,13.139,0,0,1,13.1-13.1h73.255a13.139,13.139,0,0,1,13.1,13.1v161.019a13.14,13.14,0,0,1-13.1,13.1Z" transform="translate(-499.932 5386.952)"/><path class="h" d="M911.865,2636.935v157.287a9.694,9.694,0,0,1-9.629,9.7H831.9a9.693,9.693,0,0,1-9.628-9.7V2636.935a9.693,9.693,0,0,1,9.628-9.7h70.34a9.694,9.694,0,0,1,9.629,9.7Z" transform="translate(-507.563 5379.769)"/><path class="a" d="M902.236,2627.234l-69.47,176.688h-.87a9.693,9.693,0,0,1-9.628-9.7V2636.935a9.693,9.693,0,0,1,9.628-9.7Z" transform="translate(-507.563 5379.769)"/><path class="g" d="M921.615,2627.6h-29.4a4.366,4.366,0,0,1-4.353-4.354v-.684a4.366,4.366,0,0,1,4.353-4.354h29.4a4.366,4.366,0,0,1,4.353,4.354v.684a4.366,4.366,0,0,1-4.353,4.354Z" transform="translate(-547.412 5385.253)"/><path class="d" d="M1053.117,2813.424l-1.941.738-13.058,4.962a8.408,8.408,0,0,1-.925.293,8.919,8.919,0,0,1-10.545-5.448l-.192-.5A8.919,8.919,0,0,1,1031.61,2802l12.173-4.625.884-.336,1.941-.738a8.916,8.916,0,0,1,11.47,5.154l.192.5a8.919,8.919,0,0,1-5.154,11.472Z" transform="translate(-631.256 5277.415)"/><path class="i" d="M1047.995,2824.979a52.034,52.034,0,0,1-8.234,2.594,3.475,3.475,0,0,1-2.723-1.363,8.041,8.041,0,0,1-1.642-2.962,9.383,9.383,0,0,1-.447-1.89,7.985,7.985,0,0,1,.072-2.248,2.244,2.244,0,0,1,1.246-1.6s.007,0,.01,0a51.525,51.525,0,0,1,7.917-3.105,3.44,3.44,0,0,1,4.268,1.907l.274.749,1.4,3.837a3.289,3.289,0,0,1-2.143,4.088Z" transform="translate(-636.737 5266.159)"/><path class="f" d="M1050.064,2828.3a52.082,52.082,0,0,1-8.234,2.594,3.475,3.475,0,0,1-2.723-1.363c-.11-.255-.211-.525-.306-.813a9.393,9.393,0,0,1-.447-1.89,8.026,8.026,0,0,1,.072-2.248,2.247,2.247,0,0,1,1.246-1.6s.009,0,.01,0a51.464,51.464,0,0,1,7.919-3.1,3.749,3.749,0,0,1,3.2.508l1.4,3.838a3.289,3.289,0,0,1-2.143,4.088Z" transform="translate(-638.806 5262.835)"/><path class="d" d="M1052.847,2868.3l-10.068,2.741a5.782,5.782,0,0,1-7.078-4.048l-.311-1.14a5.782,5.782,0,0,1,4.049-7.077l10.069-2.742a5.781,5.781,0,0,1,7.076,4.049l.311,1.14a5.782,5.782,0,0,1-4.049,7.077Z" transform="translate(-636.912 5240.897)"/><path class="i" d="M1050.16,2873.292a45.469,45.469,0,0,1-6.945,1.46,3.394,3.394,0,0,1-2.747-2.179,6.765,6.765,0,0,1-.515-1.42,6.635,6.635,0,0,1-.224-1.479,5.737,5.737,0,0,1,.224-1.723,1.78,1.78,0,0,1,1.139-1.15s.006,0,.008,0a44.985,44.985,0,0,1,6.726-1.876,2.849,2.849,0,0,1,3.36,1.74l.26.907.775,2.723a2.553,2.553,0,0,1-2.062,3Z" transform="translate(-639.669 5235.409)"/><path class="f" d="M1050.991,2875.634a45.5,45.5,0,0,1-6.945,1.46,3.393,3.393,0,0,1-2.747-2.179,6.35,6.35,0,0,1-.2-1.389,5.749,5.749,0,0,1,.224-1.724,1.787,1.787,0,0,1,1.137-1.15c.005,0,.008,0,.01,0a44.732,44.732,0,0,1,6.726-1.873,3.041,3.041,0,0,1,3.083,1.134l.775,2.723a2.553,2.553,0,0,1-2.062,3Z" transform="translate(-640.5 5233.068)"/><path class="j" d="M659.946,3138.708s20.725,19.85,34.7,27.514l10.578-7.5v11.067s20.8,3.68,27.366,0V3139.6l-58.431-29.291-14.208,28.4Z" transform="translate(-408.953 5086.3)"/><path class="k" d="M666.67,3065.876s-13.161,19.69-26.241,40.741c0,0,27.566,18.962,42.511,24.525l19.6-22.452-2.8,27.026s17.349,6.323,25.4,4.672c0,0-.508-24.517-.5-40.581,0,0-47.69-13.367-57.968-33.932Z" transform="translate(-397.096 5113.295)"/><path class="c" d="M715.532,3188.172a3.263,3.263,0,1,1,3.233,3.292,3.263,3.263,0,0,1-3.233-3.292Z" transform="translate(-442.721 5040.965)"/><path class="d" d="M1051.278,2757.29c-.071.026-.143.05-.218.074l-13.2,3.389c-5.8,1.491-11.807-1.649-13.338-6.979l-.785-2.73c-1.473-5.116,1.691-10.468,7.085-12.2l4.358-1.119,8.844-2.27c5.8-1.491,11.807,1.649,13.338,6.979l.785,2.73c1.452,5.047-1.608,10.319-6.868,12.129Z" transform="translate(-629.735 5314.252)"/><path class="i" d="M1059.885,2761.563l-6.413,2.89-.041.01a6.649,6.649,0,0,1-.775.159c-.107.017-.217.029-.325.041a.816.816,0,0,1-.136,0,1.02,1.02,0,0,1-.886-1.441,6.375,6.375,0,0,0,.364-4.348l-.153-.559a.086.086,0,0,0-.005-.017l-.5-1.821a6.834,6.834,0,0,0-2.325-3.544c-.131-.107-.267-.208-.4-.3a1.842,1.842,0,0,1,.539-3.279l.04-.012,7.037-1.064a3.35,3.35,0,0,1,3.891,2.606l.566,2.073,1.2,4.422c.473,1.742.06,3.712-1.681,4.184Z" transform="translate(-644.393 5306.294)"/><path class="f" d="M1061.73,2765.995l-6.413,2.89-.04.01c-.15.029-.62.107-1.236.2a1.02,1.02,0,0,1-.885-1.441,6.375,6.375,0,0,0,.364-4.348l-.153-.558a.071.071,0,0,0-.005-.017l-.5-1.821a6.83,6.83,0,0,0-2.326-3.544,1.794,1.794,0,0,1,1.01-.719c.012,0,.027-.007.041-.011l7.038-1.065a3.2,3.2,0,0,1,3.58,1.816l1.2,4.422c.473,1.743.06,3.712-1.681,4.184Z" transform="translate(-646.237 5301.862)"/><g transform="translate(338.221 8069.029)"><ellipse class="l" cx="3.75" cy="3.75" rx="3.75" ry="3.75" transform="translate(17.758 31.478)"/><path class="l" d="M348.278,291.187a22.44,22.44,0,0,0-.116-2.284,22.986,22.986,0,1,0,.056,3.895c0-.04.007-.079.009-.118.031-.482.051-.968.051-1.458v-.02A.117.117,0,0,1,348.278,291.187Zm-45.191.035a22.244,22.244,0,0,1,19.349-22.051,9.949,9.949,0,0,1,6.135,1.54,13.445,13.445,0,0,1,5.986,9.933h-1.04c-2.358-6.086-7.888-8.071-11.477-8.715a10.317,10.317,0,0,0-9.735,3.61,7.662,7.662,0,0,0-1.526,5.182c.764,5.742,7.187,7.946,7.187,7.946l6.884,3.162c10.853,4.524,13.039,10.624,12.823,15.18-.046.556-.517,3.494-5.136,5.248a22.221,22.221,0,0,1-29.449-21.036Zm24.558-11.965a3.75,3.75,0,1,1-3.75-3.751A3.75,3.75,0,0,1,327.646,279.257Z" transform="translate(-302.388 -268.276)"/></g></g><line class="m" x2="335" transform="translate(175.5 8161.5)"/></g></svg>