<svg xmlns="http://www.w3.org/2000/svg" width="80.491" height="73" viewBox="0 0 80.491 73">
  <g id="clients-icon" transform="translate(-443 -6906)">
    <circle id="Ellipse_30" data-name="Ellipse 30" cx="35" cy="35" r="35" transform="translate(443 6909)" fill="#02b5b3"/>
    <g id="Group_140" data-name="Group 140" transform="translate(629.052 6753.33)">
      <path id="Path_287" data-name="Path 287" d="M-123.6,174.855l7.532-7.532a4.966,4.966,0,0,0,1.464-3.533,4.967,4.967,0,0,0-1.464-3.535,5,5,0,0,0-7.069,0l-.463.46-.461-.46a4.968,4.968,0,0,0-3.535-1.462,4.964,4.964,0,0,0-3.535,1.462,4.966,4.966,0,0,0-1.464,3.535,4.963,4.963,0,0,0,1.464,3.533Zm-6.293-13.363a3.327,3.327,0,0,1,4.594,0l1.7,1.7,1.7-1.7a3.256,3.256,0,0,1,4.6,0,3.228,3.228,0,0,1,.951,2.3,3.225,3.225,0,0,1-.951,2.3l-6.295,6.295-6.293-6.295a3.218,3.218,0,0,1-.952-2.3A3.222,3.222,0,0,1-129.889,161.492Z" fill="#fff"/>
      <path id="Path_288" data-name="Path 288" d="M-141.375,192.043l-5.748-2.654.346-.378a6.618,6.618,0,0,0,1.746-4.47v-4.453a6.028,6.028,0,0,0-6.022-6.02h-1.2a6.028,6.028,0,0,0-6.021,6.02v4.256a6.915,6.915,0,0,0,1.789,4.662l.344.379-5.8,2.66a5.4,5.4,0,0,0-3.111,4.881v3.594l.431.254A27.584,27.584,0,0,0-151.655,204a27.715,27.715,0,0,0,12.967-3.229l.43-.254v-3.594A5.406,5.406,0,0,0-141.375,192.043Zm-15.153-7.7v-1.289l.292-.066c2.533-.572,5.583-1.6,6.988-4.473l-1.614-.682c-1.04,2.028-3.2,2.815-5.2,3.314l-.465.117v-1.177a4.275,4.275,0,0,1,4.271-4.27h1.2a4.246,4.246,0,0,1,4.233,3.866l.059.626-.579-.245c-.117-.049-.236-.1-.359-.16l-.807,1.554a10.018,10.018,0,0,0,1.454.565l.271.079v2.438a4.827,4.827,0,0,1-1.542,3.556,4.86,4.86,0,0,1-3.354,1.316c-.1,0-.2,0-.3-.009A4.987,4.987,0,0,1-156.528,184.344Zm16.52,15.155-.208.1a26.637,26.637,0,0,1-11.439,2.65,26.764,26.764,0,0,1-11.438-2.651l-.209-.1v-2.572a3.643,3.643,0,0,1,2.1-3.293l6.762-3.1.155.07a6.358,6.358,0,0,0,2.2.551,6.468,6.468,0,0,0,3.112-.551l.156-.069,6.715,3.1a3.649,3.649,0,0,1,2.1,3.3Z" fill="#fff"/>
      <path id="Path_289" data-name="Path 289" d="M-141.631,157.491v29.433l8.117-7.026h23.132a4.826,4.826,0,0,0,4.821-4.82V152.67H-136.81A4.827,4.827,0,0,0-141.631,157.491Zm34.32,17.587a3.073,3.073,0,0,1-3.071,3.07h-23.785l-5.714,4.947v-25.6a3.075,3.075,0,0,1,3.071-3.071h29.5Z" fill="#fff"/>
    </g>
  </g>
</svg>
